<svg width="100" height="100" viewBox="0 0 100 100" fill="none" xmlns="http://www.w3.org/2000/svg">
<g filter="url(#filter0_i_4002_1041)">
<path fill-rule="evenodd" clip-rule="evenodd" d="M50.0001 83.3333C52.1967 83.3333 53.9963 85.0331 54.1553 87.189L54.1668 87.5V91.6667C54.1668 93.9679 52.3013 95.8333 50.0001 95.8333C47.8035 95.8333 46.0039 94.1336 45.8448 91.9776L45.8334 91.6667V87.5C45.8334 85.1988 47.6989 83.3333 50.0001 83.3333ZM50.0001 4.16667C52.1967 4.16667 53.9963 5.86641 54.1553 8.02237L54.1668 8.33333V12.5C54.1668 14.8012 52.3013 16.6667 50.0001 16.6667C47.8035 16.6667 46.0039 14.9669 45.8448 12.811L45.8334 12.5V8.33333C45.8334 6.03215 47.6989 4.16667 50.0001 4.16667ZM16.6667 50C16.6667 52.1966 14.967 53.9962 12.811 54.1552L12.5001 54.1667H8.33342C6.03223 54.1667 4.16675 52.3012 4.16675 50C4.16675 47.8034 5.86649 46.0038 8.02245 45.8448L8.33342 45.8333H12.5001C14.8013 45.8333 16.6667 47.6988 16.6667 50ZM95.8334 50C95.8334 52.1966 94.1337 53.9962 91.9777 54.1552L91.6668 54.1667H87.5001C85.1989 54.1667 83.3334 52.3012 83.3334 50C83.3334 47.8034 85.0332 46.0038 87.1891 45.8448L87.5001 45.8333H91.6668C93.9679 45.8333 95.8334 47.6988 95.8334 50ZM26.4299 26.4298C24.8766 27.983 22.4022 28.0536 20.7653 26.6416L20.5373 26.4298L17.591 23.4835C15.9638 21.8563 15.9638 19.2181 17.591 17.5909C19.1442 16.0377 21.6186 15.9671 23.2556 17.3791L23.4836 17.5909L26.4299 20.5372C28.057 22.1644 28.057 24.8026 26.4299 26.4298ZM82.4091 82.4091C80.8559 83.9623 78.3815 84.0329 76.7446 82.6209L76.5166 82.4091L73.5703 79.4628C71.9431 77.8356 71.9431 75.1974 73.5703 73.5702C75.1235 72.017 77.5979 71.9464 79.2349 73.3584L79.4629 73.5702L82.4091 76.5165C84.0363 78.1437 84.0363 80.7819 82.4091 82.4091ZM26.4299 73.5702C27.9831 75.1235 28.0537 77.5979 26.6417 79.2348L26.4299 79.4628L23.4836 82.4091C21.8564 84.0363 19.2182 84.0363 17.591 82.4091C16.0378 80.8558 15.9672 78.3814 17.3792 76.7445L17.591 76.5165L20.5373 73.5702C22.1645 71.943 24.8027 71.943 26.4299 73.5702ZM82.4091 17.5909C83.9624 19.1442 84.033 21.6186 82.621 23.2555L82.4091 23.4835L79.4629 26.4298C77.8357 28.057 75.1975 28.057 73.5703 26.4298C72.0171 24.8766 71.9465 22.4022 73.3585 20.7652L73.5703 20.5372L76.5166 17.5909C78.1438 15.9638 80.782 15.9638 82.4091 17.5909ZM50.0001 20.8333C33.8918 20.8333 20.8334 33.8917 20.8334 50C20.8334 66.1083 33.8918 79.1667 50.0001 79.1667C66.1084 79.1667 79.1668 66.1083 79.1668 50C79.1668 33.8917 66.1084 20.8333 50.0001 20.8333Z" fill="url(#paint0_linear_4002_1041)"/>
</g>
<defs>
<filter id="filter0_i_4002_1041" x="4.16675" y="4.16667" width="91.6667" height="93.6667" filterUnits="userSpaceOnUse" color-interpolation-filters="sRGB">
<feFlood flood-opacity="0" result="BackgroundImageFix"/>
<feBlend mode="normal" in="SourceGraphic" in2="BackgroundImageFix" result="shape"/>
<feColorMatrix in="SourceAlpha" type="matrix" values="0 0 0 0 0 0 0 0 0 0 0 0 0 0 0 0 0 0 127 0" result="hardAlpha"/>
<feOffset dy="2"/>
<feGaussianBlur stdDeviation="4"/>
<feComposite in2="hardAlpha" operator="arithmetic" k2="-1" k3="1"/>
<feColorMatrix type="matrix" values="0 0 0 0 1 0 0 0 0 1 0 0 0 0 1 0 0 0 1 0"/>
<feBlend mode="overlay" in2="shape" result="effect1_innerShadow_4002_1041"/>
</filter>
<linearGradient id="paint0_linear_4002_1041" x1="50.0001" y1="4.16667" x2="50.0001" y2="95.8333" gradientUnits="userSpaceOnUse">
<stop stop-color="#FFD358"/>
<stop offset="1" stop-color="#FA6C21"/>
</linearGradient>
</defs>
</svg>
