<svg width="100" height="100" viewBox="0 0 100 100" fill="none" xmlns="http://www.w3.org/2000/svg">
<g filter="url(#filter0_i_4002_1063)">
<path fill-rule="evenodd" clip-rule="evenodd" d="M37.5001 16.6667C19.0906 16.6667 4.16675 31.5905 4.16675 50L4.17377 50.6901C4.51509 67.4441 17.2555 81.2827 33.759 83.1255L34.3084 83.1813L34.501 83.2324C34.7956 83.2985 35.1021 83.3333 35.4167 83.3333H72.9168L73.5298 83.3249C85.9626 82.9653 95.8334 72.8218 95.8334 60.4167C95.8334 47.7601 85.5733 37.5 72.9168 37.5L72.0173 37.5174C71.1205 37.5521 70.2315 37.6388 69.354 37.7761L68.573 37.9125L68.357 37.3663C63.3262 25.0687 51.2577 16.6667 37.5001 16.6667Z" fill="url(#paint0_linear_4002_1063)"/>
</g>
<defs>
<filter id="filter0_i_4002_1063" x="2.16675" y="16.6667" width="93.6667" height="70.6667" filterUnits="userSpaceOnUse" color-interpolation-filters="sRGB">
<feFlood flood-opacity="0" result="BackgroundImageFix"/>
<feBlend mode="normal" in="SourceGraphic" in2="BackgroundImageFix" result="shape"/>
<feColorMatrix in="SourceAlpha" type="matrix" values="0 0 0 0 0 0 0 0 0 0 0 0 0 0 0 0 0 0 127 0" result="hardAlpha"/>
<feOffset dx="-2" dy="4"/>
<feGaussianBlur stdDeviation="2"/>
<feComposite in2="hardAlpha" operator="arithmetic" k2="-1" k3="1"/>
<feColorMatrix type="matrix" values="0 0 0 0 1 0 0 0 0 1 0 0 0 0 1 0 0 0 1 0"/>
<feBlend mode="normal" in2="shape" result="effect1_innerShadow_4002_1063"/>
</filter>
<linearGradient id="paint0_linear_4002_1063" x1="10.5885" y1="16.6667" x2="96.8486" y2="81.9928" gradientUnits="userSpaceOnUse">
<stop stop-color="white"/>
<stop offset="1" stop-color="#B4E6FB"/>
</linearGradient>
</defs>
</svg>
