<svg width="100" height="100" viewBox="0 0 100 100" fill="none" xmlns="http://www.w3.org/2000/svg">
<g filter="url(#filter0_i_4002_1043)">
<path fill-rule="evenodd" clip-rule="evenodd" d="M41.2919 7.1175C45.0497 6.35813 47.7522 10.6485 45.4444 13.7098C41.6603 18.7294 39.5833 24.8267 39.5833 31.25C39.5833 47.3583 52.6417 60.4167 68.75 60.4167C75.1734 60.4167 81.2709 58.3396 86.2893 54.5562C89.3506 52.2482 93.641 54.9505 92.8818 58.7084C88.7893 78.9643 70.9159 93.75 50 93.75C25.8375 93.75 6.25 74.1625 6.25 50C6.25 29.0842 21.0356 11.2108 41.2919 7.1175Z" fill="url(#paint0_linear_4002_1043)"/>
</g>
<defs>
<filter id="filter0_i_4002_1043" x="6.25" y="7.02898" width="86.7202" height="88.721" filterUnits="userSpaceOnUse" color-interpolation-filters="sRGB">
<feFlood flood-opacity="0" result="BackgroundImageFix"/>
<feBlend mode="normal" in="SourceGraphic" in2="BackgroundImageFix" result="shape"/>
<feColorMatrix in="SourceAlpha" type="matrix" values="0 0 0 0 0 0 0 0 0 0 0 0 0 0 0 0 0 0 127 0" result="hardAlpha"/>
<feOffset dy="2"/>
<feGaussianBlur stdDeviation="8"/>
<feComposite in2="hardAlpha" operator="arithmetic" k2="-1" k3="1"/>
<feColorMatrix type="matrix" values="0 0 0 0 1 0 0 0 0 1 0 0 0 0 1 0 0 0 1 0"/>
<feBlend mode="overlay" in2="shape" result="effect1_innerShadow_4002_1043"/>
</filter>
<linearGradient id="paint0_linear_4002_1043" x1="49.6101" y1="7.02898" x2="49.6101" y2="93.75" gradientUnits="userSpaceOnUse">
<stop stop-color="#FFD358"/>
<stop offset="1" stop-color="#FA6C21"/>
</linearGradient>
</defs>
</svg>
