<svg width="100" height="100" viewBox="0 0 100 100" fill="none" xmlns="http://www.w3.org/2000/svg">
<g filter="url(#filter0_i_4002_1048)">
<path fill-rule="evenodd" clip-rule="evenodd" d="M65.8578 4.66262C69.6152 3.90311 72.3179 8.19256 70.011 11.2541C68.2757 13.5571 67.3245 16.3502 67.3245 19.2982C67.3245 26.6863 73.3137 32.6754 80.7017 32.6754C83.6494 32.6754 86.4419 31.7244 88.7435 29.9896C91.8047 27.6823 96.0945 30.3843 95.3356 34.1418C92.9977 45.7186 82.7853 54.1667 70.8333 54.1667C57.0261 54.1667 45.8333 42.9738 45.8333 29.1667C45.8333 17.215 54.2808 7.0027 65.8578 4.66262Z" fill="url(#paint0_linear_4002_1048)"/>
</g>
<g filter="url(#filter1_i_4002_1048)">
<path fill-rule="evenodd" clip-rule="evenodd" d="M37.5001 22.9167C51.0121 22.9167 62.8946 31.0214 68.0808 42.9612L68.357 43.6163L68.573 44.1625L69.354 44.0261C69.939 43.9345 70.5291 43.8655 71.1232 43.8194L72.0173 43.7674L72.9168 43.75C85.5733 43.75 95.8334 54.0101 95.8334 66.6667C95.8334 78.8685 86.2836 88.8822 74.1392 89.5494L73.5298 89.5749L72.9168 89.5833H35.4167C35.207 89.5833 35.0009 89.5678 34.7994 89.5379L34.501 89.4824L34.3084 89.4313L33.759 89.3755C17.4879 87.5587 4.87472 74.0815 4.19555 57.6463L4.17377 56.9401L4.16675 56.25C4.16675 37.8405 19.0906 22.9167 37.5001 22.9167Z" fill="url(#paint1_linear_4002_1048)"/>
</g>
<defs>
<filter id="filter0_i_4002_1048" x="45.8333" y="4.57405" width="49.5908" height="51.5926" filterUnits="userSpaceOnUse" color-interpolation-filters="sRGB">
<feFlood flood-opacity="0" result="BackgroundImageFix"/>
<feBlend mode="normal" in="SourceGraphic" in2="BackgroundImageFix" result="shape"/>
<feColorMatrix in="SourceAlpha" type="matrix" values="0 0 0 0 0 0 0 0 0 0 0 0 0 0 0 0 0 0 127 0" result="hardAlpha"/>
<feOffset dy="2"/>
<feGaussianBlur stdDeviation="8"/>
<feComposite in2="hardAlpha" operator="arithmetic" k2="-1" k3="1"/>
<feColorMatrix type="matrix" values="0 0 0 0 1 0 0 0 0 1 0 0 0 0 1 0 0 0 1 0"/>
<feBlend mode="overlay" in2="shape" result="effect1_innerShadow_4002_1048"/>
</filter>
<filter id="filter1_i_4002_1048" x="2.16675" y="22.9167" width="93.6667" height="70.6667" filterUnits="userSpaceOnUse" color-interpolation-filters="sRGB">
<feFlood flood-opacity="0" result="BackgroundImageFix"/>
<feBlend mode="normal" in="SourceGraphic" in2="BackgroundImageFix" result="shape"/>
<feColorMatrix in="SourceAlpha" type="matrix" values="0 0 0 0 0 0 0 0 0 0 0 0 0 0 0 0 0 0 127 0" result="hardAlpha"/>
<feOffset dx="-2" dy="4"/>
<feGaussianBlur stdDeviation="2"/>
<feComposite in2="hardAlpha" operator="arithmetic" k2="-1" k3="1"/>
<feColorMatrix type="matrix" values="0 0 0 0 1 0 0 0 0 1 0 0 0 0 1 0 0 0 1 0"/>
<feBlend mode="normal" in2="shape" result="effect1_innerShadow_4002_1048"/>
</filter>
<linearGradient id="paint0_linear_4002_1048" x1="70.6286" y1="4.57405" x2="70.6286" y2="54.1667" gradientUnits="userSpaceOnUse">
<stop stop-color="#FFD358"/>
<stop offset="1" stop-color="#FA6C21"/>
</linearGradient>
<linearGradient id="paint1_linear_4002_1048" x1="10.5885" y1="22.9167" x2="96.8486" y2="88.2428" gradientUnits="userSpaceOnUse">
<stop stop-color="white"/>
<stop offset="1" stop-color="#B4E6FB"/>
</linearGradient>
</defs>
</svg>
