<svg width="100" height="100" viewBox="0 0 100 100" fill="none" xmlns="http://www.w3.org/2000/svg">
<g filter="url(#filter0_i_4002_1099)">
<path fill-rule="evenodd" clip-rule="evenodd" d="M37.5001 8.33334C19.0906 8.33334 4.16675 23.2572 4.16675 41.6667L4.17377 42.3568C4.51509 59.1108 17.2555 72.9494 33.759 74.7922L34.3084 74.8479L34.501 74.8991C34.7956 74.9651 35.1021 75 35.4167 75H72.9168L73.5298 74.9916C85.9626 74.632 95.8334 64.4885 95.8334 52.0833C95.8334 39.4268 85.5733 29.1667 72.9168 29.1667L72.0173 29.1841C71.1205 29.2188 70.2315 29.3054 69.354 29.4428L68.573 29.5792L68.357 29.0329C63.3262 16.7354 51.2577 8.33334 37.5001 8.33334Z" fill="url(#paint0_linear_4002_1099)"/>
</g>
<path fill-rule="evenodd" clip-rule="evenodd" d="M31.5481 75.5359C32.4027 73.3993 34.8276 72.36 36.9642 73.2147C38.999 74.0286 40.0385 76.2668 39.3947 78.3238L39.2854 78.6308L35.1187 89.0475C34.2641 91.1841 31.8392 92.2233 29.7026 91.3686C27.6677 90.5547 26.6282 88.3165 27.2721 86.2595L27.3814 85.9525L31.5481 75.5359ZM55.7142 73.2147C57.749 74.0286 58.7885 76.2668 58.1447 78.3238L58.0354 78.6308L53.8687 89.0475C53.0141 91.1841 50.5892 92.2233 48.4526 91.3686C46.4177 90.5547 45.3782 88.3165 46.0221 86.2595L46.1314 85.9525L50.2981 75.5359C51.1527 73.3993 53.5776 72.36 55.7142 73.2147ZM50.5058 54.4647C52.5407 55.2786 53.5802 57.5168 52.9363 59.5738L52.827 59.8808L48.6604 70.2975C47.8057 72.4341 45.3809 73.4733 43.2443 72.6186C41.2094 71.8047 40.1699 69.5665 40.8138 67.5095L40.9231 67.2025L45.0897 56.7859C45.9444 54.6493 48.3692 53.61 50.5058 54.4647ZM74.4642 73.2147C76.499 74.0286 77.5386 76.2668 76.8947 78.3238L76.7854 78.6308L72.6187 89.0475C71.7641 91.1841 69.3392 92.2233 67.2026 91.3686C65.1677 90.5547 64.1282 88.3165 64.7721 86.2595L64.8814 85.9525L69.0481 75.5359C69.9027 73.3993 72.3276 72.36 74.4642 73.2147ZM69.2559 54.4647C71.2907 55.2786 72.3302 57.5168 71.6863 59.5738L71.577 59.8808L67.4104 70.2975C66.5557 72.4341 64.1309 73.4733 61.9943 72.6186C59.9594 71.8047 58.9199 69.5665 59.5638 67.5095L59.6731 67.2025L63.8397 56.7859C64.6944 54.6493 67.1193 53.61 69.2559 54.4647Z" fill="url(#paint1_linear_4002_1099)"/>
<defs>
<filter id="filter0_i_4002_1099" x="2.16675" y="8.33334" width="93.6667" height="70.6667" filterUnits="userSpaceOnUse" color-interpolation-filters="sRGB">
<feFlood flood-opacity="0" result="BackgroundImageFix"/>
<feBlend mode="normal" in="SourceGraphic" in2="BackgroundImageFix" result="shape"/>
<feColorMatrix in="SourceAlpha" type="matrix" values="0 0 0 0 0 0 0 0 0 0 0 0 0 0 0 0 0 0 127 0" result="hardAlpha"/>
<feOffset dx="-2" dy="4"/>
<feGaussianBlur stdDeviation="2"/>
<feComposite in2="hardAlpha" operator="arithmetic" k2="-1" k3="1"/>
<feColorMatrix type="matrix" values="0 0 0 0 1 0 0 0 0 1 0 0 0 0 1 0 0 0 1 0"/>
<feBlend mode="normal" in2="shape" result="effect1_innerShadow_4002_1099"/>
</filter>
<linearGradient id="paint0_linear_4002_1099" x1="10.5885" y1="8.33335" x2="96.8486" y2="73.6595" gradientUnits="userSpaceOnUse">
<stop stop-color="white"/>
<stop offset="1" stop-color="#B4E6FB"/>
</linearGradient>
<linearGradient id="paint1_linear_4002_1099" x1="27.0823" y1="54.1656" x2="27.0823" y2="91.6678" gradientUnits="userSpaceOnUse">
<stop stop-color="#4CAFFF"/>
<stop offset="1" stop-color="#8FD5FF"/>
</linearGradient>
</defs>
</svg>
