<svg width="100" height="100" viewBox="0 0 100 100" fill="none" xmlns="http://www.w3.org/2000/svg">
<g filter="url(#filter0_i_4002_1105)">
<path fill-rule="evenodd" clip-rule="evenodd" d="M37.4998 8.33334C19.0903 8.33334 4.1665 23.2572 4.1665 41.6667L4.17353 42.3568C4.51485 59.1108 17.2552 72.9494 33.7587 74.7922L34.3082 74.8479L34.5007 74.8991C34.7954 74.9651 35.1019 75 35.4165 75H72.9165L73.5296 74.9916C85.9624 74.632 95.8332 64.4885 95.8332 52.0833C95.8332 39.4268 85.573 29.1667 72.9165 29.1667L72.0171 29.1841C71.1202 29.2188 70.2313 29.3054 69.3538 29.4428L68.5728 29.5792L68.3568 29.0329C63.326 16.7354 51.2575 8.33334 37.4998 8.33334Z" fill="url(#paint0_linear_4002_1105)"/>
</g>
<path fill-rule="evenodd" clip-rule="evenodd" d="M33.4822 72.1429C33.9096 71.0746 35.122 70.555 36.1903 70.9823C37.2586 71.4096 37.7782 72.6221 37.3509 73.6904L33.1842 84.1071C32.7569 85.1754 31.5445 85.695 30.4762 85.2676C29.4079 84.8403 28.8883 83.6279 29.3156 82.5596L33.4822 72.1429ZM52.2322 72.1429C52.6596 71.0746 53.872 70.555 54.9403 70.9823C56.0086 71.4096 56.5282 72.6221 56.1009 73.6904L51.9342 84.1071C51.5069 85.1754 50.2945 85.695 49.2262 85.2676C48.1579 84.8403 47.6383 83.6279 48.0656 82.5596L52.2322 72.1429ZM70.9822 72.1429C71.4096 71.0746 72.622 70.555 73.6903 70.9823C74.7586 71.4096 75.2782 72.6221 74.8509 73.6904L70.6842 84.1071C70.2569 85.1754 69.0445 85.695 67.9762 85.2676C66.9079 84.8403 66.3883 83.6279 66.8156 82.5596L70.9822 72.1429Z" fill="url(#paint1_linear_4002_1105)"/>
<defs>
<filter id="filter0_i_4002_1105" x="2.1665" y="8.33334" width="93.6665" height="70.6667" filterUnits="userSpaceOnUse" color-interpolation-filters="sRGB">
<feFlood flood-opacity="0" result="BackgroundImageFix"/>
<feBlend mode="normal" in="SourceGraphic" in2="BackgroundImageFix" result="shape"/>
<feColorMatrix in="SourceAlpha" type="matrix" values="0 0 0 0 0 0 0 0 0 0 0 0 0 0 0 0 0 0 127 0" result="hardAlpha"/>
<feOffset dx="-2" dy="4"/>
<feGaussianBlur stdDeviation="2"/>
<feComposite in2="hardAlpha" operator="arithmetic" k2="-1" k3="1"/>
<feColorMatrix type="matrix" values="0 0 0 0 1 0 0 0 0 1 0 0 0 0 1 0 0 0 1 0"/>
<feBlend mode="normal" in2="shape" result="effect1_innerShadow_4002_1105"/>
</filter>
<linearGradient id="paint0_linear_4002_1105" x1="10.5883" y1="8.33335" x2="96.8484" y2="73.6595" gradientUnits="userSpaceOnUse">
<stop stop-color="white"/>
<stop offset="1" stop-color="#B4E6FB"/>
</linearGradient>
<linearGradient id="paint1_linear_4002_1105" x1="29.166" y1="70.8328" x2="29.166" y2="85.4172" gradientUnits="userSpaceOnUse">
<stop stop-color="#4CAFFF"/>
<stop offset="1" stop-color="#8FD5FF"/>
</linearGradient>
</defs>
</svg>
