<svg width="100" height="100" viewBox="0 0 100 100" fill="none" xmlns="http://www.w3.org/2000/svg">
<path fill-rule="evenodd" clip-rule="evenodd" d="M66.1308 73.2147C68.1657 74.0286 69.2052 76.2668 68.5613 78.3238L68.452 78.6308L64.2854 89.0475C63.4307 91.1841 61.0059 92.2233 58.8693 91.3686C56.8344 90.5547 55.7949 88.3165 56.4388 86.2595L56.5481 85.9525L60.7147 75.5359C61.5694 73.3993 63.9942 72.36 66.1308 73.2147ZM78.6308 73.2147C80.6657 74.0286 81.7052 76.2668 81.0613 78.3238L80.952 78.6308L76.7854 89.0475C75.9307 91.1841 73.5059 92.2233 71.3693 91.3686C69.3344 90.5547 68.2949 88.3165 68.9388 86.2595L69.0481 85.9525L73.2147 75.5359C74.0694 73.3993 76.4942 72.36 78.6308 73.2147ZM91.1308 73.2147C93.1657 74.0286 94.2052 76.2668 93.5613 78.3238L93.452 78.6308L89.2854 89.0475C88.4307 91.1841 86.0058 92.2233 83.8692 91.3686C81.8344 90.5547 80.7949 88.3165 81.4388 86.2595L81.5481 85.9525L85.7147 75.5359C86.5694 73.3993 88.9942 72.36 91.1308 73.2147ZM75.5058 54.4647C77.5407 55.2786 78.5802 57.5168 77.9363 59.5738L77.827 59.8808L73.6604 70.2975C72.8057 72.4341 70.3808 73.4733 68.2443 72.6186C66.2094 71.8047 65.1699 69.5665 65.8138 67.5095L65.9231 67.2025L70.0897 56.7859C70.9444 54.6493 73.3692 53.61 75.5058 54.4647ZM90.0892 54.4647C92.124 55.2786 93.1635 57.5168 92.5197 59.5738L92.4104 59.8808L88.2437 70.2975C87.3891 72.4341 84.9642 73.4733 82.8276 72.6186C80.7927 71.8047 79.7532 69.5665 80.3971 67.5095L80.5064 67.2025L84.6731 56.7859C85.5277 54.6493 87.9526 53.61 90.0892 54.4647ZM12.7981 75.5359C13.6527 73.3993 16.0776 72.36 18.2142 73.2147C20.249 74.0286 21.2885 76.2668 20.6447 78.3238L20.5354 78.6308L16.3687 89.0475C15.5141 91.1841 13.0892 92.2233 10.9526 91.3686C8.91773 90.5547 7.87822 88.3165 8.5221 86.2595L8.6314 85.9525L12.7981 75.5359ZM36.9642 73.2147C38.999 74.0286 40.0385 76.2668 39.3947 78.3238L39.2854 78.6308L35.1187 89.0475C34.2641 91.1841 31.8392 92.2233 29.7026 91.3686C27.6677 90.5547 26.6282 88.3165 27.2721 86.2595L27.3814 85.9525L31.5481 75.5359C32.4027 73.3993 34.8276 72.36 36.9642 73.2147ZM31.7558 54.4647C33.7907 55.2786 34.8302 57.5168 34.1863 59.5738L34.077 59.8808L29.9104 70.2975C29.0557 72.4341 26.6309 73.4733 24.4943 72.6186C22.4594 71.8047 21.4199 69.5665 22.0638 67.5095L22.1731 67.2025L26.3397 56.7859C27.1944 54.6493 29.6192 53.61 31.7558 54.4647Z" fill="url(#paint0_linear_4002_1165)"/>
<g filter="url(#filter0_i_4002_1165)">
<path fill-rule="evenodd" clip-rule="evenodd" d="M50 47.9167C52.3012 47.9167 54.1667 49.7821 54.1667 52.0833V81.25C54.1667 88.1536 48.5702 93.75 41.6667 93.75C39.3655 93.75 37.5 91.8845 37.5 89.5833C37.5 87.2821 39.3655 85.4167 41.6667 85.4167C43.9679 85.4167 45.8333 83.5512 45.8333 81.25V52.0833C45.8333 49.7821 47.6988 47.9167 50 47.9167Z" fill="url(#paint1_linear_4002_1165)"/>
</g>
<path fill-rule="evenodd" clip-rule="evenodd" d="M50.0001 6.25C75.3131 6.25 95.8334 26.7703 95.8334 52.0833C95.8334 54.3845 93.9679 56.25 91.6668 56.25H8.33342C6.03223 56.25 4.16675 54.3845 4.16675 52.0833C4.16675 26.7703 24.687 6.25 50.0001 6.25Z" fill="url(#paint2_linear_4002_1165)"/>
<path fill-rule="evenodd" clip-rule="evenodd" d="M50.0001 56.25C40.7408 56.25 26.8519 56.25 8.33342 56.25C6.03223 56.25 4.16675 54.3845 4.16675 52.0833C4.16675 26.7703 24.687 6.25 50.0001 6.25V56.25Z" fill="url(#paint3_linear_4002_1165)"/>
<path fill-rule="evenodd" clip-rule="evenodd" d="M66.6668 56.25C66.6668 28.6358 59.2049 6.25 50.0002 6.25C40.7954 6.25 33.3335 28.6358 33.3335 56.25H66.6668Z" fill="url(#paint4_linear_4002_1165)"/>
<defs>
<filter id="filter0_i_4002_1165" x="35.5" y="47.9167" width="18.6667" height="49.8333" filterUnits="userSpaceOnUse" color-interpolation-filters="sRGB">
<feFlood flood-opacity="0" result="BackgroundImageFix"/>
<feBlend mode="normal" in="SourceGraphic" in2="BackgroundImageFix" result="shape"/>
<feColorMatrix in="SourceAlpha" type="matrix" values="0 0 0 0 0 0 0 0 0 0 0 0 0 0 0 0 0 0 127 0" result="hardAlpha"/>
<feOffset dx="-2" dy="4"/>
<feGaussianBlur stdDeviation="2"/>
<feComposite in2="hardAlpha" operator="arithmetic" k2="-1" k3="1"/>
<feColorMatrix type="matrix" values="0 0 0 0 1 0 0 0 0 1 0 0 0 0 1 0 0 0 1 0"/>
<feBlend mode="normal" in2="shape" result="effect1_innerShadow_4002_1165"/>
</filter>
<linearGradient id="paint0_linear_4002_1165" x1="8.33228" y1="54.1656" x2="8.33228" y2="91.6678" gradientUnits="userSpaceOnUse">
<stop stop-color="#4CAFFF"/>
<stop offset="1" stop-color="#8FD5FF"/>
</linearGradient>
<linearGradient id="paint1_linear_4002_1165" x1="38.6676" y1="47.9167" x2="62.3945" y2="52.6687" gradientUnits="userSpaceOnUse">
<stop stop-color="white"/>
<stop offset="1" stop-color="#B4E6FB"/>
</linearGradient>
<linearGradient id="paint2_linear_4002_1165" x1="50.0001" y1="6.25" x2="50.0001" y2="56.25" gradientUnits="userSpaceOnUse">
<stop stop-color="#FFAA85"/>
<stop offset="1" stop-color="#FF6161"/>
</linearGradient>
<linearGradient id="paint3_linear_4002_1165" x1="27.0834" y1="6.25" x2="27.0834" y2="56.25" gradientUnits="userSpaceOnUse">
<stop stop-color="#7AC7FF"/>
<stop offset="1" stop-color="#2E69FF"/>
</linearGradient>
<linearGradient id="paint4_linear_4002_1165" x1="50.0002" y1="6.25" x2="50.0002" y2="56.25" gradientUnits="userSpaceOnUse">
<stop stop-color="#FFFB95"/>
<stop offset="1" stop-color="#FFB812"/>
</linearGradient>
</defs>
</svg>
