<svg width="100" height="100" viewBox="0 0 100 100" fill="none" xmlns="http://www.w3.org/2000/svg">
<path fill-rule="evenodd" clip-rule="evenodd" d="M14.0474 73.2147C16.0823 74.0286 17.1218 76.2668 16.4779 78.3238L16.3686 78.6308L12.202 89.0475C11.3473 91.1841 8.92244 92.2233 6.78584 91.3686C4.75099 90.5547 3.71147 88.3165 4.35536 86.2595L4.46465 85.9525L8.63132 75.5359C9.48596 73.3993 11.9108 72.36 14.0474 73.2147ZM26.5474 73.2147C28.5823 74.0286 29.6218 76.2668 28.9779 78.3238L28.8686 78.6308L24.702 89.0475C23.8473 91.1841 21.4224 92.2233 19.2858 91.3686C17.251 90.5547 16.2115 88.3165 16.8554 86.2595L16.9646 85.9525L21.1313 75.5359C21.986 73.3993 24.4108 72.36 26.5474 73.2147ZM39.0474 73.2147C41.0823 74.0286 42.1218 76.2668 41.4779 78.3238L41.3686 78.6308L37.202 89.0475C36.3473 91.1841 33.9224 92.2233 31.7858 91.3686C29.751 90.5547 28.7115 88.3165 29.3554 86.2595L29.4646 85.9525L33.6313 75.5359C34.486 73.3993 36.9108 72.36 39.0474 73.2147ZM23.4224 54.4647C25.4573 55.2786 26.4968 57.5168 25.8529 59.5738L25.7436 59.8808L21.577 70.2975C20.7223 72.4341 18.2974 73.4733 16.1608 72.6186C14.126 71.8047 13.0865 69.5665 13.7304 67.5095L13.8397 67.2025L18.0063 56.7859C18.861 54.6493 21.2858 53.61 23.4224 54.4647ZM38.0058 54.4647C40.0406 55.2786 41.0801 57.5168 40.4362 59.5738L40.327 59.8808L36.1603 70.2975C35.3056 72.4341 32.8808 73.4733 30.7442 72.6186C28.7093 71.8047 27.6698 69.5665 28.3137 67.5095L28.423 67.2025L32.5896 56.7859C33.4443 54.6493 35.8692 53.61 38.0058 54.4647ZM66.9646 65.1192C67.8193 62.9826 70.2442 61.9434 72.3808 62.798C74.5174 63.6527 75.5566 66.0775 74.702 68.2141L66.3686 89.0475C65.514 91.1841 63.0891 92.2233 60.9525 91.3686C58.8159 90.514 57.7767 88.0891 58.6313 85.9525L66.9646 65.1192ZM85.7146 65.1192C86.5693 62.9826 88.9942 61.9434 91.1308 62.798C93.2674 63.6527 94.3066 66.0775 93.452 68.2141L85.1186 89.0475C84.264 91.1841 81.8391 92.2233 79.7025 91.3686C77.5659 90.514 76.5267 88.0891 77.3813 85.9525L85.7146 65.1192Z" fill="url(#paint0_linear_4002_1172)"/>
<g filter="url(#filter0_i_4002_1172)">
<path fill-rule="evenodd" clip-rule="evenodd" d="M50 47.9167C52.3012 47.9167 54.1667 49.7821 54.1667 52.0833V81.25C54.1667 88.1536 48.5702 93.75 41.6667 93.75C39.3655 93.75 37.5 91.8845 37.5 89.5833C37.5 87.2821 39.3655 85.4167 41.6667 85.4167C43.9679 85.4167 45.8333 83.5512 45.8333 81.25V52.0833C45.8333 49.7821 47.6988 47.9167 50 47.9167Z" fill="url(#paint1_linear_4002_1172)"/>
</g>
<path fill-rule="evenodd" clip-rule="evenodd" d="M50.0001 6.25C75.3131 6.25 95.8334 26.7703 95.8334 52.0833C95.8334 54.3845 93.9679 56.25 91.6668 56.25H8.33342C6.03223 56.25 4.16675 54.3845 4.16675 52.0833C4.16675 26.7703 24.687 6.25 50.0001 6.25Z" fill="url(#paint2_linear_4002_1172)"/>
<path fill-rule="evenodd" clip-rule="evenodd" d="M50.0001 56.25C40.7408 56.25 26.8519 56.25 8.33342 56.25C6.03223 56.25 4.16675 54.3845 4.16675 52.0833C4.16675 26.7703 24.687 6.25 50.0001 6.25V56.25Z" fill="url(#paint3_linear_4002_1172)"/>
<path fill-rule="evenodd" clip-rule="evenodd" d="M66.6668 56.25C66.6668 28.6358 59.2049 6.25 50.0002 6.25C40.7954 6.25 33.3335 28.6358 33.3335 56.25H66.6668Z" fill="url(#paint4_linear_4002_1172)"/>
<defs>
<filter id="filter0_i_4002_1172" x="35.5" y="47.9167" width="18.6667" height="49.8333" filterUnits="userSpaceOnUse" color-interpolation-filters="sRGB">
<feFlood flood-opacity="0" result="BackgroundImageFix"/>
<feBlend mode="normal" in="SourceGraphic" in2="BackgroundImageFix" result="shape"/>
<feColorMatrix in="SourceAlpha" type="matrix" values="0 0 0 0 0 0 0 0 0 0 0 0 0 0 0 0 0 0 127 0" result="hardAlpha"/>
<feOffset dx="-2" dy="4"/>
<feGaussianBlur stdDeviation="2"/>
<feComposite in2="hardAlpha" operator="arithmetic" k2="-1" k3="1"/>
<feColorMatrix type="matrix" values="0 0 0 0 1 0 0 0 0 1 0 0 0 0 1 0 0 0 1 0"/>
<feBlend mode="normal" in2="shape" result="effect1_innerShadow_4002_1172"/>
</filter>
<linearGradient id="paint0_linear_4002_1172" x1="4.16553" y1="54.1656" x2="4.16553" y2="91.6678" gradientUnits="userSpaceOnUse">
<stop stop-color="#4CAFFF"/>
<stop offset="1" stop-color="#8FD5FF"/>
</linearGradient>
<linearGradient id="paint1_linear_4002_1172" x1="38.6676" y1="47.9167" x2="62.3945" y2="52.6687" gradientUnits="userSpaceOnUse">
<stop stop-color="white"/>
<stop offset="1" stop-color="#B4E6FB"/>
</linearGradient>
<linearGradient id="paint2_linear_4002_1172" x1="50.0001" y1="6.25" x2="50.0001" y2="56.25" gradientUnits="userSpaceOnUse">
<stop stop-color="#FFAA85"/>
<stop offset="1" stop-color="#FF6161"/>
</linearGradient>
<linearGradient id="paint3_linear_4002_1172" x1="27.0834" y1="6.25" x2="27.0834" y2="56.25" gradientUnits="userSpaceOnUse">
<stop stop-color="#7AC7FF"/>
<stop offset="1" stop-color="#2E69FF"/>
</linearGradient>
<linearGradient id="paint4_linear_4002_1172" x1="50.0002" y1="6.25" x2="50.0002" y2="56.25" gradientUnits="userSpaceOnUse">
<stop stop-color="#FFFB95"/>
<stop offset="1" stop-color="#FFB812"/>
</linearGradient>
</defs>
</svg>
