<svg width="100" height="100" viewBox="0 0 100 100" fill="none" xmlns="http://www.w3.org/2000/svg">
<g filter="url(#filter0_i_4002_1122)">
<path fill-rule="evenodd" clip-rule="evenodd" d="M37.5001 8.33331C19.0906 8.33331 4.16675 23.2572 4.16675 41.6666L4.17377 42.3568C4.51509 59.1107 17.2555 72.9494 33.759 74.7921L34.3084 74.8479L34.501 74.899C34.7956 74.9651 35.1021 75 35.4167 75H72.9168L73.5298 74.9916C85.9626 74.632 95.8334 64.4885 95.8334 52.0833C95.8334 39.4268 85.5733 29.1666 72.9168 29.1666L72.0173 29.184C71.1205 29.2188 70.2315 29.3054 69.354 29.4427L68.573 29.5791L68.357 29.0329C63.3262 16.7354 51.2577 8.33331 37.5001 8.33331Z" fill="url(#paint0_linear_4002_1122)"/>
</g>
<path fill-rule="evenodd" clip-rule="evenodd" d="M50 70.8333C47.8034 70.8333 46.0038 72.5331 45.8448 74.689L45.8333 75V79.1666H41.6667L41.3557 79.1781C39.1997 79.3371 37.5 81.1367 37.5 83.3333C37.5 85.5299 39.1997 87.3295 41.3557 87.4886L41.6667 87.5H45.8333V91.6666L45.8448 91.9776C45.9959 94.0258 47.6276 95.6622 49.6736 95.8207L50 95.8333L50.311 95.8219C52.3591 95.6708 53.9956 94.0391 54.1541 91.993L54.1667 91.6666V87.5H58.3333L58.6443 87.4886C60.8003 87.3295 62.5 85.5299 62.5 83.3333C62.5 81.1367 60.8003 79.3371 58.6443 79.1781L58.3333 79.1666H54.1667V75L54.1552 74.689C53.9962 72.5331 52.1966 70.8333 50 70.8333Z" fill="url(#paint1_linear_4002_1122)"/>
<defs>
<filter id="filter0_i_4002_1122" x="2.16675" y="8.33331" width="93.6667" height="70.6667" filterUnits="userSpaceOnUse" color-interpolation-filters="sRGB">
<feFlood flood-opacity="0" result="BackgroundImageFix"/>
<feBlend mode="normal" in="SourceGraphic" in2="BackgroundImageFix" result="shape"/>
<feColorMatrix in="SourceAlpha" type="matrix" values="0 0 0 0 0 0 0 0 0 0 0 0 0 0 0 0 0 0 127 0" result="hardAlpha"/>
<feOffset dx="-2" dy="4"/>
<feGaussianBlur stdDeviation="2"/>
<feComposite in2="hardAlpha" operator="arithmetic" k2="-1" k3="1"/>
<feColorMatrix type="matrix" values="0 0 0 0 1 0 0 0 0 1 0 0 0 0 1 0 0 0 1 0"/>
<feBlend mode="normal" in2="shape" result="effect1_innerShadow_4002_1122"/>
</filter>
<linearGradient id="paint0_linear_4002_1122" x1="10.5885" y1="8.33332" x2="96.8486" y2="73.6594" gradientUnits="userSpaceOnUse">
<stop stop-color="white"/>
<stop offset="1" stop-color="#B4E6FB"/>
</linearGradient>
<linearGradient id="paint1_linear_4002_1122" x1="37.5" y1="70.8333" x2="37.5" y2="95.8333" gradientUnits="userSpaceOnUse">
<stop stop-color="#4CAFFF"/>
<stop offset="1" stop-color="#8FD5FF"/>
</linearGradient>
</defs>
</svg>
