<svg width="100" height="100" viewBox="0 0 100 100" fill="none" xmlns="http://www.w3.org/2000/svg">
<g filter="url(#filter0_i_4002_1125)">
<path fill-rule="evenodd" clip-rule="evenodd" d="M37.5001 8.33331C19.0906 8.33331 4.16675 23.2572 4.16675 41.6666L4.17377 42.3568C4.51509 59.1107 17.2555 72.9494 33.759 74.7921L34.3084 74.8479L34.501 74.899C34.7956 74.9651 35.1021 75 35.4167 75H72.9168L73.5298 74.9916C85.9626 74.632 95.8334 64.4885 95.8334 52.0833C95.8334 39.4268 85.5733 29.1666 72.9168 29.1666L72.0173 29.184C71.1205 29.2188 70.2315 29.3054 69.354 29.4427L68.573 29.5791L68.357 29.0329C63.3262 16.7354 51.2577 8.33331 37.5001 8.33331Z" fill="url(#paint0_linear_4002_1125)"/>
</g>
<path fill-rule="evenodd" clip-rule="evenodd" d="M41.6667 70.8333C43.8633 70.8333 45.6629 72.5331 45.822 74.689L45.8334 75V79.1667H50.0001L50.311 79.1781C52.467 79.3372 54.1667 81.1367 54.1667 83.3333C54.1667 85.5299 52.467 87.3295 50.311 87.4886L50.0001 87.5H45.8334V91.6667L45.8208 91.993C45.6623 94.0391 44.0259 95.6708 41.9777 95.8219L41.6667 95.8333L41.3404 95.8207C39.2943 95.6622 37.6626 94.0258 37.5115 91.9776L37.5001 91.6667V87.5H33.3334L33.0225 87.4886C30.8665 87.3295 29.1667 85.5299 29.1667 83.3333C29.1667 81.1367 30.8665 79.3372 33.0225 79.1781L33.3334 79.1667H37.5001V75L37.5115 74.689C37.6706 72.5331 39.4702 70.8333 41.6667 70.8333ZM62.5001 56.25C64.6967 56.25 66.4963 57.9497 66.6553 60.1057L66.6668 60.4167V64.5833H70.8334L71.1444 64.5948C73.3003 64.7538 75.0001 66.5534 75.0001 68.75C75.0001 70.9466 73.3003 72.7462 71.1444 72.9052L70.8334 72.9167H66.6668V77.0833L66.6542 77.4097C66.4956 79.4558 64.8592 81.0875 62.811 81.2386L62.5001 81.25L62.1737 81.2374C60.1276 81.0789 58.496 79.4425 58.3448 77.3943L58.3334 77.0833V72.9167H54.1667L53.8558 72.9052C51.6998 72.7462 50.0001 70.9466 50.0001 68.75C50.0001 66.5534 51.6998 64.7538 53.8558 64.5948L54.1667 64.5833H58.3334V60.4167L58.3448 60.1057C58.5039 57.9497 60.3035 56.25 62.5001 56.25Z" fill="url(#paint1_linear_4002_1125)"/>
<defs>
<filter id="filter0_i_4002_1125" x="2.16675" y="8.33331" width="93.6667" height="70.6667" filterUnits="userSpaceOnUse" color-interpolation-filters="sRGB">
<feFlood flood-opacity="0" result="BackgroundImageFix"/>
<feBlend mode="normal" in="SourceGraphic" in2="BackgroundImageFix" result="shape"/>
<feColorMatrix in="SourceAlpha" type="matrix" values="0 0 0 0 0 0 0 0 0 0 0 0 0 0 0 0 0 0 127 0" result="hardAlpha"/>
<feOffset dx="-2" dy="4"/>
<feGaussianBlur stdDeviation="2"/>
<feComposite in2="hardAlpha" operator="arithmetic" k2="-1" k3="1"/>
<feColorMatrix type="matrix" values="0 0 0 0 1 0 0 0 0 1 0 0 0 0 1 0 0 0 1 0"/>
<feBlend mode="normal" in2="shape" result="effect1_innerShadow_4002_1125"/>
</filter>
<linearGradient id="paint0_linear_4002_1125" x1="10.5885" y1="8.33332" x2="96.8486" y2="73.6594" gradientUnits="userSpaceOnUse">
<stop stop-color="white"/>
<stop offset="1" stop-color="#B4E6FB"/>
</linearGradient>
<linearGradient id="paint1_linear_4002_1125" x1="29.1667" y1="56.25" x2="29.1667" y2="95.8333" gradientUnits="userSpaceOnUse">
<stop stop-color="#4CAFFF"/>
<stop offset="1" stop-color="#8FD5FF"/>
</linearGradient>
</defs>
</svg>
