<svg width="100" height="100" viewBox="0 0 100 100" fill="none" xmlns="http://www.w3.org/2000/svg">
<g filter="url(#filter0_i_4002_1128)">
<path fill-rule="evenodd" clip-rule="evenodd" d="M37.5001 8.33331C19.0906 8.33331 4.16675 23.2572 4.16675 41.6666L4.17377 42.3568C4.51509 59.1107 17.2555 72.9494 33.759 74.7921L34.3084 74.8479L34.501 74.899C34.7956 74.9651 35.1021 75 35.4167 75H72.9168L73.5298 74.9916C85.9626 74.632 95.8334 64.4885 95.8334 52.0833C95.8334 39.4268 85.5733 29.1666 72.9168 29.1666L72.0173 29.184C71.1205 29.2188 70.2315 29.3054 69.354 29.4427L68.573 29.5791L68.357 29.0329C63.3262 16.7354 51.2577 8.33331 37.5001 8.33331Z" fill="url(#paint0_linear_4002_1128)"/>
</g>
<path fill-rule="evenodd" clip-rule="evenodd" d="M45.8333 70.8333C48.0299 70.8333 49.8295 72.5331 49.9886 74.689L50 75V79.1666H54.1667L54.4776 79.1781C56.6336 79.3371 58.3333 81.1367 58.3333 83.3333C58.3333 85.5299 56.6336 87.3295 54.4776 87.4885L54.1667 87.5H50V91.6666L49.9874 91.993C49.8289 94.0391 48.1925 95.6708 46.1443 95.8219L45.8333 95.8333L45.507 95.8207C43.4609 95.6622 41.8292 94.0258 41.6781 91.9776L41.6667 91.6666V87.5H37.5L37.189 87.4885C35.0331 87.3295 33.3333 85.5299 33.3333 83.3333C33.3333 81.1367 35.0331 79.3371 37.189 79.1781L37.5 79.1666H41.6667V75L41.6781 74.689C41.8372 72.5331 43.6367 70.8333 45.8333 70.8333ZM64.5833 47.9166C66.7799 47.9166 68.5795 49.6164 68.7386 51.7724L68.75 52.0833V56.25H72.9167L73.2276 56.2614C75.3836 56.4205 77.0833 58.2201 77.0833 60.4166C77.0833 62.6132 75.3836 64.4128 73.2276 64.5719L72.9167 64.5833H68.75V68.75L68.7374 69.0763C68.5789 71.1224 66.9425 72.7541 64.8943 72.9052L64.5833 72.9166L64.257 72.904C62.2109 72.7455 60.5792 71.1091 60.4281 69.0609L60.4167 68.75V64.5833H56.25L55.939 64.5719C53.7831 64.4128 52.0833 62.6132 52.0833 60.4166C52.0833 58.2201 53.7831 56.4205 55.939 56.2614L56.25 56.25H60.4167V52.0833L60.4281 51.7724C60.5872 49.6164 62.3867 47.9166 64.5833 47.9166ZM37.5 39.5833C39.6966 39.5833 41.4962 41.2831 41.6552 43.439L41.6667 43.75V47.9166H45.8333L46.1443 47.9281C48.3003 48.0871 50 49.8867 50 52.0833C50 54.2799 48.3003 56.0795 46.1443 56.2386L45.8333 56.25H41.6667V60.4166L41.6541 60.743C41.4956 62.7891 39.8591 64.4208 37.811 64.5719L37.5 64.5833L37.1736 64.5707C35.1276 64.4122 33.4959 62.7758 33.3448 60.7276L33.3333 60.4166V56.25H29.1667L28.8557 56.2386C26.6997 56.0795 25 54.2799 25 52.0833C25 49.8867 26.6997 48.0871 28.8557 47.9281L29.1667 47.9166H33.3333V43.75L33.3448 43.439C33.5038 41.2831 35.3034 39.5833 37.5 39.5833Z" fill="url(#paint1_linear_4002_1128)"/>
<defs>
<filter id="filter0_i_4002_1128" x="2.16675" y="8.33331" width="93.6667" height="70.6667" filterUnits="userSpaceOnUse" color-interpolation-filters="sRGB">
<feFlood flood-opacity="0" result="BackgroundImageFix"/>
<feBlend mode="normal" in="SourceGraphic" in2="BackgroundImageFix" result="shape"/>
<feColorMatrix in="SourceAlpha" type="matrix" values="0 0 0 0 0 0 0 0 0 0 0 0 0 0 0 0 0 0 127 0" result="hardAlpha"/>
<feOffset dx="-2" dy="4"/>
<feGaussianBlur stdDeviation="2"/>
<feComposite in2="hardAlpha" operator="arithmetic" k2="-1" k3="1"/>
<feColorMatrix type="matrix" values="0 0 0 0 1 0 0 0 0 1 0 0 0 0 1 0 0 0 1 0"/>
<feBlend mode="normal" in2="shape" result="effect1_innerShadow_4002_1128"/>
</filter>
<linearGradient id="paint0_linear_4002_1128" x1="10.5885" y1="8.33332" x2="96.8486" y2="73.6594" gradientUnits="userSpaceOnUse">
<stop stop-color="white"/>
<stop offset="1" stop-color="#B4E6FB"/>
</linearGradient>
<linearGradient id="paint1_linear_4002_1128" x1="25" y1="39.5833" x2="25" y2="95.8333" gradientUnits="userSpaceOnUse">
<stop stop-color="#4CAFFF"/>
<stop offset="1" stop-color="#8FD5FF"/>
</linearGradient>
</defs>
</svg>
