<svg width="100" height="100" viewBox="0 0 100 100" fill="none" xmlns="http://www.w3.org/2000/svg">
<g filter="url(#filter0_i_4002_1131)">
<path fill-rule="evenodd" clip-rule="evenodd" d="M37.5001 8.33331C19.0906 8.33331 4.16675 23.2572 4.16675 41.6666L4.17377 42.3568C4.51509 59.1107 17.2555 72.9494 33.759 74.7921L34.3084 74.8479L34.501 74.899C34.7956 74.9651 35.1021 75 35.4167 75H72.9168L73.5298 74.9916C85.9626 74.632 95.8334 64.4885 95.8334 52.0833C95.8334 39.4268 85.5733 29.1666 72.9168 29.1666L72.0173 29.184C71.1205 29.2188 70.2315 29.3054 69.354 29.4427L68.573 29.5791L68.357 29.0329C63.3262 16.7354 51.2577 8.33331 37.5001 8.33331Z" fill="url(#paint0_linear_4002_1131)"/>
</g>
<path fill-rule="evenodd" clip-rule="evenodd" d="M49.9999 70.8334C52.1965 70.8334 53.9961 72.5331 54.1552 74.6891L54.1666 75V79.1667H58.3333L58.6442 79.1781C60.8002 79.3372 62.4999 81.1368 62.4999 83.3334C62.4999 85.5299 60.8002 87.3295 58.6442 87.4886L58.3333 87.5H54.1666V91.6667L54.154 91.993C53.9955 94.0391 52.359 95.6708 50.3109 95.8219L49.9999 95.8334L49.6736 95.8208C47.6275 95.6622 45.9958 94.0258 45.8447 91.9776L45.8333 91.6667V87.5H41.6666L41.3556 87.4886C39.1997 87.3295 37.4999 85.5299 37.4999 83.3334C37.4999 81.1368 39.1997 79.3372 41.3556 79.1781L41.6666 79.1667H45.8333V75L45.8447 74.6891C46.0037 72.5331 47.8033 70.8334 49.9999 70.8334ZM20.8333 70.8334C23.0298 70.8334 24.8294 72.5331 24.9885 74.6891L24.9999 75V79.1667H29.1666L29.4775 79.1781C31.6335 79.3372 33.3333 81.1368 33.3333 83.3334C33.3333 85.5299 31.6335 87.3295 29.4775 87.4886L29.1666 87.5H24.9999V91.6667L24.9873 91.993C24.8288 94.0391 23.1924 95.6708 21.1442 95.8219L20.8333 95.8334L20.5069 95.8208C18.4608 95.6622 16.8291 94.0258 16.678 91.9776L16.6666 91.6667V87.5H12.4999L12.189 87.4886C10.033 87.3295 8.33325 85.5299 8.33325 83.3334C8.33325 81.1368 10.033 79.3372 12.189 79.1781L12.4999 79.1667H16.6666V75L16.678 74.6891C16.8371 72.5331 18.6367 70.8334 20.8333 70.8334ZM79.1666 70.8334C81.3632 70.8334 83.1628 72.5331 83.3218 74.6891L83.3333 75V79.1667H87.4999L87.8109 79.1781C89.9668 79.3372 91.6666 81.1368 91.6666 83.3334C91.6666 85.5299 89.9668 87.3295 87.8109 87.4886L87.4999 87.5H83.3333V91.6667L83.3207 91.993C83.1621 94.0391 81.5257 95.6708 79.4775 95.8219L79.1666 95.8334L78.8402 95.8208C76.7941 95.6622 75.1625 94.0258 75.0113 91.9776L74.9999 91.6667V87.5H70.8332L70.5223 87.4886C68.3663 87.3295 66.6666 85.5299 66.6666 83.3334C66.6666 81.1368 68.3663 79.3372 70.5223 79.1781L70.8332 79.1667H74.9999V75L75.0113 74.6891C75.1704 72.5331 76.97 70.8334 79.1666 70.8334ZM64.5832 47.9167C66.7798 47.9167 68.5794 49.6164 68.7385 51.7724L68.7499 52.0834V56.25H72.9166L73.2275 56.2614C75.3835 56.4205 77.0833 58.2201 77.0833 60.4167C77.0833 62.6133 75.3835 64.4129 73.2275 64.5719L72.9166 64.5834H68.7499V68.75L68.7373 69.0764C68.5788 71.1225 66.9424 72.7542 64.8942 72.9053L64.5832 72.9167L64.2569 72.9041C62.2108 72.7456 60.5791 71.1091 60.428 69.061L60.4166 68.75V64.5834H56.2499L55.939 64.5719C53.783 64.4129 52.0833 62.6133 52.0833 60.4167C52.0833 58.2201 53.783 56.4205 55.939 56.2614L56.2499 56.25H60.4166V52.0834L60.428 51.7724C60.5871 49.6164 62.3867 47.9167 64.5832 47.9167ZM35.4166 47.9167C37.6132 47.9167 39.4128 49.6164 39.5718 51.7724L39.5833 52.0834V56.25H43.7499L44.0609 56.2614C46.2168 56.4205 47.9166 58.2201 47.9166 60.4167C47.9166 62.6133 46.2168 64.4129 44.0609 64.5719L43.7499 64.5834H39.5833V68.75L39.5707 69.0764C39.4121 71.1225 37.7757 72.7542 35.7275 72.9053L35.4166 72.9167L35.0902 72.9041C33.0441 72.7456 31.4125 71.1091 31.2613 69.061L31.2499 68.75V64.5834H27.0833L26.7723 64.5719C24.6163 64.4129 22.9166 62.6133 22.9166 60.4167C22.9166 58.2201 24.6163 56.4205 26.7723 56.2614L27.0833 56.25H31.2499V52.0834L31.2613 51.7724C31.4204 49.6164 33.22 47.9167 35.4166 47.9167Z" fill="url(#paint1_linear_4002_1131)"/>
<defs>
<filter id="filter0_i_4002_1131" x="2.16675" y="8.33331" width="93.6667" height="70.6667" filterUnits="userSpaceOnUse" color-interpolation-filters="sRGB">
<feFlood flood-opacity="0" result="BackgroundImageFix"/>
<feBlend mode="normal" in="SourceGraphic" in2="BackgroundImageFix" result="shape"/>
<feColorMatrix in="SourceAlpha" type="matrix" values="0 0 0 0 0 0 0 0 0 0 0 0 0 0 0 0 0 0 127 0" result="hardAlpha"/>
<feOffset dx="-2" dy="4"/>
<feGaussianBlur stdDeviation="2"/>
<feComposite in2="hardAlpha" operator="arithmetic" k2="-1" k3="1"/>
<feColorMatrix type="matrix" values="0 0 0 0 1 0 0 0 0 1 0 0 0 0 1 0 0 0 1 0"/>
<feBlend mode="normal" in2="shape" result="effect1_innerShadow_4002_1131"/>
</filter>
<linearGradient id="paint0_linear_4002_1131" x1="10.5885" y1="8.33332" x2="96.8486" y2="73.6594" gradientUnits="userSpaceOnUse">
<stop stop-color="white"/>
<stop offset="1" stop-color="#B4E6FB"/>
</linearGradient>
<linearGradient id="paint1_linear_4002_1131" x1="8.33325" y1="47.9167" x2="8.33325" y2="95.8334" gradientUnits="userSpaceOnUse">
<stop stop-color="#4CAFFF"/>
<stop offset="1" stop-color="#8FD5FF"/>
</linearGradient>
</defs>
</svg>
