<svg width="100" height="100" viewBox="0 0 100 100" fill="none" xmlns="http://www.w3.org/2000/svg">
<g filter="url(#filter0_i_4002_1134)">
<path fill-rule="evenodd" clip-rule="evenodd" d="M37.5001 8.33331C19.0906 8.33331 4.16675 23.2572 4.16675 41.6666L4.17377 42.3568C4.51509 59.1107 17.2555 72.9494 33.759 74.7921L34.3084 74.8479L34.501 74.899C34.7956 74.9651 35.1021 75 35.4167 75H72.9168L73.5298 74.9916C85.9626 74.632 95.8334 64.4885 95.8334 52.0833C95.8334 39.4268 85.5733 29.1666 72.9168 29.1666L72.0173 29.184C71.1205 29.2188 70.2315 29.3054 69.354 29.4427L68.573 29.5791L68.357 29.0329C63.3262 16.7354 51.2577 8.33331 37.5001 8.33331Z" fill="url(#paint0_linear_4002_1134)"/>
</g>
<path fill-rule="evenodd" clip-rule="evenodd" d="M35.4166 70.8333C37.6131 70.8333 39.4127 72.5331 39.5718 74.689L39.5832 75V79.1666H43.7499C46.0511 79.1666 47.9166 81.0321 47.9166 83.3333C47.9166 85.5299 46.2168 87.3295 44.0609 87.4886L43.7499 87.5H39.5832V91.6666C39.5832 93.9678 37.7177 95.8333 35.4166 95.8333C33.22 95.8333 31.4204 94.1336 31.2613 91.9776L31.2499 91.6666V87.5H27.0832C24.782 87.5 22.9166 85.6345 22.9166 83.3333C22.9166 81.1367 24.6163 79.3371 26.7723 79.1781L27.0832 79.1666H31.2499V75C31.2499 72.6988 33.1154 70.8333 35.4166 70.8333ZM64.5832 70.8333C66.7798 70.8333 68.5794 72.5331 68.7385 74.689L68.7499 75V79.1666H72.9166C75.2177 79.1666 77.0832 81.0321 77.0832 83.3333C77.0832 85.5299 75.3835 87.3295 73.2275 87.4886L72.9166 87.5H68.7499V91.6666C68.7499 93.9678 66.8844 95.8333 64.5832 95.8333C62.3866 95.8333 60.587 94.1336 60.428 91.9776L60.4166 91.6666V87.5H56.2499C53.9487 87.5 52.0832 85.6345 52.0832 83.3333C52.0832 81.1367 53.783 79.3371 55.9389 79.1781L56.2499 79.1666H60.4166V75C60.4166 72.6988 62.282 70.8333 64.5832 70.8333ZM85.7146 75.5358C86.5692 73.3993 88.9941 72.36 91.1307 73.2147C93.1655 74.0286 94.2051 76.2668 93.5612 78.3238L93.4519 78.6308L89.2852 89.0474C88.4306 91.184 86.0057 92.2233 83.8691 91.3686C81.8342 90.5547 80.7947 88.3165 81.4386 86.2595L81.5479 85.9525L85.7146 75.5358ZM10.7146 75.5358C11.5692 73.3993 13.9941 72.36 16.1307 73.2147C18.1655 74.0286 19.2051 76.2668 18.5612 78.3238L18.4519 78.6308L14.2852 89.0474C13.4306 91.184 11.0057 92.2233 8.86909 91.3686C6.83424 90.5547 5.79473 88.3165 6.43861 86.2595L6.5479 85.9525L10.7146 75.5358Z" fill="url(#paint1_linear_4002_1134)"/>
<defs>
<filter id="filter0_i_4002_1134" x="2.16675" y="8.33331" width="93.6667" height="70.6667" filterUnits="userSpaceOnUse" color-interpolation-filters="sRGB">
<feFlood flood-opacity="0" result="BackgroundImageFix"/>
<feBlend mode="normal" in="SourceGraphic" in2="BackgroundImageFix" result="shape"/>
<feColorMatrix in="SourceAlpha" type="matrix" values="0 0 0 0 0 0 0 0 0 0 0 0 0 0 0 0 0 0 127 0" result="hardAlpha"/>
<feOffset dx="-2" dy="4"/>
<feGaussianBlur stdDeviation="2"/>
<feComposite in2="hardAlpha" operator="arithmetic" k2="-1" k3="1"/>
<feColorMatrix type="matrix" values="0 0 0 0 1 0 0 0 0 1 0 0 0 0 1 0 0 0 1 0"/>
<feBlend mode="normal" in2="shape" result="effect1_innerShadow_4002_1134"/>
</filter>
<linearGradient id="paint0_linear_4002_1134" x1="10.5885" y1="8.33332" x2="96.8486" y2="73.6594" gradientUnits="userSpaceOnUse">
<stop stop-color="white"/>
<stop offset="1" stop-color="#B4E6FB"/>
</linearGradient>
<linearGradient id="paint1_linear_4002_1134" x1="6.24878" y1="70.8333" x2="6.24878" y2="95.8333" gradientUnits="userSpaceOnUse">
<stop stop-color="#4CAFFF"/>
<stop offset="1" stop-color="#8FD5FF"/>
</linearGradient>
</defs>
</svg>
