<svg width="100" height="100" viewBox="0 0 100 100" fill="none" xmlns="http://www.w3.org/2000/svg">
<path fill-rule="evenodd" clip-rule="evenodd" d="M85.4165 75C87.6131 75 89.4127 76.6998 89.5717 78.8557L89.5832 79.1667V81.25H91.6665C93.9677 81.25 95.8332 83.1155 95.8332 85.4167C95.8332 87.6133 94.1334 89.4129 91.9775 89.5719L91.6665 89.5834H89.5832V91.6667C89.5832 93.9679 87.7177 95.8334 85.4165 95.8334C83.2199 95.8334 81.4203 94.1336 81.2613 91.9776L81.2498 91.6667V89.5834H79.1665C76.8653 89.5834 74.9998 87.7179 74.9998 85.4167C74.9998 83.2201 76.6996 81.4205 78.8555 81.2614L79.1665 81.25H81.2498V79.1667C81.2498 76.8655 83.1153 75 85.4165 75ZM64.5832 66.6667C66.7798 66.6667 68.5793 68.3664 68.7384 70.5224L68.7498 70.8334V72.9167H70.8332C73.1344 72.9167 74.9998 74.7822 74.9998 77.0834C74.9998 79.2799 73.3001 81.0795 71.1441 81.2386L70.8332 81.25H68.7498V83.3334C68.7498 85.6345 66.8844 87.5 64.5832 87.5C62.3866 87.5 60.587 85.8003 60.4279 83.6443L60.4165 83.3334V81.25H58.3332C56.032 81.25 54.1665 79.3845 54.1665 77.0834C54.1665 74.8868 55.8663 73.0872 58.0222 72.9281L58.3332 72.9167H60.4165V70.8334C60.4165 68.5322 62.282 66.6667 64.5832 66.6667ZM79.1665 54.1667C81.3631 54.1667 83.1627 55.8664 83.3217 58.0224L83.3332 58.3334V60.4167H85.4165C87.7177 60.4167 89.5832 62.2822 89.5832 64.5834C89.5832 66.7799 87.8834 68.5795 85.7275 68.7386L85.4165 68.75H83.3332V70.8334C83.3332 73.1345 81.4677 75 79.1665 75C76.9699 75 75.1703 73.3003 75.0113 71.1443L74.9998 70.8334V68.75H72.9165C70.6153 68.75 68.7498 66.8845 68.7498 64.5834C68.7498 62.3868 70.4496 60.5872 72.6055 60.4281L72.9165 60.4167H74.9998V58.3334C74.9998 56.0322 76.8653 54.1667 79.1665 54.1667Z" fill="url(#paint0_linear_4002_1201)"/>
<path fill-rule="evenodd" clip-rule="evenodd" d="M16.6667 70.8333C18.8633 70.8333 20.6628 72.5331 20.8219 74.689L20.8333 75V77.0833H22.9167C25.2179 77.0833 27.0833 78.9488 27.0833 81.25C27.0833 83.4466 25.3836 85.2462 23.2276 85.4052L22.9167 85.4166H20.8333V87.5C20.8333 89.8012 18.9679 91.6666 16.6667 91.6666C14.4701 91.6666 12.6705 89.9669 12.5114 87.8109L12.5 87.5V85.4166H10.4167C8.11548 85.4166 6.25 83.5512 6.25 81.25C6.25 79.0534 7.94975 77.2538 10.1057 77.0947L10.4167 77.0833H12.5V75C12.5 72.6988 14.3655 70.8333 16.6667 70.8333ZM33.3333 58.3333C35.5299 58.3333 37.3295 60.0331 37.4886 62.189L37.5 62.5V64.5833H39.5833C41.8845 64.5833 43.75 66.4488 43.75 68.75C43.75 70.9466 42.0503 72.7462 39.8943 72.9052L39.5833 72.9166H37.5V75C37.5 77.3012 35.6345 79.1666 33.3333 79.1666C31.1367 79.1666 29.3372 77.4669 29.1781 75.3109L29.1667 75V72.9166H27.0833C24.7821 72.9166 22.9167 71.0512 22.9167 68.75C22.9167 66.5534 24.6164 64.7538 26.7724 64.5947L27.0833 64.5833H29.1667V62.5C29.1667 60.1988 31.0321 58.3333 33.3333 58.3333Z" fill="url(#paint1_linear_4002_1201)"/>
<g filter="url(#filter0_i_4002_1201)">
<path fill-rule="evenodd" clip-rule="evenodd" d="M50 47.9167C52.3012 47.9167 54.1667 49.7822 54.1667 52.0834V81.25C54.1667 88.1536 48.5702 93.75 41.6667 93.75C39.3655 93.75 37.5 91.8845 37.5 89.5834C37.5 87.2822 39.3655 85.4167 41.6667 85.4167C43.9679 85.4167 45.8333 83.5512 45.8333 81.25V52.0834C45.8333 49.7822 47.6988 47.9167 50 47.9167Z" fill="url(#paint2_linear_4002_1201)"/>
</g>
<path fill-rule="evenodd" clip-rule="evenodd" d="M49.9998 6.25C75.3129 6.25 95.8332 26.7703 95.8332 52.0833C95.8332 54.3845 93.9677 56.25 91.6665 56.25H8.33317C6.03198 56.25 4.1665 54.3845 4.1665 52.0833C4.1665 26.7703 24.6868 6.25 49.9998 6.25Z" fill="url(#paint3_linear_4002_1201)"/>
<path fill-rule="evenodd" clip-rule="evenodd" d="M49.9998 56.25C40.7406 56.25 26.8517 56.25 8.33317 56.25C6.03198 56.25 4.1665 54.3845 4.1665 52.0833C4.1665 26.7703 24.6868 6.25 49.9998 6.25V56.25Z" fill="url(#paint4_linear_4002_1201)"/>
<path fill-rule="evenodd" clip-rule="evenodd" d="M66.6663 56.25C66.6663 28.6358 59.2044 6.25 49.9997 6.25C40.7949 6.25 33.333 28.6358 33.333 56.25H66.6663Z" fill="url(#paint5_linear_4002_1201)"/>
<defs>
<filter id="filter0_i_4002_1201" x="35.5" y="47.9167" width="18.6665" height="49.8333" filterUnits="userSpaceOnUse" color-interpolation-filters="sRGB">
<feFlood flood-opacity="0" result="BackgroundImageFix"/>
<feBlend mode="normal" in="SourceGraphic" in2="BackgroundImageFix" result="shape"/>
<feColorMatrix in="SourceAlpha" type="matrix" values="0 0 0 0 0 0 0 0 0 0 0 0 0 0 0 0 0 0 127 0" result="hardAlpha"/>
<feOffset dx="-2" dy="4"/>
<feGaussianBlur stdDeviation="2"/>
<feComposite in2="hardAlpha" operator="arithmetic" k2="-1" k3="1"/>
<feColorMatrix type="matrix" values="0 0 0 0 1 0 0 0 0 1 0 0 0 0 1 0 0 0 1 0"/>
<feBlend mode="normal" in2="shape" result="effect1_innerShadow_4002_1201"/>
</filter>
<linearGradient id="paint0_linear_4002_1201" x1="54.1665" y1="54.1667" x2="54.1665" y2="95.8334" gradientUnits="userSpaceOnUse">
<stop stop-color="#4CAFFF"/>
<stop offset="1" stop-color="#8FD5FF"/>
</linearGradient>
<linearGradient id="paint1_linear_4002_1201" x1="6.25" y1="58.3333" x2="6.25" y2="91.6666" gradientUnits="userSpaceOnUse">
<stop stop-color="#4CAFFF"/>
<stop offset="1" stop-color="#8FD5FF"/>
</linearGradient>
<linearGradient id="paint2_linear_4002_1201" x1="38.6676" y1="47.9167" x2="62.3945" y2="52.6688" gradientUnits="userSpaceOnUse">
<stop stop-color="white"/>
<stop offset="1" stop-color="#B4E6FB"/>
</linearGradient>
<linearGradient id="paint3_linear_4002_1201" x1="49.9998" y1="6.25" x2="49.9998" y2="56.25" gradientUnits="userSpaceOnUse">
<stop stop-color="#FFAA85"/>
<stop offset="1" stop-color="#FF6161"/>
</linearGradient>
<linearGradient id="paint4_linear_4002_1201" x1="27.0832" y1="6.25" x2="27.0832" y2="56.25" gradientUnits="userSpaceOnUse">
<stop stop-color="#7AC7FF"/>
<stop offset="1" stop-color="#2E69FF"/>
</linearGradient>
<linearGradient id="paint5_linear_4002_1201" x1="49.9997" y1="6.25" x2="49.9997" y2="56.25" gradientUnits="userSpaceOnUse">
<stop stop-color="#FFFB95"/>
<stop offset="1" stop-color="#FFB812"/>
</linearGradient>
</defs>
</svg>
