<svg width="100" height="100" viewBox="0 0 100 100" fill="none" xmlns="http://www.w3.org/2000/svg">
<g filter="url(#filter0_i_4002_1229)">
<path fill-rule="evenodd" clip-rule="evenodd" d="M37.5001 8.33331C19.0906 8.33331 4.16675 23.2572 4.16675 41.6666L4.17377 42.3568C4.51509 59.1107 17.2555 72.9494 33.759 74.7921L34.3084 74.8479L34.501 74.899C34.7956 74.9651 35.1021 75 35.4167 75H72.9168L73.5298 74.9916C85.9626 74.632 95.8334 64.4885 95.8334 52.0833C95.8334 39.4268 85.5733 29.1666 72.9168 29.1666L72.0173 29.184C71.1205 29.2188 70.2315 29.3054 69.354 29.4427L68.573 29.5791L68.357 29.0329C63.3262 16.7354 51.2577 8.33331 37.5001 8.33331Z" fill="url(#paint0_linear_4002_1229)"/>
</g>
<path fill-rule="evenodd" clip-rule="evenodd" d="M70.8334 70.8334C73.1346 70.8334 75.0001 72.6989 75.0001 75C75.0001 77.3012 73.1346 79.1667 70.8334 79.1667H41.6667C39.3656 79.1667 37.5001 77.3012 37.5001 75C37.5001 72.6989 39.3656 70.8334 41.6667 70.8334H70.8334ZM60.4167 83.3334C62.7179 83.3334 64.5834 85.1989 64.5834 87.5C64.5834 89.8012 62.7179 91.6667 60.4167 91.6667H27.0834C24.7822 91.6667 22.9167 89.8012 22.9167 87.5C22.9167 85.1989 24.7822 83.3334 27.0834 83.3334H60.4167Z" fill="url(#paint1_linear_4002_1229)"/>
<defs>
<filter id="filter0_i_4002_1229" x="2.16675" y="8.33331" width="93.6667" height="70.6667" filterUnits="userSpaceOnUse" color-interpolation-filters="sRGB">
<feFlood flood-opacity="0" result="BackgroundImageFix"/>
<feBlend mode="normal" in="SourceGraphic" in2="BackgroundImageFix" result="shape"/>
<feColorMatrix in="SourceAlpha" type="matrix" values="0 0 0 0 0 0 0 0 0 0 0 0 0 0 0 0 0 0 127 0" result="hardAlpha"/>
<feOffset dx="-2" dy="4"/>
<feGaussianBlur stdDeviation="2"/>
<feComposite in2="hardAlpha" operator="arithmetic" k2="-1" k3="1"/>
<feColorMatrix type="matrix" values="0 0 0 0 1 0 0 0 0 1 0 0 0 0 1 0 0 0 1 0"/>
<feBlend mode="normal" in2="shape" result="effect1_innerShadow_4002_1229"/>
</filter>
<linearGradient id="paint0_linear_4002_1229" x1="10.5885" y1="8.33332" x2="96.8486" y2="73.6594" gradientUnits="userSpaceOnUse">
<stop stop-color="white"/>
<stop offset="1" stop-color="#B4E6FB"/>
</linearGradient>
<linearGradient id="paint1_linear_4002_1229" x1="22.9167" y1="70.8334" x2="22.9167" y2="91.6667" gradientUnits="userSpaceOnUse">
<stop stop-color="#4CAFFF"/>
<stop offset="1" stop-color="#8FD5FF"/>
</linearGradient>
</defs>
</svg>
