<svg width="100" height="100" viewBox="0 0 100 100" fill="none" xmlns="http://www.w3.org/2000/svg">
<g filter="url(#filter0_i_4002_1220)">
<path fill-rule="evenodd" clip-rule="evenodd" d="M87.4999 83.3333C89.8011 83.3333 91.6666 85.1988 91.6666 87.5C91.6666 89.8011 89.8011 91.6666 87.4999 91.6666H12.4999C10.1987 91.6666 8.33325 89.8011 8.33325 87.5C8.33325 85.1988 10.1987 83.3333 12.4999 83.3333H87.4999ZM54.1666 66.6666C56.4678 66.6666 58.3333 68.5321 58.3333 70.8333C58.3333 73.1345 56.4678 75 54.1666 75H12.4999C10.1987 75 8.33325 73.1345 8.33325 70.8333C8.33325 68.5321 10.1987 66.6666 12.4999 66.6666H54.1666ZM87.4999 66.6666C89.8011 66.6666 91.6666 68.5321 91.6666 70.8333C91.6666 73.1345 89.8011 75 87.4999 75H70.8332C68.5321 75 66.6666 73.1345 66.6666 70.8333C66.6666 68.5321 68.5321 66.6666 70.8332 66.6666H87.4999Z" fill="url(#paint0_linear_4002_1220)"/>
</g>
<g filter="url(#filter1_i_4002_1220)">
<path fill-rule="evenodd" clip-rule="evenodd" d="M12.4999 18.75C14.8011 18.75 16.6666 16.8845 16.6666 14.5833C16.6666 12.2821 14.8011 10.4166 12.4999 10.4166C10.1987 10.4166 8.33325 12.2821 8.33325 14.5833C8.33325 16.8845 10.1987 18.75 12.4999 18.75ZM12.4999 52.0833C14.8011 52.0833 16.6666 50.2178 16.6666 47.9166C16.6666 45.6155 14.8011 43.75 12.4999 43.75C10.1987 43.75 8.33325 45.6155 8.33325 47.9166C8.33325 50.2178 10.1987 52.0833 12.4999 52.0833ZM87.4999 18.75C89.8011 18.75 91.6666 16.8845 91.6666 14.5833C91.6666 12.2821 89.8011 10.4166 87.4999 10.4166C85.1987 10.4166 83.3333 12.2821 83.3333 14.5833C83.3333 16.8845 85.1987 18.75 87.4999 18.75ZM87.4999 52.0833C89.8011 52.0833 91.6666 50.2178 91.6666 47.9166C91.6666 45.6155 89.8011 43.75 87.4999 43.75C85.1987 43.75 83.3333 45.6155 83.3333 47.9166C83.3333 50.2178 85.1987 52.0833 87.4999 52.0833ZM24.9999 37.5C28.4517 37.5 31.2499 34.7018 31.2499 31.25C31.2499 27.7982 28.4517 25 24.9999 25C21.5481 25 18.7499 27.7982 18.7499 31.25C18.7499 34.7018 21.5481 37.5 24.9999 37.5ZM49.9999 37.5C53.4517 37.5 56.2499 34.7018 56.2499 31.25C56.2499 27.7982 53.4517 25 49.9999 25C46.5481 25 43.7499 27.7982 43.7499 31.25C43.7499 34.7018 46.5481 37.5 49.9999 37.5ZM74.9999 37.5C78.4517 37.5 81.2499 34.7018 81.2499 31.25C81.2499 27.7982 78.4517 25 74.9999 25C71.5481 25 68.7499 27.7982 68.7499 31.25C68.7499 34.7018 71.5481 37.5 74.9999 37.5ZM37.4999 20.8333C40.9517 20.8333 43.7499 18.0351 43.7499 14.5833C43.7499 11.1315 40.9517 8.33331 37.4999 8.33331C34.0481 8.33331 31.2499 11.1315 31.2499 14.5833C31.2499 18.0351 34.0481 20.8333 37.4999 20.8333ZM62.4999 20.8333C65.9517 20.8333 68.7499 18.0351 68.7499 14.5833C68.7499 11.1315 65.9517 8.33331 62.4999 8.33331C59.0481 8.33331 56.2499 11.1315 56.2499 14.5833C56.2499 18.0351 59.0481 20.8333 62.4999 20.8333ZM37.4999 54.1666C40.9517 54.1666 43.7499 51.3684 43.7499 47.9166C43.7499 44.4649 40.9517 41.6666 37.4999 41.6666C34.0481 41.6666 31.2499 44.4649 31.2499 47.9166C31.2499 51.3684 34.0481 54.1666 37.4999 54.1666ZM62.4999 54.1666C65.9517 54.1666 68.7499 51.3684 68.7499 47.9166C68.7499 44.4649 65.9517 41.6666 62.4999 41.6666C59.0481 41.6666 56.2499 44.4649 56.2499 47.9166C56.2499 51.3684 59.0481 54.1666 62.4999 54.1666Z" fill="url(#paint1_linear_4002_1220)"/>
</g>
<defs>
<filter id="filter0_i_4002_1220" x="8.33325" y="66.6666" width="83.3333" height="27" filterUnits="userSpaceOnUse" color-interpolation-filters="sRGB">
<feFlood flood-opacity="0" result="BackgroundImageFix"/>
<feBlend mode="normal" in="SourceGraphic" in2="BackgroundImageFix" result="shape"/>
<feColorMatrix in="SourceAlpha" type="matrix" values="0 0 0 0 0 0 0 0 0 0 0 0 0 0 0 0 0 0 127 0" result="hardAlpha"/>
<feOffset dy="2"/>
<feGaussianBlur stdDeviation="4"/>
<feComposite in2="hardAlpha" operator="arithmetic" k2="-1" k3="1"/>
<feColorMatrix type="matrix" values="0 0 0 0 1 0 0 0 0 1 0 0 0 0 1 0 0 0 1 0"/>
<feBlend mode="overlay" in2="shape" result="effect1_innerShadow_4002_1220"/>
</filter>
<filter id="filter1_i_4002_1220" x="8.33325" y="8.33331" width="83.3333" height="46.8333" filterUnits="userSpaceOnUse" color-interpolation-filters="sRGB">
<feFlood flood-opacity="0" result="BackgroundImageFix"/>
<feBlend mode="normal" in="SourceGraphic" in2="BackgroundImageFix" result="shape"/>
<feColorMatrix in="SourceAlpha" type="matrix" values="0 0 0 0 0 0 0 0 0 0 0 0 0 0 0 0 0 0 127 0" result="hardAlpha"/>
<feOffset dy="1"/>
<feGaussianBlur stdDeviation="1"/>
<feComposite in2="hardAlpha" operator="arithmetic" k2="-1" k3="1"/>
<feColorMatrix type="matrix" values="0 0 0 0 1 0 0 0 0 1 0 0 0 0 1 0 0 0 0.25 0"/>
<feBlend mode="normal" in2="shape" result="effect1_innerShadow_4002_1220"/>
</filter>
<linearGradient id="paint0_linear_4002_1220" x1="49.9999" y1="66.6666" x2="49.9999" y2="91.6666" gradientUnits="userSpaceOnUse">
<stop stop-color="#FFD358"/>
<stop offset="1" stop-color="#FA6C21"/>
</linearGradient>
<linearGradient id="paint1_linear_4002_1220" x1="49.9999" y1="8.33331" x2="49.9999" y2="54.1666" gradientUnits="userSpaceOnUse">
<stop stop-color="#FFDA96"/>
<stop offset="1" stop-color="#FFC76E"/>
</linearGradient>
</defs>
</svg>
