<svg width="100" height="100" viewBox="0 0 100 100" fill="none" xmlns="http://www.w3.org/2000/svg">
<g filter="url(#filter0_i_4002_1223)">
<path fill-rule="evenodd" clip-rule="evenodd" d="M72.9166 77.0833C75.2178 77.0833 77.0833 75.2178 77.0833 72.9167C77.0833 70.6155 75.2178 68.75 72.9166 68.75C70.6154 68.75 68.7499 70.6155 68.7499 72.9167C68.7499 75.2178 70.6154 77.0833 72.9166 77.0833ZM56.2499 66.6667C58.5511 66.6667 60.4166 64.8012 60.4166 62.5C60.4166 60.1988 58.5511 58.3333 56.2499 58.3333C53.9487 58.3333 52.0833 60.1988 52.0833 62.5C52.0833 64.8012 53.9487 66.6667 56.2499 66.6667ZM89.5833 87.5C91.8844 87.5 93.7499 85.6345 93.7499 83.3333C93.7499 81.0321 91.8844 79.1667 89.5833 79.1667C87.2821 79.1667 85.4166 81.0321 85.4166 83.3333C85.4166 85.6345 87.2821 87.5 89.5833 87.5ZM89.5833 20.8333C91.8844 20.8333 93.7499 18.9679 93.7499 16.6667C93.7499 14.3655 91.8844 12.5 89.5833 12.5C87.2821 12.5 85.4166 14.3655 85.4166 16.6667C85.4166 18.9679 87.2821 20.8333 89.5833 20.8333ZM72.9166 31.25C75.2178 31.25 77.0833 29.3845 77.0833 27.0833C77.0833 24.7821 75.2178 22.9167 72.9166 22.9167C70.6154 22.9167 68.7499 24.7821 68.7499 27.0833C68.7499 29.3845 70.6154 31.25 72.9166 31.25ZM72.9166 56.25C76.3684 56.25 79.1666 53.4518 79.1666 50C79.1666 46.5482 76.3684 43.75 72.9166 43.75C69.4648 43.75 66.6666 46.5482 66.6666 50C66.6666 53.4518 69.4648 56.25 72.9166 56.25ZM89.5833 68.75C93.035 68.75 95.8333 65.9518 95.8333 62.5C95.8333 59.0482 93.035 56.25 89.5833 56.25C86.1315 56.25 83.3333 59.0482 83.3333 62.5C83.3333 65.9518 86.1315 68.75 89.5833 68.75ZM89.5833 43.75C93.035 43.75 95.8333 40.9518 95.8333 37.5C95.8333 34.0482 93.035 31.25 89.5833 31.25C86.1315 31.25 83.3333 34.0482 83.3333 37.5C83.3333 40.9518 86.1315 43.75 89.5833 43.75Z" fill="url(#paint0_linear_4002_1223)"/>
</g>
<g filter="url(#filter1_i_4002_1223)">
<path fill-rule="evenodd" clip-rule="evenodd" d="M45.8334 12.5C55.0382 12.5 62.5001 19.9619 62.5001 29.1667C62.5001 38.3714 55.0382 45.8333 45.8334 45.8333H8.33341C6.03223 45.8333 4.16675 43.9679 4.16675 41.6667C4.16675 39.3655 6.03223 37.5 8.33341 37.5H45.8334C50.4358 37.5 54.1667 33.7691 54.1667 29.1667C54.1667 24.5643 50.4358 20.8333 45.8334 20.8333C43.0063 20.8333 40.4256 22.2474 38.8872 24.5605C37.6128 26.4766 35.0264 26.9968 33.1103 25.7224C31.1942 24.448 30.674 21.8616 31.9484 19.9455C35.0158 15.3337 40.1871 12.5 45.8334 12.5ZM33.3334 87.5C42.5382 87.5 50.0001 80.0381 50.0001 70.8333C50.0001 61.6286 42.5382 54.1667 33.3334 54.1667H8.33341C6.03223 54.1667 4.16675 56.0321 4.16675 58.3333C4.16675 60.6345 6.03223 62.5 8.33341 62.5H33.3334C37.9358 62.5 41.6667 66.2309 41.6667 70.8333C41.6667 75.4357 37.9358 79.1667 33.3334 79.1667C30.5063 79.1667 27.9256 77.7526 26.3872 75.4395C25.1128 73.5234 22.5264 73.0032 20.6103 74.2776C18.6942 75.552 18.174 78.1384 19.4484 80.0545C22.5158 84.6663 27.6871 87.5 33.3334 87.5Z" fill="url(#paint1_linear_4002_1223)"/>
</g>
<defs>
<filter id="filter0_i_4002_1223" x="52.0833" y="12.5" width="43.75" height="76" filterUnits="userSpaceOnUse" color-interpolation-filters="sRGB">
<feFlood flood-opacity="0" result="BackgroundImageFix"/>
<feBlend mode="normal" in="SourceGraphic" in2="BackgroundImageFix" result="shape"/>
<feColorMatrix in="SourceAlpha" type="matrix" values="0 0 0 0 0 0 0 0 0 0 0 0 0 0 0 0 0 0 127 0" result="hardAlpha"/>
<feOffset dy="1"/>
<feGaussianBlur stdDeviation="1"/>
<feComposite in2="hardAlpha" operator="arithmetic" k2="-1" k3="1"/>
<feColorMatrix type="matrix" values="0 0 0 0 1 0 0 0 0 1 0 0 0 0 1 0 0 0 0.25 0"/>
<feBlend mode="normal" in2="shape" result="effect1_innerShadow_4002_1223"/>
</filter>
<filter id="filter1_i_4002_1223" x="4.16675" y="12.5" width="58.3333" height="77" filterUnits="userSpaceOnUse" color-interpolation-filters="sRGB">
<feFlood flood-opacity="0" result="BackgroundImageFix"/>
<feBlend mode="normal" in="SourceGraphic" in2="BackgroundImageFix" result="shape"/>
<feColorMatrix in="SourceAlpha" type="matrix" values="0 0 0 0 0 0 0 0 0 0 0 0 0 0 0 0 0 0 127 0" result="hardAlpha"/>
<feOffset dy="2"/>
<feGaussianBlur stdDeviation="4"/>
<feComposite in2="hardAlpha" operator="arithmetic" k2="-1" k3="1"/>
<feColorMatrix type="matrix" values="0 0 0 0 1 0 0 0 0 1 0 0 0 0 1 0 0 0 1 0"/>
<feBlend mode="overlay" in2="shape" result="effect1_innerShadow_4002_1223"/>
</filter>
<linearGradient id="paint0_linear_4002_1223" x1="73.9583" y1="12.5" x2="73.9583" y2="87.5" gradientUnits="userSpaceOnUse">
<stop stop-color="#FFDA96"/>
<stop offset="1" stop-color="#FFC76E"/>
</linearGradient>
<linearGradient id="paint1_linear_4002_1223" x1="33.3334" y1="12.5" x2="33.3334" y2="87.5" gradientUnits="userSpaceOnUse">
<stop stop-color="#FFD358"/>
<stop offset="1" stop-color="#FA6C21"/>
</linearGradient>
</defs>
</svg>
