<svg width="100" height="100" viewBox="0 0 100 100" fill="none" xmlns="http://www.w3.org/2000/svg">
<g filter="url(#filter0_i_4002_1226)">
<path fill-rule="evenodd" clip-rule="evenodd" d="M12.4999 22.9167C14.8011 22.9167 16.6666 21.0512 16.6666 18.75C16.6666 16.4488 14.8011 14.5833 12.4999 14.5833C10.1987 14.5833 8.33325 16.4488 8.33325 18.75C8.33325 21.0512 10.1987 22.9167 12.4999 22.9167ZM87.4999 22.9167C89.8011 22.9167 91.6666 21.0512 91.6666 18.75C91.6666 16.4488 89.8011 14.5833 87.4999 14.5833C85.1987 14.5833 83.3333 16.4488 83.3333 18.75C83.3333 21.0512 85.1987 22.9167 87.4999 22.9167ZM12.4999 83.3333C14.8011 83.3333 16.6666 81.4679 16.6666 79.1667C16.6666 76.8655 14.8011 75 12.4999 75C10.1987 75 8.33325 76.8655 8.33325 79.1667C8.33325 81.4679 10.1987 83.3333 12.4999 83.3333ZM49.9999 83.3333C52.3011 83.3333 54.1666 81.4679 54.1666 79.1667C54.1666 76.8655 52.3011 75 49.9999 75C47.6987 75 45.8333 76.8655 45.8333 79.1667C45.8333 81.4679 47.6987 83.3333 49.9999 83.3333ZM12.4999 54.1667C14.8011 54.1667 16.6666 52.3012 16.6666 50C16.6666 47.6988 14.8011 45.8333 12.4999 45.8333C10.1987 45.8333 8.33325 47.6988 8.33325 50C8.33325 52.3012 10.1987 54.1667 12.4999 54.1667ZM31.2499 85.4167C34.7017 85.4167 37.4999 82.6185 37.4999 79.1667C37.4999 75.7149 34.7017 72.9167 31.2499 72.9167C27.7981 72.9167 24.9999 75.7149 24.9999 79.1667C24.9999 82.6185 27.7981 85.4167 31.2499 85.4167ZM31.2499 25C34.7017 25 37.4999 22.2018 37.4999 18.75C37.4999 15.2982 34.7017 12.5 31.2499 12.5C27.7981 12.5 24.9999 15.2982 24.9999 18.75C24.9999 22.2018 27.7981 25 31.2499 25Z" fill="url(#paint0_linear_4002_1226)"/>
</g>
<g filter="url(#filter1_i_4002_1226)">
<path fill-rule="evenodd" clip-rule="evenodd" d="M88.8849 28.2788C90.6882 30.9901 91.6666 34.1776 91.6666 37.5C91.6666 46.7048 84.2047 54.1666 74.9999 54.1666H24.9999C22.6987 54.1666 20.8333 52.3012 20.8333 50C20.8333 47.6988 22.6987 45.8333 24.9999 45.8333H74.9999C79.6023 45.8333 83.3333 42.1024 83.3333 37.5C83.3333 35.8325 82.8469 34.2481 81.9462 32.8938C80.6718 30.9777 81.1919 28.3913 83.108 27.1169C85.0241 25.8425 87.6105 26.3627 88.8849 28.2788ZM60.4166 8.33331C69.6214 8.33331 77.0833 15.7952 77.0833 25C77.0833 34.2048 69.6214 41.6666 60.4166 41.6666H12.4999C10.1987 41.6666 8.33325 39.8012 8.33325 37.5C8.33325 35.1988 10.1987 33.3333 12.4999 33.3333H60.4166C65.019 33.3333 68.7499 29.6024 68.7499 25C68.7499 20.3976 65.019 16.6666 60.4166 16.6666C57.5894 16.6666 55.0088 18.0807 53.4703 20.3938C52.1959 22.3099 49.6096 22.8301 47.6935 21.5557C45.7774 20.2813 45.2572 17.6949 46.5316 15.7788C49.599 11.167 54.7702 8.33331 60.4166 8.33331ZM74.9999 91.6666C84.2047 91.6666 91.6666 84.2047 91.6666 75C91.6666 65.7952 84.2047 58.3333 74.9999 58.3333H12.4999C10.1987 58.3333 8.33325 60.1988 8.33325 62.5C8.33325 64.8012 10.1987 66.6666 12.4999 66.6666H74.9999C79.6023 66.6666 83.3333 70.3976 83.3333 75C83.3333 79.6024 79.6023 83.3333 74.9999 83.3333C72.1728 83.3333 69.5921 81.9192 68.0537 79.6061C66.7793 77.6901 64.1929 77.1699 62.2768 78.4443C60.3607 79.7187 59.8405 82.3051 61.1149 84.2211C64.1823 88.833 69.3536 91.6666 74.9999 91.6666Z" fill="url(#paint1_linear_4002_1226)"/>
</g>
<defs>
<filter id="filter0_i_4002_1226" x="8.33325" y="12.5" width="83.3333" height="73.9166" filterUnits="userSpaceOnUse" color-interpolation-filters="sRGB">
<feFlood flood-opacity="0" result="BackgroundImageFix"/>
<feBlend mode="normal" in="SourceGraphic" in2="BackgroundImageFix" result="shape"/>
<feColorMatrix in="SourceAlpha" type="matrix" values="0 0 0 0 0 0 0 0 0 0 0 0 0 0 0 0 0 0 127 0" result="hardAlpha"/>
<feOffset dy="1"/>
<feGaussianBlur stdDeviation="1"/>
<feComposite in2="hardAlpha" operator="arithmetic" k2="-1" k3="1"/>
<feColorMatrix type="matrix" values="0 0 0 0 1 0 0 0 0 1 0 0 0 0 1 0 0 0 0.25 0"/>
<feBlend mode="normal" in2="shape" result="effect1_innerShadow_4002_1226"/>
</filter>
<filter id="filter1_i_4002_1226" x="8.33325" y="8.33331" width="83.3333" height="85.3333" filterUnits="userSpaceOnUse" color-interpolation-filters="sRGB">
<feFlood flood-opacity="0" result="BackgroundImageFix"/>
<feBlend mode="normal" in="SourceGraphic" in2="BackgroundImageFix" result="shape"/>
<feColorMatrix in="SourceAlpha" type="matrix" values="0 0 0 0 0 0 0 0 0 0 0 0 0 0 0 0 0 0 127 0" result="hardAlpha"/>
<feOffset dy="2"/>
<feGaussianBlur stdDeviation="4"/>
<feComposite in2="hardAlpha" operator="arithmetic" k2="-1" k3="1"/>
<feColorMatrix type="matrix" values="0 0 0 0 1 0 0 0 0 1 0 0 0 0 1 0 0 0 1 0"/>
<feBlend mode="overlay" in2="shape" result="effect1_innerShadow_4002_1226"/>
</filter>
<linearGradient id="paint0_linear_4002_1226" x1="49.9999" y1="12.5" x2="49.9999" y2="85.4167" gradientUnits="userSpaceOnUse">
<stop stop-color="#FFDA96"/>
<stop offset="1" stop-color="#FFC76E"/>
</linearGradient>
<linearGradient id="paint1_linear_4002_1226" x1="49.9999" y1="8.33331" x2="49.9999" y2="91.6666" gradientUnits="userSpaceOnUse">
<stop stop-color="#FFD358"/>
<stop offset="1" stop-color="#FA6C21"/>
</linearGradient>
</defs>
</svg>
