<svg width="100" height="100" viewBox="0 0 100 100" fill="none" xmlns="http://www.w3.org/2000/svg">
<g filter="url(#filter0_i_4002_1238)">
<path fill-rule="evenodd" clip-rule="evenodd" d="M37.5001 8.33331C19.0906 8.33331 4.16675 23.2572 4.16675 41.6666L4.17377 42.3568C4.51509 59.1107 17.2555 72.9494 33.759 74.7921L34.3084 74.8479L34.501 74.899C34.7956 74.9651 35.1021 75 35.4167 75H72.9168L73.5298 74.9916C85.9626 74.632 95.8334 64.4885 95.8334 52.0833C95.8334 39.4268 85.5733 29.1666 72.9168 29.1666L72.0173 29.184C71.1205 29.2188 70.2315 29.3054 69.354 29.4427L68.573 29.5791L68.357 29.0329C63.3262 16.7354 51.2577 8.33331 37.5001 8.33331Z" fill="url(#paint0_linear_4002_1238)"/>
</g>
<path fill-rule="evenodd" clip-rule="evenodd" d="M81.2499 70.8334C83.5511 70.8334 85.4166 72.6989 85.4166 75C85.4166 77.3012 83.5511 79.1667 81.2499 79.1667H52.0833C49.7821 79.1667 47.9166 77.3012 47.9166 75C47.9166 72.6989 49.7821 70.8334 52.0833 70.8334H81.2499ZM39.5833 70.8334C41.8844 70.8334 43.7499 72.6989 43.7499 75C43.7499 77.3012 41.8844 79.1667 39.5833 79.1667H35.4166C33.1154 79.1667 31.2499 77.3012 31.2499 75C31.2499 72.6989 33.1154 70.8334 35.4166 70.8334H39.5833ZM56.2499 83.3334C58.5511 83.3334 60.4166 85.1989 60.4166 87.5C60.4166 89.8012 58.5511 91.6667 56.2499 91.6667H18.7499C16.4487 91.6667 14.5833 89.8012 14.5833 87.5C14.5833 85.1989 16.4487 83.3334 18.7499 83.3334H56.2499ZM77.0832 83.3334C79.3844 83.3334 81.2499 85.1989 81.2499 87.5C81.2499 89.8012 79.3844 91.6667 77.0832 91.6667H68.7499C66.4487 91.6667 64.5833 89.8012 64.5833 87.5C64.5833 85.1989 66.4487 83.3334 68.7499 83.3334H77.0832ZM66.6666 58.3334C68.9678 58.3334 70.8332 60.1989 70.8332 62.5C70.8332 64.8012 68.9678 66.6667 66.6666 66.6667H33.3333C31.0321 66.6667 29.1666 64.8012 29.1666 62.5C29.1666 60.1989 31.0321 58.3334 33.3333 58.3334H66.6666Z" fill="url(#paint1_linear_4002_1238)"/>
<defs>
<filter id="filter0_i_4002_1238" x="2.16675" y="8.33331" width="93.6667" height="70.6667" filterUnits="userSpaceOnUse" color-interpolation-filters="sRGB">
<feFlood flood-opacity="0" result="BackgroundImageFix"/>
<feBlend mode="normal" in="SourceGraphic" in2="BackgroundImageFix" result="shape"/>
<feColorMatrix in="SourceAlpha" type="matrix" values="0 0 0 0 0 0 0 0 0 0 0 0 0 0 0 0 0 0 127 0" result="hardAlpha"/>
<feOffset dx="-2" dy="4"/>
<feGaussianBlur stdDeviation="2"/>
<feComposite in2="hardAlpha" operator="arithmetic" k2="-1" k3="1"/>
<feColorMatrix type="matrix" values="0 0 0 0 1 0 0 0 0 1 0 0 0 0 1 0 0 0 1 0"/>
<feBlend mode="normal" in2="shape" result="effect1_innerShadow_4002_1238"/>
</filter>
<linearGradient id="paint0_linear_4002_1238" x1="10.5885" y1="8.33332" x2="96.8486" y2="73.6594" gradientUnits="userSpaceOnUse">
<stop stop-color="white"/>
<stop offset="1" stop-color="#B4E6FB"/>
</linearGradient>
<linearGradient id="paint1_linear_4002_1238" x1="14.5833" y1="58.3334" x2="14.5833" y2="91.6667" gradientUnits="userSpaceOnUse">
<stop stop-color="#4CAFFF"/>
<stop offset="1" stop-color="#8FD5FF"/>
</linearGradient>
</defs>
</svg>
