<svg width="100" height="100" viewBox="0 0 100 100" fill="none" xmlns="http://www.w3.org/2000/svg">
<g filter="url(#filter0_i_4002_1241)">
<path fill-rule="evenodd" clip-rule="evenodd" d="M37.4998 8.33331C19.0903 8.33331 4.1665 23.2572 4.1665 41.6666L4.17353 42.3568C4.51485 59.1107 17.2552 72.9494 33.7587 74.7921L34.3082 74.8479L34.5007 74.899C34.7954 74.9651 35.1019 75 35.4165 75H72.9165L73.5296 74.9916C85.9624 74.632 95.8332 64.4885 95.8332 52.0833C95.8332 39.4268 85.573 29.1666 72.9165 29.1666L72.0171 29.184C71.1202 29.2188 70.2313 29.3054 69.3538 29.4427L68.5728 29.5791L68.3568 29.0329C63.326 16.7354 51.2575 8.33331 37.4998 8.33331Z" fill="url(#paint0_linear_4002_1241)"/>
</g>
<path fill-rule="evenodd" clip-rule="evenodd" d="M81.2502 70.8334C83.5513 70.8334 85.4168 72.6989 85.4168 75C85.4168 77.3012 83.5513 79.1667 81.2502 79.1667H52.0835C49.7823 79.1667 47.9168 77.3012 47.9168 75C47.9168 72.6989 49.7823 70.8334 52.0835 70.8334H81.2502ZM39.5835 70.8334C41.8847 70.8334 43.7502 72.6989 43.7502 75C43.7502 77.3012 41.8847 79.1667 39.5835 79.1667H27.0835C24.7823 79.1667 22.9168 77.3012 22.9168 75C22.9168 72.6989 24.7823 70.8334 27.0835 70.8334H39.5835ZM75.0002 58.3334C77.3013 58.3334 79.1668 60.1989 79.1668 62.5C79.1668 64.8012 77.3013 66.6667 75.0002 66.6667H70.8335C68.5323 66.6667 66.6668 64.8012 66.6668 62.5C66.6668 60.1989 68.5323 58.3334 70.8335 58.3334H75.0002ZM56.2502 83.3334C58.5513 83.3334 60.4168 85.1989 60.4168 87.5C60.4168 89.8012 58.5513 91.6667 56.2502 91.6667H18.7502C16.449 91.6667 14.5835 89.8012 14.5835 87.5C14.5835 85.1989 16.449 83.3334 18.7502 83.3334H56.2502ZM77.0835 83.3334C79.3847 83.3334 81.2502 85.1989 81.2502 87.5C81.2502 89.8012 79.3847 91.6667 77.0835 91.6667H68.7502C66.449 91.6667 64.5835 89.8012 64.5835 87.5C64.5835 85.1989 66.449 83.3334 68.7502 83.3334H77.0835ZM58.3335 58.3334C60.6347 58.3334 62.5002 60.1989 62.5002 62.5C62.5002 64.8012 60.6347 66.6667 58.3335 66.6667H33.3335C31.0323 66.6667 29.1668 64.8012 29.1668 62.5C29.1668 60.1989 31.0323 58.3334 33.3335 58.3334H58.3335Z" fill="url(#paint1_linear_4002_1241)"/>
<defs>
<filter id="filter0_i_4002_1241" x="2.1665" y="8.33331" width="93.6665" height="70.6667" filterUnits="userSpaceOnUse" color-interpolation-filters="sRGB">
<feFlood flood-opacity="0" result="BackgroundImageFix"/>
<feBlend mode="normal" in="SourceGraphic" in2="BackgroundImageFix" result="shape"/>
<feColorMatrix in="SourceAlpha" type="matrix" values="0 0 0 0 0 0 0 0 0 0 0 0 0 0 0 0 0 0 127 0" result="hardAlpha"/>
<feOffset dx="-2" dy="4"/>
<feGaussianBlur stdDeviation="2"/>
<feComposite in2="hardAlpha" operator="arithmetic" k2="-1" k3="1"/>
<feColorMatrix type="matrix" values="0 0 0 0 1 0 0 0 0 1 0 0 0 0 1 0 0 0 1 0"/>
<feBlend mode="normal" in2="shape" result="effect1_innerShadow_4002_1241"/>
</filter>
<linearGradient id="paint0_linear_4002_1241" x1="10.5883" y1="8.33332" x2="96.8484" y2="73.6594" gradientUnits="userSpaceOnUse">
<stop stop-color="white"/>
<stop offset="1" stop-color="#B4E6FB"/>
</linearGradient>
<linearGradient id="paint1_linear_4002_1241" x1="14.5835" y1="58.3334" x2="14.5835" y2="91.6667" gradientUnits="userSpaceOnUse">
<stop stop-color="#4CAFFF"/>
<stop offset="1" stop-color="#8FD5FF"/>
</linearGradient>
</defs>
</svg>
