<svg width="100" height="100" viewBox="0 0 100 100" fill="none" xmlns="http://www.w3.org/2000/svg">
<g filter="url(#filter0_i_4002_1251)">
<path fill-rule="evenodd" clip-rule="evenodd" d="M74.9998 27.0833C87.4272 27.0833 95.8332 37.0136 95.8332 50C95.8332 62.9864 87.4272 72.9166 74.9998 72.9166C66.1363 72.9166 57.132 66.1194 49.9982 57.0875C42.8677 66.1194 33.8633 72.9166 24.9998 72.9166C12.5725 72.9166 4.1665 62.9864 4.1665 50C4.1665 37.0136 12.5725 27.0833 24.9998 27.0833C33.8633 27.0833 42.8677 33.8805 50.0015 42.9125C57.132 33.8805 66.1363 27.0833 74.9998 27.0833ZM27.0832 20.8333C30.535 20.8333 33.3332 18.0351 33.3332 14.5833C33.3332 11.1315 30.535 8.33331 27.0832 8.33331C23.6314 8.33331 20.8332 11.1315 20.8332 14.5833C20.8332 18.0351 23.6314 20.8333 27.0832 20.8333ZM49.9998 20.8333C53.4516 20.8333 56.2498 18.0351 56.2498 14.5833C56.2498 11.1315 53.4516 8.33331 49.9998 8.33331C46.5481 8.33331 43.7498 11.1315 43.7498 14.5833C43.7498 18.0351 46.5481 20.8333 49.9998 20.8333ZM27.0832 91.6666C30.535 91.6666 33.3332 88.8684 33.3332 85.4166C33.3332 81.9649 30.535 79.1666 27.0832 79.1666C23.6314 79.1666 20.8332 81.9649 20.8332 85.4166C20.8332 88.8684 23.6314 91.6666 27.0832 91.6666ZM49.9998 91.6666C53.4516 91.6666 56.2498 88.8684 56.2498 85.4166C56.2498 81.9649 53.4516 79.1666 49.9998 79.1666C46.5481 79.1666 43.7498 81.9649 43.7498 85.4166C43.7498 88.8684 46.5481 91.6666 49.9998 91.6666ZM72.9165 20.8333C76.3683 20.8333 79.1665 18.0351 79.1665 14.5833C79.1665 11.1315 76.3683 8.33331 72.9165 8.33331C69.4647 8.33331 66.6665 11.1315 66.6665 14.5833C66.6665 18.0351 69.4647 20.8333 72.9165 20.8333ZM72.9165 91.6666C76.3683 91.6666 79.1665 88.8684 79.1665 85.4166C79.1665 81.9649 76.3683 79.1666 72.9165 79.1666C69.4647 79.1666 66.6665 81.9649 66.6665 85.4166C66.6665 88.8684 69.4647 91.6666 72.9165 91.6666Z" fill="url(#paint0_linear_4002_1251)"/>
</g>
<defs>
<filter id="filter0_i_4002_1251" x="4.1665" y="8.33331" width="91.6665" height="85.3333" filterUnits="userSpaceOnUse" color-interpolation-filters="sRGB">
<feFlood flood-opacity="0" result="BackgroundImageFix"/>
<feBlend mode="normal" in="SourceGraphic" in2="BackgroundImageFix" result="shape"/>
<feColorMatrix in="SourceAlpha" type="matrix" values="0 0 0 0 0 0 0 0 0 0 0 0 0 0 0 0 0 0 127 0" result="hardAlpha"/>
<feOffset dy="2"/>
<feGaussianBlur stdDeviation="4"/>
<feComposite in2="hardAlpha" operator="arithmetic" k2="-1" k3="1"/>
<feColorMatrix type="matrix" values="0 0 0 0 0.831313 0 0 0 0 0.98288 0 0 0 0 0.98288 0 0 0 1 0"/>
<feBlend mode="normal" in2="shape" result="effect1_innerShadow_4002_1251"/>
</filter>
<linearGradient id="paint0_linear_4002_1251" x1="4.1665" y1="8.33331" x2="4.1665" y2="91.6666" gradientUnits="userSpaceOnUse">
<stop stop-color="#8FD5FF"/>
<stop offset="1" stop-color="#4CAFFF"/>
</linearGradient>
</defs>
</svg>
