<svg width="100" height="100" viewBox="0 0 100 100" fill="none" xmlns="http://www.w3.org/2000/svg">
<g filter="url(#filter0_i_4002_1253)">
<path fill-rule="evenodd" clip-rule="evenodd" d="M74.9998 27.0833C87.4272 27.0833 95.8332 37.0136 95.8332 50C95.8332 62.9864 87.4272 72.9166 74.9998 72.9166C66.1363 72.9166 57.132 66.1194 49.9982 57.0875C42.8677 66.1194 33.8633 72.9166 24.9998 72.9166C12.5725 72.9166 4.1665 62.9864 4.1665 50C4.1665 37.0136 12.5725 27.0833 24.9998 27.0833C33.8633 27.0833 42.8677 33.8805 50.0015 42.9125C57.132 33.8805 66.1363 27.0833 74.9998 27.0833ZM29.1665 20.8333C32.6183 20.8333 35.4165 18.0351 35.4165 14.5833C35.4165 11.1315 32.6183 8.33331 29.1665 8.33331C25.7147 8.33331 22.9165 11.1315 22.9165 14.5833C22.9165 18.0351 25.7147 20.8333 29.1665 20.8333ZM29.1665 91.6666C32.6183 91.6666 35.4165 88.8684 35.4165 85.4166C35.4165 81.9649 32.6183 79.1666 29.1665 79.1666C25.7147 79.1666 22.9165 81.9649 22.9165 85.4166C22.9165 88.8684 25.7147 91.6666 29.1665 91.6666ZM10.4165 20.8333C13.8683 20.8333 16.6665 18.0351 16.6665 14.5833C16.6665 11.1315 13.8683 8.33331 10.4165 8.33331C6.96472 8.33331 4.1665 11.1315 4.1665 14.5833C4.1665 18.0351 6.96472 20.8333 10.4165 20.8333ZM10.4165 91.6666C13.8683 91.6666 16.6665 88.8684 16.6665 85.4166C16.6665 81.9649 13.8683 79.1666 10.4165 79.1666C6.96472 79.1666 4.1665 81.9649 4.1665 85.4166C4.1665 88.8684 6.96472 91.6666 10.4165 91.6666ZM49.9998 20.8333C53.4516 20.8333 56.2498 18.0351 56.2498 14.5833C56.2498 11.1315 53.4516 8.33331 49.9998 8.33331C46.5481 8.33331 43.7498 11.1315 43.7498 14.5833C43.7498 18.0351 46.5481 20.8333 49.9998 20.8333ZM49.9998 91.6666C53.4516 91.6666 56.2498 88.8684 56.2498 85.4166C56.2498 81.9649 53.4516 79.1666 49.9998 79.1666C46.5481 79.1666 43.7498 81.9649 43.7498 85.4166C43.7498 88.8684 46.5481 91.6666 49.9998 91.6666ZM70.8332 20.8333C74.285 20.8333 77.0832 18.0351 77.0832 14.5833C77.0832 11.1315 74.285 8.33331 70.8332 8.33331C67.3814 8.33331 64.5832 11.1315 64.5832 14.5833C64.5832 18.0351 67.3814 20.8333 70.8332 20.8333ZM70.8332 91.6666C74.285 91.6666 77.0832 88.8684 77.0832 85.4166C77.0832 81.9649 74.285 79.1666 70.8332 79.1666C67.3814 79.1666 64.5832 81.9649 64.5832 85.4166C64.5832 88.8684 67.3814 91.6666 70.8332 91.6666ZM89.5832 20.8333C93.035 20.8333 95.8332 18.0351 95.8332 14.5833C95.8332 11.1315 93.035 8.33331 89.5832 8.33331C86.1314 8.33331 83.3332 11.1315 83.3332 14.5833C83.3332 18.0351 86.1314 20.8333 89.5832 20.8333ZM89.5832 91.6666C93.035 91.6666 95.8332 88.8684 95.8332 85.4166C95.8332 81.9649 93.035 79.1666 89.5832 79.1666C86.1314 79.1666 83.3332 81.9649 83.3332 85.4166C83.3332 88.8684 86.1314 91.6666 89.5832 91.6666Z" fill="url(#paint0_linear_4002_1253)"/>
</g>
<defs>
<filter id="filter0_i_4002_1253" x="4.1665" y="8.33331" width="91.6665" height="85.3333" filterUnits="userSpaceOnUse" color-interpolation-filters="sRGB">
<feFlood flood-opacity="0" result="BackgroundImageFix"/>
<feBlend mode="normal" in="SourceGraphic" in2="BackgroundImageFix" result="shape"/>
<feColorMatrix in="SourceAlpha" type="matrix" values="0 0 0 0 0 0 0 0 0 0 0 0 0 0 0 0 0 0 127 0" result="hardAlpha"/>
<feOffset dy="2"/>
<feGaussianBlur stdDeviation="4"/>
<feComposite in2="hardAlpha" operator="arithmetic" k2="-1" k3="1"/>
<feColorMatrix type="matrix" values="0 0 0 0 0.831313 0 0 0 0 0.98288 0 0 0 0 0.98288 0 0 0 1 0"/>
<feBlend mode="normal" in2="shape" result="effect1_innerShadow_4002_1253"/>
</filter>
<linearGradient id="paint0_linear_4002_1253" x1="4.1665" y1="8.33331" x2="4.1665" y2="91.6666" gradientUnits="userSpaceOnUse">
<stop stop-color="#8FD5FF"/>
<stop offset="1" stop-color="#4CAFFF"/>
</linearGradient>
</defs>
</svg>
