<svg width="100" height="100" viewBox="0 0 100 100" fill="none" xmlns="http://www.w3.org/2000/svg">
<g filter="url(#filter0_i_4002_1244)">
<path fill-rule="evenodd" clip-rule="evenodd" d="M37.4998 8.33331C19.0903 8.33331 4.1665 23.2572 4.1665 41.6666L4.17353 42.3568C4.51485 59.1107 17.2552 72.9494 33.7587 74.7921L34.3082 74.8479L34.5007 74.899C34.7954 74.9651 35.1019 75 35.4165 75H72.9165L73.5296 74.9916C85.9624 74.632 95.8332 64.4885 95.8332 52.0833C95.8332 39.4268 85.573 29.1666 72.9165 29.1666L72.0171 29.184C71.1202 29.2188 70.2313 29.3054 69.3538 29.4427L68.5728 29.5791L68.3568 29.0329C63.326 16.7354 51.2575 8.33331 37.4998 8.33331Z" fill="url(#paint0_linear_4002_1244)"/>
</g>
<path fill-rule="evenodd" clip-rule="evenodd" d="M81.25 70.8334C83.5512 70.8334 85.4167 72.6989 85.4167 75C85.4167 77.3012 83.5512 79.1667 81.25 79.1667H52.0833C49.7821 79.1667 47.9167 77.3012 47.9167 75C47.9167 72.6989 49.7821 70.8334 52.0833 70.8334H81.25ZM39.5833 70.8334C41.8845 70.8334 43.75 72.6989 43.75 75C43.75 77.3012 41.8845 79.1667 39.5833 79.1667H10.4167C8.11548 79.1667 6.25 77.3012 6.25 75C6.25 72.6989 8.11548 70.8334 10.4167 70.8334H39.5833ZM83.3333 58.3334C85.6345 58.3334 87.5 60.1989 87.5 62.5C87.5 64.8012 85.6345 66.6667 83.3333 66.6667H70.8333C68.5321 66.6667 66.6667 64.8012 66.6667 62.5C66.6667 60.1989 68.5321 58.3334 70.8333 58.3334H83.3333ZM56.25 83.3334C58.5512 83.3334 60.4167 85.1989 60.4167 87.5C60.4167 89.8012 58.5512 91.6667 56.25 91.6667H18.75C16.4488 91.6667 14.5833 89.8012 14.5833 87.5C14.5833 85.1989 16.4488 83.3334 18.75 83.3334H56.25ZM89.5833 83.3334C91.8845 83.3334 93.75 85.1989 93.75 87.5C93.75 89.8012 91.8845 91.6667 89.5833 91.6667H68.75C66.4488 91.6667 64.5833 89.8012 64.5833 87.5C64.5833 85.1989 66.4488 83.3334 68.75 83.3334H89.5833ZM58.3333 58.3334C60.6345 58.3334 62.5 60.1989 62.5 62.5C62.5 64.8012 60.6345 66.6667 58.3333 66.6667H18.75C16.4488 66.6667 14.5833 64.8012 14.5833 62.5C14.5833 60.1989 16.4488 58.3334 18.75 58.3334H58.3333Z" fill="url(#paint1_linear_4002_1244)"/>
<defs>
<filter id="filter0_i_4002_1244" x="2.1665" y="8.33331" width="93.6665" height="70.6667" filterUnits="userSpaceOnUse" color-interpolation-filters="sRGB">
<feFlood flood-opacity="0" result="BackgroundImageFix"/>
<feBlend mode="normal" in="SourceGraphic" in2="BackgroundImageFix" result="shape"/>
<feColorMatrix in="SourceAlpha" type="matrix" values="0 0 0 0 0 0 0 0 0 0 0 0 0 0 0 0 0 0 127 0" result="hardAlpha"/>
<feOffset dx="-2" dy="4"/>
<feGaussianBlur stdDeviation="2"/>
<feComposite in2="hardAlpha" operator="arithmetic" k2="-1" k3="1"/>
<feColorMatrix type="matrix" values="0 0 0 0 1 0 0 0 0 1 0 0 0 0 1 0 0 0 1 0"/>
<feBlend mode="normal" in2="shape" result="effect1_innerShadow_4002_1244"/>
</filter>
<linearGradient id="paint0_linear_4002_1244" x1="10.5883" y1="8.33332" x2="96.8484" y2="73.6594" gradientUnits="userSpaceOnUse">
<stop stop-color="white"/>
<stop offset="1" stop-color="#B4E6FB"/>
</linearGradient>
<linearGradient id="paint1_linear_4002_1244" x1="6.25" y1="58.3334" x2="6.25" y2="91.6667" gradientUnits="userSpaceOnUse">
<stop stop-color="#4CAFFF"/>
<stop offset="1" stop-color="#8FD5FF"/>
</linearGradient>
</defs>
</svg>
