<svg width="100" height="100" viewBox="0 0 100 100" fill="none" xmlns="http://www.w3.org/2000/svg">
<path fill-rule="evenodd" clip-rule="evenodd" d="M62.5 4.16663C71.7047 4.16663 79.1667 11.6285 79.1667 20.8331V52.1979L79.7264 52.7145C84.4521 57.2053 87.2922 63.4052 87.489 70.0887L87.5 70.8333C87.5 84.6404 76.3071 95.8333 62.5 95.8333C48.6929 95.8333 37.5 84.6404 37.5 70.8333C37.5 63.6169 40.5826 56.9065 45.8086 52.2207L45.8333 52.1979V20.8333C45.8333 11.8022 53.0163 4.44883 61.9809 4.17456L62.5 4.16663ZM62.5 12.5C57.8976 12.5 54.1667 16.2309 54.1667 20.8332L54.1672 56.2462L52.5028 57.4963C48.3318 60.6291 45.8333 65.5197 45.8333 70.8333C45.8333 80.038 53.2953 87.5 62.5 87.5C71.7047 87.5 79.1667 80.038 79.1667 70.8333C79.1667 65.5204 76.6689 60.6304 72.4989 57.4976L70.835 56.2476L70.8333 20.8333C70.8333 16.2309 67.1024 12.5 62.5 12.5ZM64.5833 35.4166C65.7339 35.4166 66.6667 36.3494 66.6667 37.5L66.6681 59.0451C71.5223 60.7615 75 65.3913 75 70.8333C75 77.7369 69.4036 83.3333 62.5 83.3333C55.5964 83.3333 50 77.7369 50 70.8333C50 65.3905 53.4787 60.7601 58.334 59.0443L58.3333 37.5C58.3333 36.3494 59.2661 35.4166 60.4167 35.4166H64.5833Z" fill="url(#paint0_linear_4002_1255)"/>
<path fill-rule="evenodd" clip-rule="evenodd" d="M22.9166 58.3334C30.9707 58.3334 37.4999 51.8042 37.4999 43.75C37.4999 39.723 36.9427 37.6247 35.2563 33.6539C33.9187 30.5043 33.3333 29.1667 31.2499 25C30.5555 27.7778 29.1666 29.8612 27.0833 31.25C27.0833 25.6945 24.3055 20.1389 18.7499 14.5834C18.7499 19.0706 18.2446 25.8569 13.5416 31.25C11.0259 34.1349 8.33325 39.723 8.33325 43.75C8.33325 51.8042 14.8624 58.3334 22.9166 58.3334Z" fill="url(#paint1_linear_4002_1255)"/>
<defs>
<linearGradient id="paint0_linear_4002_1255" x1="41.0028" y1="4.16663" x2="108.91" y2="24.5674" gradientUnits="userSpaceOnUse">
<stop stop-color="white"/>
<stop offset="1" stop-color="#B4E6FB"/>
</linearGradient>
<linearGradient id="paint1_linear_4002_1255" x1="22.9166" y1="14.5834" x2="22.9166" y2="58.3334" gradientUnits="userSpaceOnUse">
<stop stop-color="#FFE768"/>
<stop offset="1" stop-color="#FF2919"/>
</linearGradient>
</defs>
</svg>
