<svg width="100" height="100" viewBox="0 0 100 100" fill="none" xmlns="http://www.w3.org/2000/svg">
<g filter="url(#filter0_i_4002_1051)">
<path fill-rule="evenodd" clip-rule="evenodd" d="M80.0729 70.0138L83.0192 72.96C84.6464 74.5872 84.6464 77.2254 83.0192 78.8526C81.392 80.4798 78.7538 80.4798 77.1266 78.8526L74.1803 75.9063C72.5532 74.2791 72.5532 71.6409 74.1803 70.0138C75.8075 68.3866 78.4457 68.3866 80.0729 70.0138ZM52.0833 20.8333C67.041 20.8333 79.1666 32.959 79.1666 47.9167C79.1666 62.8744 67.041 75 52.0833 75C37.1255 75 24.9999 62.8744 24.9999 47.9167C24.9999 32.959 37.1255 20.8333 52.0833 20.8333ZM91.6666 43.75C93.9678 43.75 95.8333 45.6155 95.8333 47.9167C95.8333 50.2179 93.9678 52.0833 91.6666 52.0833H87.4999C85.1987 52.0833 83.3333 50.2179 83.3333 47.9167C83.3333 45.6155 85.1987 43.75 87.4999 43.75H91.6666ZM16.6666 43.75C18.9678 43.75 20.8333 45.6155 20.8333 47.9167C20.8333 50.2179 18.9678 52.0833 16.6666 52.0833H12.4999C10.1987 52.0833 8.33325 50.2179 8.33325 47.9167C8.33325 45.6155 10.1987 43.75 12.4999 43.75H16.6666ZM27.0399 16.9807L29.9862 19.927C31.6133 21.5542 31.6133 24.1924 29.9862 25.8196C28.359 27.4468 25.7208 27.4468 24.0936 25.8196L21.1473 22.8733C19.5201 21.2461 19.5201 18.6079 21.1473 16.9807C22.7745 15.3536 25.4127 15.3536 27.0399 16.9807ZM83.0192 16.9807C84.6464 18.6079 84.6464 21.2461 83.0192 22.8733L80.0729 25.8196C78.4457 27.4468 75.8075 27.4468 74.1803 25.8196C72.5532 24.1924 72.5532 21.5542 74.1803 19.927L77.1266 16.9807C78.7538 15.3536 81.392 15.3536 83.0192 16.9807ZM52.0833 4.16667C54.3844 4.16667 56.2499 6.03215 56.2499 8.33333V12.5C56.2499 14.8012 54.3844 16.6667 52.0833 16.6667C49.7821 16.6667 47.9166 14.8012 47.9166 12.5V8.33333C47.9166 6.03215 49.7821 4.16667 52.0833 4.16667Z" fill="url(#paint0_linear_4002_1051)"/>
</g>
<g filter="url(#filter1_i_4002_1051)">
<path fill-rule="evenodd" clip-rule="evenodd" d="M28.5416 50C36.3456 50 43.2526 54.459 46.6075 61.1407L46.7874 61.5125L47.3112 61.4755L48.0208 61.4583C56.0174 61.4583 62.4999 67.9409 62.4999 75.9375C62.4999 83.9341 56.0174 90.4167 48.0208 90.4167H27.3958C27.0823 90.4167 26.777 90.3821 26.4833 90.3165L26.4541 90.3063L25.9817 90.2558C16.1661 89.0151 8.61731 80.7667 8.34109 70.7757L8.33325 70.2083C8.33325 59.0476 17.3808 50 28.5416 50Z" fill="url(#paint1_linear_4002_1051)"/>
</g>
<defs>
<filter id="filter0_i_4002_1051" x="8.33325" y="4.16667" width="87.5" height="77.9063" filterUnits="userSpaceOnUse" color-interpolation-filters="sRGB">
<feFlood flood-opacity="0" result="BackgroundImageFix"/>
<feBlend mode="normal" in="SourceGraphic" in2="BackgroundImageFix" result="shape"/>
<feColorMatrix in="SourceAlpha" type="matrix" values="0 0 0 0 0 0 0 0 0 0 0 0 0 0 0 0 0 0 127 0" result="hardAlpha"/>
<feOffset dy="2"/>
<feGaussianBlur stdDeviation="4"/>
<feComposite in2="hardAlpha" operator="arithmetic" k2="-1" k3="1"/>
<feColorMatrix type="matrix" values="0 0 0 0 1 0 0 0 0 1 0 0 0 0 1 0 0 0 1 0"/>
<feBlend mode="overlay" in2="shape" result="effect1_innerShadow_4002_1051"/>
</filter>
<filter id="filter1_i_4002_1051" x="6.33325" y="50" width="56.1667" height="44.4167" filterUnits="userSpaceOnUse" color-interpolation-filters="sRGB">
<feFlood flood-opacity="0" result="BackgroundImageFix"/>
<feBlend mode="normal" in="SourceGraphic" in2="BackgroundImageFix" result="shape"/>
<feColorMatrix in="SourceAlpha" type="matrix" values="0 0 0 0 0 0 0 0 0 0 0 0 0 0 0 0 0 0 127 0" result="hardAlpha"/>
<feOffset dx="-2" dy="4"/>
<feGaussianBlur stdDeviation="2"/>
<feComposite in2="hardAlpha" operator="arithmetic" k2="-1" k3="1"/>
<feColorMatrix type="matrix" values="0 0 0 0 1 0 0 0 0 1 0 0 0 0 1 0 0 0 1 0"/>
<feBlend mode="normal" in2="shape" result="effect1_innerShadow_4002_1051"/>
</filter>
<linearGradient id="paint0_linear_4002_1051" x1="52.0833" y1="4.16667" x2="52.0833" y2="80.073" gradientUnits="userSpaceOnUse">
<stop stop-color="#FFD358"/>
<stop offset="1" stop-color="#FA6C21"/>
</linearGradient>
<linearGradient id="paint1_linear_4002_1051" x1="12.1279" y1="50" x2="64.0454" y2="88.323" gradientUnits="userSpaceOnUse">
<stop stop-color="white"/>
<stop offset="1" stop-color="#B4E6FB"/>
</linearGradient>
</defs>
</svg>
