<svg width="100" height="100" viewBox="0 0 100 100" fill="none" xmlns="http://www.w3.org/2000/svg">
<g filter="url(#filter0_i_4002_1060)">
<path fill-rule="evenodd" clip-rule="evenodd" d="M55.8673 4.82744C59.6254 4.06812 62.3277 8.35911 60.0192 11.4203C57.373 14.9294 55.9211 19.1911 55.9211 23.6842C55.9211 34.9479 65.0522 44.079 76.3159 44.079C80.8092 44.079 85.0713 42.6269 88.5807 39.9807C91.6419 37.6725 95.9327 40.3747 95.1735 44.1327C92.0552 59.5674 78.4368 70.8333 62.5001 70.8333C44.0906 70.8333 29.1667 55.9095 29.1667 37.5C29.1667 21.5637 40.432 7.94609 55.8673 4.82744Z" fill="url(#paint0_linear_4002_1060)"/>
</g>
<g filter="url(#filter1_i_4002_1060)">
<path fill-rule="evenodd" clip-rule="evenodd" d="M32.2917 37.5C42.8514 37.5 52.137 43.8357 56.1867 53.1693L56.2458 53.3146L56.4866 53.2779C57.0067 53.2102 57.5314 53.1648 58.0595 53.1421L58.8542 53.125C68.9219 53.125 77.0833 61.2865 77.0833 71.3542C77.0833 81.4219 68.9219 89.5833 58.8542 89.5833H30.7292C30.4121 89.5833 30.1033 89.5479 29.8066 89.4809L29.7167 89.4562L29.172 89.3981C16.4068 87.8744 6.57168 77.1586 6.25773 64.1817L6.25 63.5417C6.25 49.1593 17.9093 37.5 32.2917 37.5Z" fill="url(#paint1_linear_4002_1060)"/>
</g>
<defs>
<filter id="filter0_i_4002_1060" x="29.1667" y="4.73894" width="66.0952" height="68.0944" filterUnits="userSpaceOnUse" color-interpolation-filters="sRGB">
<feFlood flood-opacity="0" result="BackgroundImageFix"/>
<feBlend mode="normal" in="SourceGraphic" in2="BackgroundImageFix" result="shape"/>
<feColorMatrix in="SourceAlpha" type="matrix" values="0 0 0 0 0 0 0 0 0 0 0 0 0 0 0 0 0 0 127 0" result="hardAlpha"/>
<feOffset dy="2"/>
<feGaussianBlur stdDeviation="8"/>
<feComposite in2="hardAlpha" operator="arithmetic" k2="-1" k3="1"/>
<feColorMatrix type="matrix" values="0 0 0 0 1 0 0 0 0 1 0 0 0 0 1 0 0 0 1 0"/>
<feBlend mode="overlay" in2="shape" result="effect1_innerShadow_4002_1060"/>
</filter>
<filter id="filter1_i_4002_1060" x="4.25" y="37.5" width="72.8333" height="56.0833" filterUnits="userSpaceOnUse" color-interpolation-filters="sRGB">
<feFlood flood-opacity="0" result="BackgroundImageFix"/>
<feBlend mode="normal" in="SourceGraphic" in2="BackgroundImageFix" result="shape"/>
<feColorMatrix in="SourceAlpha" type="matrix" values="0 0 0 0 0 0 0 0 0 0 0 0 0 0 0 0 0 0 127 0" result="hardAlpha"/>
<feOffset dx="-2" dy="4"/>
<feGaussianBlur stdDeviation="2"/>
<feComposite in2="hardAlpha" operator="arithmetic" k2="-1" k3="1"/>
<feColorMatrix type="matrix" values="0 0 0 0 1 0 0 0 0 1 0 0 0 0 1 0 0 0 1 0"/>
<feBlend mode="normal" in2="shape" result="effect1_innerShadow_4002_1060"/>
</filter>
<linearGradient id="paint0_linear_4002_1060" x1="62.2144" y1="4.73894" x2="62.2144" y2="70.8333" gradientUnits="userSpaceOnUse">
<stop stop-color="#FFD358"/>
<stop offset="1" stop-color="#FA6C21"/>
</linearGradient>
<linearGradient id="paint1_linear_4002_1060" x1="11.2123" y1="37.5" x2="78.3992" y2="87.8266" gradientUnits="userSpaceOnUse">
<stop stop-color="white"/>
<stop offset="1" stop-color="#B4E6FB"/>
</linearGradient>
</defs>
</svg>
