<svg width="100" height="100" viewBox="0 0 100 100" fill="none" xmlns="http://www.w3.org/2000/svg">
<g filter="url(#filter0_i_4002_1065)">
<path fill-rule="evenodd" clip-rule="evenodd" d="M68.75 14.5833C79.1053 14.5833 87.5 22.978 87.5 33.3333C87.5 43.6887 79.1053 52.0833 68.75 52.0833C58.3947 52.0833 50 43.6887 50 33.3333C50 22.978 58.3947 14.5833 68.75 14.5833ZM93.3702 33.5079C95.6714 33.5079 97.5369 35.3734 97.5369 37.6745C97.5369 39.9757 95.6714 41.8412 93.3702 41.8412C91.069 41.8412 89.2035 39.9757 89.2035 37.6745C89.2035 35.3734 91.069 33.5079 93.3702 33.5079ZM89.2288 14.8273C91.53 14.8273 93.3955 16.6927 93.3955 18.9939C93.3955 21.2951 91.53 23.1606 89.2288 23.1606C86.9276 23.1606 85.0621 21.2951 85.0621 18.9939C85.0621 16.6927 86.9276 14.8273 89.2288 14.8273ZM54.4106 8.68787C56.7118 8.68787 58.5773 10.5534 58.5773 12.8545C58.5773 15.1557 56.7118 17.0212 54.4106 17.0212C52.1094 17.0212 50.2439 15.1557 50.2439 12.8545C50.2439 10.5534 52.1094 8.68787 54.4106 8.68787ZM73.0912 4.54648C75.3924 4.54648 77.2579 6.41196 77.2579 8.71314C77.2579 11.0143 75.3924 12.8798 73.0912 12.8798C70.79 12.8798 68.9245 11.0143 68.9245 8.71314C68.9245 6.41196 70.79 4.54648 73.0912 4.54648Z" fill="url(#paint0_linear_4002_1065)"/>
</g>
<g filter="url(#filter1_i_4002_1065)">
<path fill-rule="evenodd" clip-rule="evenodd" d="M37.5001 18.75C19.0906 18.75 4.16675 33.6738 4.16675 52.0833L4.17377 52.7735C4.51509 69.5274 17.2555 83.366 33.759 85.2088L34.3084 85.2646L34.501 85.3157C34.7956 85.3818 35.1021 85.4167 35.4167 85.4167H72.9168L73.5298 85.4082C85.9626 85.0487 95.8334 74.9052 95.8334 62.5C95.8334 49.8435 85.5733 39.5833 72.9168 39.5833L72.0173 39.6007C71.1205 39.6355 70.2315 39.7221 69.354 39.8594L68.573 39.9958L68.357 39.4496C63.3262 27.1521 51.2577 18.75 37.5001 18.75Z" fill="url(#paint1_linear_4002_1065)"/>
</g>
<path fill-rule="evenodd" clip-rule="evenodd" d="M39.8813 79.7025C40.736 77.5659 43.1608 76.5267 45.2974 77.3813C47.3323 78.1953 48.3718 80.4335 47.7279 82.4905L47.6186 82.7975L43.452 93.2141C42.5973 95.3507 40.1724 96.3899 38.0358 95.5353C36.001 94.7214 34.9615 92.4832 35.6054 90.4262L35.7147 90.1192L39.8813 79.7025ZM58.6313 79.7025C59.486 77.5659 61.9108 76.5267 64.0474 77.3813C66.0823 78.1953 67.1218 80.4335 66.4779 82.4905L66.3686 82.7975L62.202 93.2141C61.3473 95.3507 58.9224 96.3899 56.7858 95.5353C54.751 94.7214 53.7115 92.4832 54.3554 90.4262L54.4647 90.1192L58.6313 79.7025Z" fill="url(#paint2_linear_4002_1065)"/>
<defs>
<filter id="filter0_i_4002_1065" x="50" y="4.54648" width="47.5369" height="49.5369" filterUnits="userSpaceOnUse" color-interpolation-filters="sRGB">
<feFlood flood-opacity="0" result="BackgroundImageFix"/>
<feBlend mode="normal" in="SourceGraphic" in2="BackgroundImageFix" result="shape"/>
<feColorMatrix in="SourceAlpha" type="matrix" values="0 0 0 0 0 0 0 0 0 0 0 0 0 0 0 0 0 0 127 0" result="hardAlpha"/>
<feOffset dy="2"/>
<feGaussianBlur stdDeviation="4"/>
<feComposite in2="hardAlpha" operator="arithmetic" k2="-1" k3="1"/>
<feColorMatrix type="matrix" values="0 0 0 0 1 0 0 0 0 1 0 0 0 0 1 0 0 0 1 0"/>
<feBlend mode="overlay" in2="shape" result="effect1_innerShadow_4002_1065"/>
</filter>
<filter id="filter1_i_4002_1065" x="2.16675" y="18.75" width="93.6667" height="70.6667" filterUnits="userSpaceOnUse" color-interpolation-filters="sRGB">
<feFlood flood-opacity="0" result="BackgroundImageFix"/>
<feBlend mode="normal" in="SourceGraphic" in2="BackgroundImageFix" result="shape"/>
<feColorMatrix in="SourceAlpha" type="matrix" values="0 0 0 0 0 0 0 0 0 0 0 0 0 0 0 0 0 0 127 0" result="hardAlpha"/>
<feOffset dx="-2" dy="4"/>
<feGaussianBlur stdDeviation="2"/>
<feComposite in2="hardAlpha" operator="arithmetic" k2="-1" k3="1"/>
<feColorMatrix type="matrix" values="0 0 0 0 1 0 0 0 0 1 0 0 0 0 1 0 0 0 1 0"/>
<feBlend mode="normal" in2="shape" result="effect1_innerShadow_4002_1065"/>
</filter>
<linearGradient id="paint0_linear_4002_1065" x1="73.7684" y1="4.54648" x2="73.7684" y2="52.0833" gradientUnits="userSpaceOnUse">
<stop stop-color="#FFD358"/>
<stop offset="1" stop-color="#FA6C21"/>
</linearGradient>
<linearGradient id="paint1_linear_4002_1065" x1="10.5885" y1="18.75" x2="96.8486" y2="84.0761" gradientUnits="userSpaceOnUse">
<stop stop-color="white"/>
<stop offset="1" stop-color="#B4E6FB"/>
</linearGradient>
<linearGradient id="paint2_linear_4002_1065" x1="35.4155" y1="77.0822" x2="35.4155" y2="95.8344" gradientUnits="userSpaceOnUse">
<stop stop-color="#4CAFFF"/>
<stop offset="1" stop-color="#8FD5FF"/>
</linearGradient>
</defs>
</svg>
