<svg width="100" height="100" viewBox="0 0 100 100" fill="none" xmlns="http://www.w3.org/2000/svg">
<g filter="url(#filter0_i_4002_1073)">
<path fill-rule="evenodd" clip-rule="evenodd" d="M68.75 14.5833C79.1053 14.5833 87.5 22.978 87.5 33.3333C87.5 43.6887 79.1053 52.0833 68.75 52.0833C58.3947 52.0833 50 43.6887 50 33.3333C50 22.978 58.3947 14.5833 68.75 14.5833ZM93.3702 33.5079C95.6714 33.5079 97.5369 35.3734 97.5369 37.6745C97.5369 39.9757 95.6714 41.8412 93.3702 41.8412C91.069 41.8412 89.2035 39.9757 89.2035 37.6745C89.2035 35.3734 91.069 33.5079 93.3702 33.5079ZM89.2288 14.8273C91.53 14.8273 93.3955 16.6927 93.3955 18.9939C93.3955 21.2951 91.53 23.1606 89.2288 23.1606C86.9276 23.1606 85.0621 21.2951 85.0621 18.9939C85.0621 16.6927 86.9276 14.8273 89.2288 14.8273ZM54.4106 8.68787C56.7118 8.68787 58.5773 10.5534 58.5773 12.8545C58.5773 15.1557 56.7118 17.0212 54.4106 17.0212C52.1094 17.0212 50.2439 15.1557 50.2439 12.8545C50.2439 10.5534 52.1094 8.68787 54.4106 8.68787ZM73.0912 4.54648C75.3924 4.54648 77.2579 6.41196 77.2579 8.71314C77.2579 11.0143 75.3924 12.8798 73.0912 12.8798C70.79 12.8798 68.9245 11.0143 68.9245 8.71314C68.9245 6.41196 70.79 4.54648 73.0912 4.54648Z" fill="url(#paint0_linear_4002_1073)"/>
</g>
<g filter="url(#filter1_i_4002_1073)">
<path fill-rule="evenodd" clip-rule="evenodd" d="M37.5001 18.75C19.0906 18.75 4.16675 33.6738 4.16675 52.0833L4.17377 52.7735C4.51509 69.5274 17.2555 83.366 33.759 85.2088L34.3084 85.2646L34.501 85.3157C34.7956 85.3818 35.1021 85.4167 35.4167 85.4167H72.9168L73.5298 85.4082C85.9626 85.0487 95.8334 74.9052 95.8334 62.5C95.8334 49.8435 85.5733 39.5833 72.9168 39.5833L72.0173 39.6007C71.1205 39.6355 70.2315 39.7221 69.354 39.8594L68.573 39.9958L68.357 39.4496C63.3262 27.1521 51.2577 18.75 37.5001 18.75Z" fill="url(#paint1_linear_4002_1073)"/>
</g>
<path fill-rule="evenodd" clip-rule="evenodd" d="M31.5481 79.7025C32.4027 77.5659 34.8276 76.5267 36.9642 77.3813C38.999 78.1953 40.0385 80.4335 39.3947 82.4905L39.2854 82.7975L35.1187 93.2141C34.2641 95.3507 31.8392 96.3899 29.7026 95.5353C27.6677 94.7214 26.6282 92.4832 27.2721 90.4262L27.3814 90.1192L31.5481 79.7025ZM50.2981 79.7025C51.1527 77.5659 53.5776 76.5267 55.7142 77.3813C57.749 78.1953 58.7885 80.4335 58.1447 82.4905L58.0354 82.7975L53.8687 93.2141C53.0141 95.3507 50.5892 96.3899 48.4526 95.5353C46.4177 94.7214 45.3782 92.4832 46.0221 90.4262L46.1314 90.1192L50.2981 79.7025ZM69.0481 79.7025C69.9027 77.5659 72.3276 76.5267 74.4642 77.3813C76.499 78.1953 77.5386 80.4335 76.8947 82.4905L76.7854 82.7975L72.6187 93.2141C71.7641 95.3507 69.3392 96.3899 67.2026 95.5353C65.1677 94.7214 64.1282 92.4832 64.7721 90.4262L64.8814 90.1192L69.0481 79.7025Z" fill="url(#paint2_linear_4002_1073)"/>
<defs>
<filter id="filter0_i_4002_1073" x="50" y="4.54648" width="47.5369" height="49.5369" filterUnits="userSpaceOnUse" color-interpolation-filters="sRGB">
<feFlood flood-opacity="0" result="BackgroundImageFix"/>
<feBlend mode="normal" in="SourceGraphic" in2="BackgroundImageFix" result="shape"/>
<feColorMatrix in="SourceAlpha" type="matrix" values="0 0 0 0 0 0 0 0 0 0 0 0 0 0 0 0 0 0 127 0" result="hardAlpha"/>
<feOffset dy="2"/>
<feGaussianBlur stdDeviation="4"/>
<feComposite in2="hardAlpha" operator="arithmetic" k2="-1" k3="1"/>
<feColorMatrix type="matrix" values="0 0 0 0 1 0 0 0 0 1 0 0 0 0 1 0 0 0 1 0"/>
<feBlend mode="overlay" in2="shape" result="effect1_innerShadow_4002_1073"/>
</filter>
<filter id="filter1_i_4002_1073" x="2.16675" y="18.75" width="93.6667" height="70.6667" filterUnits="userSpaceOnUse" color-interpolation-filters="sRGB">
<feFlood flood-opacity="0" result="BackgroundImageFix"/>
<feBlend mode="normal" in="SourceGraphic" in2="BackgroundImageFix" result="shape"/>
<feColorMatrix in="SourceAlpha" type="matrix" values="0 0 0 0 0 0 0 0 0 0 0 0 0 0 0 0 0 0 127 0" result="hardAlpha"/>
<feOffset dx="-2" dy="4"/>
<feGaussianBlur stdDeviation="2"/>
<feComposite in2="hardAlpha" operator="arithmetic" k2="-1" k3="1"/>
<feColorMatrix type="matrix" values="0 0 0 0 1 0 0 0 0 1 0 0 0 0 1 0 0 0 1 0"/>
<feBlend mode="normal" in2="shape" result="effect1_innerShadow_4002_1073"/>
</filter>
<linearGradient id="paint0_linear_4002_1073" x1="73.7684" y1="4.54648" x2="73.7684" y2="52.0833" gradientUnits="userSpaceOnUse">
<stop stop-color="#FFD358"/>
<stop offset="1" stop-color="#FA6C21"/>
</linearGradient>
<linearGradient id="paint1_linear_4002_1073" x1="10.5885" y1="18.75" x2="96.8486" y2="84.0761" gradientUnits="userSpaceOnUse">
<stop stop-color="white"/>
<stop offset="1" stop-color="#B4E6FB"/>
</linearGradient>
<linearGradient id="paint2_linear_4002_1073" x1="27.0823" y1="77.0822" x2="27.0823" y2="95.8344" gradientUnits="userSpaceOnUse">
<stop stop-color="#4CAFFF"/>
<stop offset="1" stop-color="#8FD5FF"/>
</linearGradient>
</defs>
</svg>
