<svg width="100" height="100" viewBox="0 0 100 100" fill="none" xmlns="http://www.w3.org/2000/svg">
<g filter="url(#filter0_i_4002_1089)">
<path fill-rule="evenodd" clip-rule="evenodd" d="M37.5001 8.33334C19.0906 8.33334 4.16675 23.2572 4.16675 41.6667L4.17377 42.3568C4.51509 59.1108 17.2555 72.9494 33.759 74.7922L34.3084 74.8479L34.501 74.8991C34.7956 74.9651 35.1021 75 35.4167 75H72.9168L73.5298 74.9916C85.9626 74.632 95.8334 64.4885 95.8334 52.0833C95.8334 39.4268 85.5733 29.1667 72.9168 29.1667L72.0173 29.1841C71.1205 29.2188 70.2315 29.3054 69.354 29.4428L68.573 29.5792L68.357 29.0329C63.3262 16.7354 51.2577 8.33334 37.5001 8.33334Z" fill="url(#paint0_linear_4002_1089)"/>
</g>
<g filter="url(#filter1_i_4002_1089)">
<path fill-rule="evenodd" clip-rule="evenodd" d="M67.0834 50.8333L58.3334 62.5L65.0915 63.1144C66.8103 63.2706 68.077 64.7907 67.9207 66.5095C67.8828 66.927 67.7612 67.3325 67.5633 67.7021L53.6638 93.6512C51.436 97.764 45.2534 95.6357 45.8635 91.1519L45.9143 90.8495L49.2147 74.3333L37.216 72.476C35.5104 72.212 34.3418 70.6153 34.6058 68.9097C34.642 68.6759 34.7047 68.4469 34.7926 68.2272L42.7024 48.4526C43.3352 46.8706 44.8673 45.8333 46.5711 45.8333H64.5834C66.3093 45.8333 67.7084 47.2325 67.7084 48.9583C67.7084 49.6345 67.4891 50.2924 67.0834 50.8333Z" fill="url(#paint1_linear_4002_1089)"/>
</g>
<path fill-rule="evenodd" clip-rule="evenodd" d="M29.4646 75.5359C30.3192 73.3993 32.7441 72.36 34.8807 73.2147C36.9155 74.0286 37.9551 76.2668 37.3112 78.3238L37.2019 78.6308L33.0352 89.0475C32.1806 91.1841 29.7557 92.2233 27.6191 91.3687C25.5842 90.5547 24.5447 88.3165 25.1886 86.2595L25.2979 85.9525L29.4646 75.5359ZM74.9988 91.6656C78.4506 91.6656 81.2488 88.8673 81.2488 85.4156C81.2488 81.9638 78.4506 79.1656 74.9988 79.1656C71.547 79.1656 68.7488 81.9638 68.7488 85.4156C68.7488 88.8673 71.547 91.6656 74.9988 91.6656Z" fill="url(#paint2_linear_4002_1089)"/>
<defs>
<filter id="filter0_i_4002_1089" x="2.16675" y="8.33334" width="93.6667" height="70.6667" filterUnits="userSpaceOnUse" color-interpolation-filters="sRGB">
<feFlood flood-opacity="0" result="BackgroundImageFix"/>
<feBlend mode="normal" in="SourceGraphic" in2="BackgroundImageFix" result="shape"/>
<feColorMatrix in="SourceAlpha" type="matrix" values="0 0 0 0 0 0 0 0 0 0 0 0 0 0 0 0 0 0 127 0" result="hardAlpha"/>
<feOffset dx="-2" dy="4"/>
<feGaussianBlur stdDeviation="2"/>
<feComposite in2="hardAlpha" operator="arithmetic" k2="-1" k3="1"/>
<feColorMatrix type="matrix" values="0 0 0 0 1 0 0 0 0 1 0 0 0 0 1 0 0 0 1 0"/>
<feBlend mode="normal" in2="shape" result="effect1_innerShadow_4002_1089"/>
</filter>
<filter id="filter1_i_4002_1089" x="34.5686" y="45.8333" width="33.3652" height="52.0168" filterUnits="userSpaceOnUse" color-interpolation-filters="sRGB">
<feFlood flood-opacity="0" result="BackgroundImageFix"/>
<feBlend mode="normal" in="SourceGraphic" in2="BackgroundImageFix" result="shape"/>
<feColorMatrix in="SourceAlpha" type="matrix" values="0 0 0 0 0 0 0 0 0 0 0 0 0 0 0 0 0 0 127 0" result="hardAlpha"/>
<feOffset dy="2"/>
<feGaussianBlur stdDeviation="4"/>
<feComposite in2="hardAlpha" operator="arithmetic" k2="-1" k3="1"/>
<feColorMatrix type="matrix" values="0 0 0 0 1 0 0 0 0 1 0 0 0 0 1 0 0 0 1 0"/>
<feBlend mode="overlay" in2="shape" result="effect1_innerShadow_4002_1089"/>
</filter>
<linearGradient id="paint0_linear_4002_1089" x1="10.5885" y1="8.33335" x2="96.8486" y2="73.6595" gradientUnits="userSpaceOnUse">
<stop stop-color="white"/>
<stop offset="1" stop-color="#B4E6FB"/>
</linearGradient>
<linearGradient id="paint1_linear_4002_1089" x1="51.2512" y1="45.8333" x2="51.2512" y2="95.8501" gradientUnits="userSpaceOnUse">
<stop stop-color="#FA6C21"/>
<stop offset="1" stop-color="#FFD358"/>
</linearGradient>
<linearGradient id="paint2_linear_4002_1089" x1="24.9988" y1="72.9156" x2="24.9988" y2="91.6678" gradientUnits="userSpaceOnUse">
<stop stop-color="#4CAFFF"/>
<stop offset="1" stop-color="#8FD5FF"/>
</linearGradient>
</defs>
</svg>
