<svg width="100" height="100" viewBox="0 0 100 100" fill="none" xmlns="http://www.w3.org/2000/svg">
<g filter="url(#filter0_i_4002_1102)">
<path fill-rule="evenodd" clip-rule="evenodd" d="M37.4998 8.33334C19.0903 8.33334 4.1665 23.2572 4.1665 41.6667L4.17353 42.3568C4.51485 59.1108 17.2552 72.9494 33.7587 74.7922L34.3082 74.8479L34.5007 74.8991C34.7954 74.9651 35.1019 75 35.4165 75H72.9165L73.5296 74.9916C85.9624 74.632 95.8332 64.4885 95.8332 52.0833C95.8332 39.4268 85.573 29.1667 72.9165 29.1667L72.0171 29.1841C71.1202 29.2188 70.2313 29.3054 69.3538 29.4428L68.5728 29.5792L68.3568 29.0329C63.326 16.7354 51.2575 8.33334 37.4998 8.33334Z" fill="url(#paint0_linear_4002_1102)"/>
</g>
<path fill-rule="evenodd" clip-rule="evenodd" d="M36.9639 73.2147C38.9988 74.0286 40.0383 76.2668 39.3944 78.3238L39.2851 78.6308L35.1185 89.0475C34.2638 91.1841 31.8389 92.2233 29.7023 91.3686C27.6675 90.5547 26.628 88.3165 27.2719 86.2595L27.3812 85.9525L31.5478 75.5359C32.4025 73.3993 34.8273 72.36 36.9639 73.2147ZM31.7556 54.4647C33.7905 55.2786 34.83 57.5168 34.1861 59.5738L34.0768 59.8808L29.9101 70.2975C29.0555 72.4341 26.6306 73.4733 24.494 72.6186C22.4592 71.8047 21.4196 69.5665 22.0635 67.5095L22.1728 67.2025L26.3395 56.7859C27.1941 54.6493 29.619 53.61 31.7556 54.4647ZM12.7978 75.5359C13.6525 73.3993 16.0773 72.36 18.2139 73.2147C20.2488 74.0286 21.2883 76.2668 20.6444 78.3238L20.5351 78.6308L16.3685 89.0475C15.5138 91.1841 13.0889 92.2233 10.9523 91.3686C8.91749 90.5547 7.87798 88.3165 8.52186 86.2595L8.63115 85.9525L12.7978 75.5359ZM55.7139 73.2147C57.7488 74.0286 58.7883 76.2668 58.1444 78.3238L58.0351 78.6308L53.8685 89.0475C53.0138 91.1841 50.5889 92.2233 48.4524 91.3686C46.4175 90.5547 45.378 88.3165 46.0219 86.2595L46.1312 85.9525L50.2978 75.5359C51.1525 73.3993 53.5773 72.36 55.7139 73.2147ZM50.5056 54.4647C52.5405 55.2786 53.58 57.5168 52.9361 59.5738L52.8268 59.8808L48.6601 70.2975C47.8055 72.4341 45.3806 73.4733 43.244 72.6186C41.2092 71.8047 40.1696 69.5665 40.8135 67.5095L40.9228 67.2025L45.0895 56.7859C45.9441 54.6493 48.369 53.61 50.5056 54.4647ZM74.4639 73.2147C76.4988 74.0286 77.5383 76.2668 76.8944 78.3238L76.7851 78.6308L72.6185 89.0475C71.7638 91.1841 69.3389 92.2233 67.2023 91.3686C65.1675 90.5547 64.128 88.3165 64.7719 86.2595L64.8812 85.9525L69.0478 75.5359C69.9025 73.3993 72.3273 72.36 74.4639 73.2147ZM69.2556 54.4647C71.2905 55.2786 72.33 57.5168 71.6861 59.5738L71.5768 59.8808L67.4101 70.2975C66.5555 72.4341 64.1306 73.4733 61.994 72.6186C59.9592 71.8047 58.9196 69.5665 59.5635 67.5095L59.6728 67.2025L63.8395 56.7859C64.6941 54.6493 67.119 53.61 69.2556 54.4647ZM93.2139 73.2147C95.2488 74.0286 96.2883 76.2668 95.6444 78.3238L95.5351 78.6308L91.3685 89.0475C90.5138 91.1841 88.0889 92.2233 85.9523 91.3686C83.9175 90.5547 82.878 88.3165 83.5219 86.2595L83.6312 85.9525L87.7978 75.5359C88.6525 73.3993 91.0773 72.36 93.2139 73.2147ZM88.0056 54.4647C90.0405 55.2786 91.08 57.5168 90.4361 59.5738L90.3268 59.8808L86.1601 70.2975C85.3055 72.4341 82.8806 73.4733 80.744 72.6186C78.7092 71.8047 77.6696 69.5665 78.3135 67.5095L78.4228 67.2025L82.5895 56.7859C83.4441 54.6493 85.869 53.61 88.0056 54.4647Z" fill="url(#paint1_linear_4002_1102)"/>
<defs>
<filter id="filter0_i_4002_1102" x="2.1665" y="8.33334" width="93.6665" height="70.6667" filterUnits="userSpaceOnUse" color-interpolation-filters="sRGB">
<feFlood flood-opacity="0" result="BackgroundImageFix"/>
<feBlend mode="normal" in="SourceGraphic" in2="BackgroundImageFix" result="shape"/>
<feColorMatrix in="SourceAlpha" type="matrix" values="0 0 0 0 0 0 0 0 0 0 0 0 0 0 0 0 0 0 127 0" result="hardAlpha"/>
<feOffset dx="-2" dy="4"/>
<feGaussianBlur stdDeviation="2"/>
<feComposite in2="hardAlpha" operator="arithmetic" k2="-1" k3="1"/>
<feColorMatrix type="matrix" values="0 0 0 0 1 0 0 0 0 1 0 0 0 0 1 0 0 0 1 0"/>
<feBlend mode="normal" in2="shape" result="effect1_innerShadow_4002_1102"/>
</filter>
<linearGradient id="paint0_linear_4002_1102" x1="10.5883" y1="8.33335" x2="96.8484" y2="73.6595" gradientUnits="userSpaceOnUse">
<stop stop-color="white"/>
<stop offset="1" stop-color="#B4E6FB"/>
</linearGradient>
<linearGradient id="paint1_linear_4002_1102" x1="8.33203" y1="54.1656" x2="8.33203" y2="91.6678" gradientUnits="userSpaceOnUse">
<stop stop-color="#4CAFFF"/>
<stop offset="1" stop-color="#8FD5FF"/>
</linearGradient>
</defs>
</svg>
