<svg width="100" height="100" viewBox="0 0 100 100" fill="none" xmlns="http://www.w3.org/2000/svg">
<g filter="url(#filter0_i_4002_1111)">
<path fill-rule="evenodd" clip-rule="evenodd" d="M37.4998 8.33334C19.0903 8.33334 4.1665 23.2572 4.1665 41.6667L4.17353 42.3568C4.51485 59.1108 17.2552 72.9494 33.7587 74.7922L34.3082 74.8479L34.5007 74.8991C34.7954 74.9651 35.1019 75 35.4165 75H72.9165L73.5296 74.9916C85.9624 74.632 95.8332 64.4885 95.8332 52.0833C95.8332 39.4268 85.573 29.1667 72.9165 29.1667L72.0171 29.1841C71.1202 29.2188 70.2313 29.3054 69.3538 29.4428L68.5728 29.5792L68.3568 29.0329C63.326 16.7354 51.2575 8.33334 37.4998 8.33334Z" fill="url(#paint0_linear_4002_1111)"/>
</g>
<path fill-rule="evenodd" clip-rule="evenodd" d="M54.4645 65.1192C55.3191 62.9826 57.744 61.9434 59.8806 62.798C62.0172 63.6527 63.0564 66.0775 62.2018 68.2141L53.8685 89.0475C53.0138 91.1841 50.5889 92.2233 48.4523 91.3687C46.3157 90.514 45.2765 88.0891 46.1312 85.9525L54.4645 65.1192ZM35.7145 65.1192C36.5691 62.9826 38.994 61.9434 41.1306 62.798C43.2672 63.6527 44.3064 66.0775 43.4518 68.2141L35.1185 89.0475C34.2638 91.1841 31.8389 92.2233 29.7023 91.3687C27.5657 90.514 26.5265 88.0891 27.3812 85.9525L35.7145 65.1192ZM73.2145 65.1192C74.0691 62.9826 76.494 61.9434 78.6306 62.798C80.7672 63.6527 81.8064 66.0775 80.9518 68.2141L72.6185 89.0475C71.7638 91.1841 69.3389 92.2233 67.2023 91.3687C65.0657 90.514 64.0265 88.0891 64.8812 85.9525L73.2145 65.1192Z" fill="url(#paint1_linear_4002_1111)"/>
<defs>
<filter id="filter0_i_4002_1111" x="2.1665" y="8.33334" width="93.6665" height="70.6667" filterUnits="userSpaceOnUse" color-interpolation-filters="sRGB">
<feFlood flood-opacity="0" result="BackgroundImageFix"/>
<feBlend mode="normal" in="SourceGraphic" in2="BackgroundImageFix" result="shape"/>
<feColorMatrix in="SourceAlpha" type="matrix" values="0 0 0 0 0 0 0 0 0 0 0 0 0 0 0 0 0 0 127 0" result="hardAlpha"/>
<feOffset dx="-2" dy="4"/>
<feGaussianBlur stdDeviation="2"/>
<feComposite in2="hardAlpha" operator="arithmetic" k2="-1" k3="1"/>
<feColorMatrix type="matrix" values="0 0 0 0 1 0 0 0 0 1 0 0 0 0 1 0 0 0 1 0"/>
<feBlend mode="normal" in2="shape" result="effect1_innerShadow_4002_1111"/>
</filter>
<linearGradient id="paint0_linear_4002_1111" x1="10.5883" y1="8.33335" x2="96.8484" y2="73.6595" gradientUnits="userSpaceOnUse">
<stop stop-color="white"/>
<stop offset="1" stop-color="#B4E6FB"/>
</linearGradient>
<linearGradient id="paint1_linear_4002_1111" x1="27.082" y1="62.4989" x2="27.082" y2="91.6678" gradientUnits="userSpaceOnUse">
<stop stop-color="#4CAFFF"/>
<stop offset="1" stop-color="#8FD5FF"/>
</linearGradient>
</defs>
</svg>
