<svg width="100" height="100" viewBox="0 0 100 100" fill="none" xmlns="http://www.w3.org/2000/svg">
<path fill-rule="evenodd" clip-rule="evenodd" d="M18.2141 62.798C20.3507 63.6527 21.3899 66.0775 20.5353 68.2141L12.202 89.0475C11.3473 91.1841 8.92244 92.2233 6.78584 91.3686C4.64924 90.514 3.61001 88.0891 4.46465 85.9525L12.798 65.1192C13.6526 62.9826 16.0775 61.9434 18.2141 62.798ZM30.7141 62.798C32.8507 63.6527 33.8899 66.0775 33.0353 68.2141L24.702 89.0475C23.8473 91.1841 21.4224 92.2233 19.2858 91.3686C17.1492 90.514 16.11 88.0891 16.9646 85.9525L25.298 65.1192C26.1526 62.9826 28.5775 61.9434 30.7141 62.798ZM43.2141 62.798C45.3507 63.6527 46.3899 66.0775 45.5353 68.2141L37.202 89.0475C36.3473 91.1841 33.9224 92.2233 31.7858 91.3686C29.6492 90.514 28.61 88.0891 29.4646 85.9525L37.798 65.1192C38.6526 62.9826 41.0775 61.9434 43.2141 62.798ZM80.7141 66.9647C82.8507 67.8193 83.8899 70.2442 83.0353 72.3808L74.702 93.2141C73.8473 95.3507 71.4224 96.39 69.2858 95.5353C67.1492 94.6807 66.11 92.2558 66.9646 90.1192L75.298 69.2859C76.1526 67.1493 78.5775 66.11 80.7141 66.9647ZM68.2141 66.9647C70.3507 67.8193 71.3899 70.2442 70.5353 72.3808L62.202 93.2141C61.3473 95.3507 58.9224 96.39 56.7858 95.5353C54.6492 94.6807 53.61 92.2558 54.4646 90.1192L62.798 69.2859C63.6526 67.1493 66.0775 66.11 68.2141 66.9647ZM93.2141 66.9647C95.3507 67.8193 96.3899 70.2442 95.5353 72.3808L87.202 93.2141C86.3473 95.3507 83.9224 96.39 81.7858 95.5353C79.6492 94.6807 78.61 92.2558 79.4646 90.1192L87.798 69.2859C88.6526 67.1493 91.0775 66.11 93.2141 66.9647ZM93.2141 48.2147C95.2489 49.0286 96.2885 51.2668 95.6446 53.3238L95.5353 53.6308L91.3686 64.0475C90.514 66.1841 88.0891 67.2233 85.9525 66.3686C83.9176 65.5547 82.8781 63.3165 83.522 61.2595L83.6313 60.9525L87.798 50.5359C88.6526 48.3993 91.0775 47.36 93.2141 48.2147ZM80.7141 48.2147C82.7489 49.0286 83.7885 51.2668 83.1446 53.3238L83.0353 53.6308L78.8686 64.0475C78.014 66.1841 75.5891 67.2233 73.4525 66.3686C71.4176 65.5547 70.3781 63.3165 71.022 61.2595L71.1313 60.9525L75.298 50.5359C76.1526 48.3993 78.5775 47.36 80.7141 48.2147ZM68.2141 48.2147C70.249 49.0286 71.2885 51.2668 70.6446 53.3238L70.5353 53.6308L66.3686 64.0475C65.514 66.1841 63.0891 67.2233 60.9525 66.3686C58.9177 65.5547 57.8781 63.3165 58.522 61.2595L58.6313 60.9525L62.798 50.5359C63.6526 48.3993 66.0775 47.36 68.2141 48.2147Z" fill="url(#paint0_linear_4002_1186)"/>
<g filter="url(#filter0_i_4002_1186)">
<path fill-rule="evenodd" clip-rule="evenodd" d="M50 47.9167C52.3012 47.9167 54.1667 49.7821 54.1667 52.0833V81.25C54.1667 88.1536 48.5702 93.75 41.6667 93.75C39.3655 93.75 37.5 91.8845 37.5 89.5833C37.5 87.2821 39.3655 85.4167 41.6667 85.4167C43.9679 85.4167 45.8333 83.5512 45.8333 81.25V52.0833C45.8333 49.7821 47.6988 47.9167 50 47.9167Z" fill="url(#paint1_linear_4002_1186)"/>
</g>
<path fill-rule="evenodd" clip-rule="evenodd" d="M50.0001 6.25C75.3131 6.25 95.8334 26.7703 95.8334 52.0833C95.8334 54.3845 93.9679 56.25 91.6668 56.25H8.33342C6.03223 56.25 4.16675 54.3845 4.16675 52.0833C4.16675 26.7703 24.687 6.25 50.0001 6.25Z" fill="url(#paint2_linear_4002_1186)"/>
<path fill-rule="evenodd" clip-rule="evenodd" d="M50.0001 56.25C40.7408 56.25 26.8519 56.25 8.33342 56.25C6.03223 56.25 4.16675 54.3845 4.16675 52.0833C4.16675 26.7703 24.687 6.25 50.0001 6.25V56.25Z" fill="url(#paint3_linear_4002_1186)"/>
<path fill-rule="evenodd" clip-rule="evenodd" d="M66.6668 56.25C66.6668 28.6358 59.2049 6.25 50.0002 6.25C40.7954 6.25 33.3335 28.6358 33.3335 56.25H66.6668Z" fill="url(#paint4_linear_4002_1186)"/>
<defs>
<filter id="filter0_i_4002_1186" x="35.5" y="47.9167" width="18.6667" height="49.8333" filterUnits="userSpaceOnUse" color-interpolation-filters="sRGB">
<feFlood flood-opacity="0" result="BackgroundImageFix"/>
<feBlend mode="normal" in="SourceGraphic" in2="BackgroundImageFix" result="shape"/>
<feColorMatrix in="SourceAlpha" type="matrix" values="0 0 0 0 0 0 0 0 0 0 0 0 0 0 0 0 0 0 127 0" result="hardAlpha"/>
<feOffset dx="-2" dy="4"/>
<feGaussianBlur stdDeviation="2"/>
<feComposite in2="hardAlpha" operator="arithmetic" k2="-1" k3="1"/>
<feColorMatrix type="matrix" values="0 0 0 0 1 0 0 0 0 1 0 0 0 0 1 0 0 0 1 0"/>
<feBlend mode="normal" in2="shape" result="effect1_innerShadow_4002_1186"/>
</filter>
<linearGradient id="paint0_linear_4002_1186" x1="4.16553" y1="47.9156" x2="4.16553" y2="95.8344" gradientUnits="userSpaceOnUse">
<stop stop-color="#4CAFFF"/>
<stop offset="1" stop-color="#8FD5FF"/>
</linearGradient>
<linearGradient id="paint1_linear_4002_1186" x1="38.6676" y1="47.9167" x2="62.3945" y2="52.6687" gradientUnits="userSpaceOnUse">
<stop stop-color="white"/>
<stop offset="1" stop-color="#B4E6FB"/>
</linearGradient>
<linearGradient id="paint2_linear_4002_1186" x1="50.0001" y1="6.25" x2="50.0001" y2="56.25" gradientUnits="userSpaceOnUse">
<stop stop-color="#FFAA85"/>
<stop offset="1" stop-color="#FF6161"/>
</linearGradient>
<linearGradient id="paint3_linear_4002_1186" x1="27.0834" y1="6.25" x2="27.0834" y2="56.25" gradientUnits="userSpaceOnUse">
<stop stop-color="#7AC7FF"/>
<stop offset="1" stop-color="#2E69FF"/>
</linearGradient>
<linearGradient id="paint4_linear_4002_1186" x1="50.0002" y1="6.25" x2="50.0002" y2="56.25" gradientUnits="userSpaceOnUse">
<stop stop-color="#FFFB95"/>
<stop offset="1" stop-color="#FFB812"/>
</linearGradient>
</defs>
</svg>
