<svg width="100" height="100" viewBox="0 0 100 100" fill="none" xmlns="http://www.w3.org/2000/svg">
<g filter="url(#filter0_i_4002_1077)">
<path fill-rule="evenodd" clip-rule="evenodd" d="M65.8578 2.57929C69.6152 1.81978 72.3179 6.10923 70.011 9.17082C68.2757 11.4738 67.3245 14.2669 67.3245 17.2149C67.3245 24.6029 73.3137 30.5921 80.7017 30.5921C83.6494 30.5921 86.4419 29.6411 88.7435 27.9063C91.8047 25.599 96.0945 28.3009 95.3356 32.0585C92.9977 43.6353 82.7853 52.0833 70.8333 52.0833C57.0261 52.0833 45.8333 40.8904 45.8333 27.0833C45.8333 15.1316 54.2808 4.91937 65.8578 2.57929Z" fill="url(#paint0_linear_4002_1077)"/>
</g>
<g filter="url(#filter1_i_4002_1077)">
<path fill-rule="evenodd" clip-rule="evenodd" d="M37.5001 18.75C19.0906 18.75 4.16675 33.6738 4.16675 52.0833L4.17377 52.7735C4.51509 69.5274 17.2555 83.366 33.759 85.2088L34.3084 85.2646L34.501 85.3157C34.7956 85.3818 35.1021 85.4167 35.4167 85.4167H72.9168L73.5298 85.4082C85.9626 85.0487 95.8334 74.9052 95.8334 62.5C95.8334 49.8435 85.5733 39.5833 72.9168 39.5833L72.0173 39.6007C71.1205 39.6355 70.2315 39.7221 69.354 39.8594L68.573 39.9958L68.357 39.4496C63.3262 27.1521 51.2577 18.75 37.5001 18.75Z" fill="url(#paint1_linear_4002_1077)"/>
</g>
<path fill-rule="evenodd" clip-rule="evenodd" d="M31.5481 79.7025C32.4027 77.5659 34.8276 76.5267 36.9642 77.3813C38.999 78.1953 40.0385 80.4335 39.3947 82.4905L39.2854 82.7975L35.1187 93.2141C34.2641 95.3507 31.8392 96.3899 29.7026 95.5353C27.6677 94.7214 26.6282 92.4832 27.2721 90.4262L27.3814 90.1192L31.5481 79.7025ZM50.2981 79.7025C51.1527 77.5659 53.5776 76.5267 55.7142 77.3813C57.749 78.1953 58.7885 80.4335 58.1447 82.4905L58.0354 82.7975L53.8687 93.2141C53.0141 95.3507 50.5892 96.3899 48.4526 95.5353C46.4177 94.7214 45.3782 92.4832 46.0221 90.4262L46.1314 90.1192L50.2981 79.7025ZM69.0481 79.7025C69.9027 77.5659 72.3276 76.5267 74.4642 77.3813C76.499 78.1953 77.5386 80.4335 76.8947 82.4905L76.7854 82.7975L72.6187 93.2141C71.7641 95.3507 69.3392 96.3899 67.2026 95.5353C65.1677 94.7214 64.1282 92.4832 64.7721 90.4262L64.8814 90.1192L69.0481 79.7025Z" fill="url(#paint2_linear_4002_1077)"/>
<defs>
<filter id="filter0_i_4002_1077" x="45.8333" y="2.49072" width="49.5908" height="51.5926" filterUnits="userSpaceOnUse" color-interpolation-filters="sRGB">
<feFlood flood-opacity="0" result="BackgroundImageFix"/>
<feBlend mode="normal" in="SourceGraphic" in2="BackgroundImageFix" result="shape"/>
<feColorMatrix in="SourceAlpha" type="matrix" values="0 0 0 0 0 0 0 0 0 0 0 0 0 0 0 0 0 0 127 0" result="hardAlpha"/>
<feOffset dy="2"/>
<feGaussianBlur stdDeviation="8"/>
<feComposite in2="hardAlpha" operator="arithmetic" k2="-1" k3="1"/>
<feColorMatrix type="matrix" values="0 0 0 0 1 0 0 0 0 1 0 0 0 0 1 0 0 0 1 0"/>
<feBlend mode="overlay" in2="shape" result="effect1_innerShadow_4002_1077"/>
</filter>
<filter id="filter1_i_4002_1077" x="2.16675" y="18.75" width="93.6667" height="70.6667" filterUnits="userSpaceOnUse" color-interpolation-filters="sRGB">
<feFlood flood-opacity="0" result="BackgroundImageFix"/>
<feBlend mode="normal" in="SourceGraphic" in2="BackgroundImageFix" result="shape"/>
<feColorMatrix in="SourceAlpha" type="matrix" values="0 0 0 0 0 0 0 0 0 0 0 0 0 0 0 0 0 0 127 0" result="hardAlpha"/>
<feOffset dx="-2" dy="4"/>
<feGaussianBlur stdDeviation="2"/>
<feComposite in2="hardAlpha" operator="arithmetic" k2="-1" k3="1"/>
<feColorMatrix type="matrix" values="0 0 0 0 1 0 0 0 0 1 0 0 0 0 1 0 0 0 1 0"/>
<feBlend mode="normal" in2="shape" result="effect1_innerShadow_4002_1077"/>
</filter>
<linearGradient id="paint0_linear_4002_1077" x1="70.6286" y1="2.49072" x2="70.6286" y2="52.0833" gradientUnits="userSpaceOnUse">
<stop stop-color="#FFD358"/>
<stop offset="1" stop-color="#FA6C21"/>
</linearGradient>
<linearGradient id="paint1_linear_4002_1077" x1="10.5885" y1="18.75" x2="96.8486" y2="84.0761" gradientUnits="userSpaceOnUse">
<stop stop-color="white"/>
<stop offset="1" stop-color="#B4E6FB"/>
</linearGradient>
<linearGradient id="paint2_linear_4002_1077" x1="27.0823" y1="77.0822" x2="27.0823" y2="95.8344" gradientUnits="userSpaceOnUse">
<stop stop-color="#4CAFFF"/>
<stop offset="1" stop-color="#8FD5FF"/>
</linearGradient>
</defs>
</svg>
