<svg width="100" height="100" viewBox="0 0 100 100" fill="none" xmlns="http://www.w3.org/2000/svg">
<g filter="url(#filter0_i_4002_1137)">
<path fill-rule="evenodd" clip-rule="evenodd" d="M37.5001 8.33331C19.0906 8.33331 4.16675 23.2572 4.16675 41.6666L4.17377 42.3568C4.51509 59.1107 17.2555 72.9494 33.759 74.7921L34.3084 74.8479L34.501 74.899C34.7956 74.9651 35.1021 75 35.4167 75H72.9168L73.5298 74.9916C85.9626 74.632 95.8334 64.4885 95.8334 52.0833C95.8334 39.4268 85.5733 29.1666 72.9168 29.1666L72.0173 29.184C71.1205 29.2188 70.2315 29.3054 69.354 29.4427L68.573 29.5791L68.357 29.0329C63.3262 16.7354 51.2577 8.33331 37.5001 8.33331Z" fill="url(#paint0_linear_4002_1137)"/>
</g>
<path fill-rule="evenodd" clip-rule="evenodd" d="M52.0854 70.8333C54.282 70.8333 56.0816 72.5331 56.2407 74.689L56.2521 75V79.1666H60.4188C62.72 79.1666 64.5854 81.0321 64.5854 83.3333C64.5854 85.5299 62.8857 87.3295 60.7297 87.4886L60.4188 87.5H56.2521V91.6666C56.2521 93.9678 54.3866 95.8333 52.0854 95.8333C49.8889 95.8333 48.0893 94.1336 47.9302 91.9776L47.9188 91.6666V87.5H43.7521C41.4509 87.5 39.5854 85.6345 39.5854 83.3333C39.5854 81.1367 41.2852 79.3371 43.4411 79.1781L43.7521 79.1666H47.9188V75C47.9188 72.6988 49.7843 70.8333 52.0854 70.8333ZM81.2521 70.8333C83.4487 70.8333 85.2483 72.5331 85.4073 74.689L85.4188 75V79.1666H89.5854C91.8866 79.1666 93.7521 81.0321 93.7521 83.3333C93.7521 85.5299 92.0524 87.3295 89.8964 87.4886L89.5854 87.5H85.4188V91.6666C85.4188 93.9678 83.5533 95.8333 81.2521 95.8333C79.0555 95.8333 77.2559 94.1336 77.0969 91.9776L77.0854 91.6666V87.5H72.9188C70.6176 87.5 68.7521 85.6345 68.7521 83.3333C68.7521 81.1367 70.4519 79.3371 72.6078 79.1781L72.9188 79.1666H77.0854V75C77.0854 72.6988 78.9509 70.8333 81.2521 70.8333ZM27.3823 75.5358C28.237 73.3993 30.6619 72.36 32.7985 73.2147C34.8333 74.0286 35.8728 76.2668 35.2289 78.3238L35.1196 78.6308L30.953 89.0474C30.0983 91.184 27.6735 92.2233 25.5369 91.3686C23.502 90.5547 22.4625 88.3165 23.1064 86.2595L23.2157 85.9525L27.3823 75.5358ZM10.7146 75.5358C11.5692 73.3993 13.9941 72.36 16.1307 73.2147C18.1655 74.0286 19.205 76.2668 18.5612 78.3238L18.4519 78.6308L14.2852 89.0474C13.4306 91.184 11.0057 92.2233 8.86909 91.3686C6.83424 90.5547 5.79473 88.3165 6.43861 86.2595L6.5479 85.9525L10.7146 75.5358Z" fill="url(#paint1_linear_4002_1137)"/>
<defs>
<filter id="filter0_i_4002_1137" x="2.16675" y="8.33331" width="93.6667" height="70.6667" filterUnits="userSpaceOnUse" color-interpolation-filters="sRGB">
<feFlood flood-opacity="0" result="BackgroundImageFix"/>
<feBlend mode="normal" in="SourceGraphic" in2="BackgroundImageFix" result="shape"/>
<feColorMatrix in="SourceAlpha" type="matrix" values="0 0 0 0 0 0 0 0 0 0 0 0 0 0 0 0 0 0 127 0" result="hardAlpha"/>
<feOffset dx="-2" dy="4"/>
<feGaussianBlur stdDeviation="2"/>
<feComposite in2="hardAlpha" operator="arithmetic" k2="-1" k3="1"/>
<feColorMatrix type="matrix" values="0 0 0 0 1 0 0 0 0 1 0 0 0 0 1 0 0 0 1 0"/>
<feBlend mode="normal" in2="shape" result="effect1_innerShadow_4002_1137"/>
</filter>
<linearGradient id="paint0_linear_4002_1137" x1="10.5885" y1="8.33332" x2="96.8486" y2="73.6594" gradientUnits="userSpaceOnUse">
<stop stop-color="white"/>
<stop offset="1" stop-color="#B4E6FB"/>
</linearGradient>
<linearGradient id="paint1_linear_4002_1137" x1="6.24878" y1="70.8333" x2="6.24878" y2="95.8333" gradientUnits="userSpaceOnUse">
<stop stop-color="#4CAFFF"/>
<stop offset="1" stop-color="#8FD5FF"/>
</linearGradient>
</defs>
</svg>
