<svg width="100" height="100" viewBox="0 0 100 100" fill="none" xmlns="http://www.w3.org/2000/svg">
<g filter="url(#filter0_i_4002_1140)">
<path fill-rule="evenodd" clip-rule="evenodd" d="M68.75 14.5833C79.1053 14.5833 87.5 22.978 87.5 33.3333C87.5 43.6886 79.1053 52.0833 68.75 52.0833C58.3947 52.0833 50 43.6886 50 33.3333C50 22.978 58.3947 14.5833 68.75 14.5833ZM93.3702 33.5078C95.6714 33.5078 97.5369 35.3733 97.5369 37.6745C97.5369 39.9757 95.6714 41.8412 93.3702 41.8412C91.069 41.8412 89.2035 39.9757 89.2035 37.6745C89.2035 35.3733 91.069 33.5078 93.3702 33.5078ZM89.2288 14.8272C91.53 14.8272 93.3955 16.6927 93.3955 18.9939C93.3955 21.2951 91.53 23.1606 89.2288 23.1606C86.9276 23.1606 85.0621 21.2951 85.0621 18.9939C85.0621 16.6927 86.9276 14.8272 89.2288 14.8272ZM54.4106 8.68784C56.7118 8.68784 58.5773 10.5533 58.5773 12.8545C58.5773 15.1557 56.7118 17.0212 54.4106 17.0212C52.1094 17.0212 50.2439 15.1557 50.2439 12.8545C50.2439 10.5533 52.1094 8.68784 54.4106 8.68784ZM73.0912 4.54645C75.3924 4.54645 77.2579 6.41193 77.2579 8.71311C77.2579 11.0143 75.3924 12.8798 73.0912 12.8798C70.79 12.8798 68.9245 11.0143 68.9245 8.71311C68.9245 6.41193 70.79 4.54645 73.0912 4.54645Z" fill="url(#paint0_linear_4002_1140)"/>
</g>
<g filter="url(#filter1_i_4002_1140)">
<path fill-rule="evenodd" clip-rule="evenodd" d="M37.5001 18.75C19.0906 18.75 4.16675 33.6738 4.16675 52.0833L4.17377 52.7735C4.51509 69.5274 17.2555 83.366 33.759 85.2088L34.3084 85.2646L34.501 85.3157C34.7956 85.3818 35.1021 85.4167 35.4167 85.4167H72.9168L73.5298 85.4082C85.9626 85.0487 95.8334 74.9052 95.8334 62.5C95.8334 49.8435 85.5733 39.5833 72.9168 39.5833L72.0173 39.6007C71.1205 39.6355 70.2315 39.7221 69.354 39.8594L68.573 39.9958L68.357 39.4496C63.3262 27.1521 51.2577 18.75 37.5001 18.75Z" fill="url(#paint1_linear_4002_1140)"/>
</g>
<path fill-rule="evenodd" clip-rule="evenodd" d="M35.4166 70.8333C37.6131 70.8333 39.4127 72.5331 39.5718 74.689L39.5832 75V79.1666H43.7499C46.0511 79.1666 47.9166 81.0321 47.9166 83.3333C47.9166 85.5299 46.2168 87.3295 44.0609 87.4886L43.7499 87.5H39.5832V91.6666C39.5832 93.9678 37.7177 95.8333 35.4166 95.8333C33.22 95.8333 31.4204 94.1336 31.2613 91.9776L31.2499 91.6666V87.5H27.0832C24.782 87.5 22.9166 85.6345 22.9166 83.3333C22.9166 81.1367 24.6163 79.3371 26.7723 79.1781L27.0832 79.1666H31.2499V75C31.2499 72.6988 33.1154 70.8333 35.4166 70.8333ZM64.5832 70.8333C66.7798 70.8333 68.5794 72.5331 68.7385 74.689L68.7499 75V79.1666H72.9166C75.2177 79.1666 77.0832 81.0321 77.0832 83.3333C77.0832 85.5299 75.3835 87.3295 73.2275 87.4886L72.9166 87.5H68.7499V91.6666C68.7499 93.9678 66.8844 95.8333 64.5832 95.8333C62.3866 95.8333 60.587 94.1336 60.428 91.9776L60.4166 91.6666V87.5H56.2499C53.9487 87.5 52.0832 85.6345 52.0832 83.3333C52.0832 81.1367 53.783 79.3371 55.9389 79.1781L56.2499 79.1666H60.4166V75C60.4166 72.6988 62.282 70.8333 64.5832 70.8333ZM85.7146 75.5358C86.5692 73.3993 88.9941 72.36 91.1307 73.2147C93.1655 74.0286 94.2051 76.2668 93.5612 78.3238L93.4519 78.6308L89.2852 89.0474C88.4306 91.184 86.0057 92.2233 83.8691 91.3686C81.8342 90.5547 80.7947 88.3165 81.4386 86.2595L81.5479 85.9525L85.7146 75.5358ZM10.7146 75.5358C11.5692 73.3993 13.9941 72.36 16.1307 73.2147C18.1655 74.0286 19.2051 76.2668 18.5612 78.3238L18.4519 78.6308L14.2852 89.0474C13.4306 91.184 11.0057 92.2233 8.86909 91.3686C6.83424 90.5547 5.79473 88.3165 6.43861 86.2595L6.5479 85.9525L10.7146 75.5358Z" fill="url(#paint2_linear_4002_1140)"/>
<defs>
<filter id="filter0_i_4002_1140" x="50" y="4.54645" width="47.5369" height="49.5369" filterUnits="userSpaceOnUse" color-interpolation-filters="sRGB">
<feFlood flood-opacity="0" result="BackgroundImageFix"/>
<feBlend mode="normal" in="SourceGraphic" in2="BackgroundImageFix" result="shape"/>
<feColorMatrix in="SourceAlpha" type="matrix" values="0 0 0 0 0 0 0 0 0 0 0 0 0 0 0 0 0 0 127 0" result="hardAlpha"/>
<feOffset dy="2"/>
<feGaussianBlur stdDeviation="4"/>
<feComposite in2="hardAlpha" operator="arithmetic" k2="-1" k3="1"/>
<feColorMatrix type="matrix" values="0 0 0 0 1 0 0 0 0 1 0 0 0 0 1 0 0 0 1 0"/>
<feBlend mode="overlay" in2="shape" result="effect1_innerShadow_4002_1140"/>
</filter>
<filter id="filter1_i_4002_1140" x="2.16675" y="18.75" width="93.6667" height="70.6667" filterUnits="userSpaceOnUse" color-interpolation-filters="sRGB">
<feFlood flood-opacity="0" result="BackgroundImageFix"/>
<feBlend mode="normal" in="SourceGraphic" in2="BackgroundImageFix" result="shape"/>
<feColorMatrix in="SourceAlpha" type="matrix" values="0 0 0 0 0 0 0 0 0 0 0 0 0 0 0 0 0 0 127 0" result="hardAlpha"/>
<feOffset dx="-2" dy="4"/>
<feGaussianBlur stdDeviation="2"/>
<feComposite in2="hardAlpha" operator="arithmetic" k2="-1" k3="1"/>
<feColorMatrix type="matrix" values="0 0 0 0 1 0 0 0 0 1 0 0 0 0 1 0 0 0 1 0"/>
<feBlend mode="normal" in2="shape" result="effect1_innerShadow_4002_1140"/>
</filter>
<linearGradient id="paint0_linear_4002_1140" x1="73.7684" y1="4.54645" x2="73.7684" y2="52.0833" gradientUnits="userSpaceOnUse">
<stop stop-color="#FFD358"/>
<stop offset="1" stop-color="#FA6C21"/>
</linearGradient>
<linearGradient id="paint1_linear_4002_1140" x1="10.5885" y1="18.75" x2="96.8486" y2="84.0761" gradientUnits="userSpaceOnUse">
<stop stop-color="white"/>
<stop offset="1" stop-color="#B4E6FB"/>
</linearGradient>
<linearGradient id="paint2_linear_4002_1140" x1="6.24878" y1="70.8333" x2="6.24878" y2="95.8333" gradientUnits="userSpaceOnUse">
<stop stop-color="#4CAFFF"/>
<stop offset="1" stop-color="#8FD5FF"/>
</linearGradient>
</defs>
</svg>
