<svg width="100" height="100" viewBox="0 0 100 100" fill="none" xmlns="http://www.w3.org/2000/svg">
<path fill-rule="evenodd" clip-rule="evenodd" d="M14.5835 75C12.3869 75 10.5873 76.6998 10.4283 78.8557L10.4168 79.1667V81.25H8.3335C6.03231 81.25 4.16683 83.1155 4.16683 85.4167C4.16683 87.6133 5.86658 89.4129 8.02254 89.5719L8.3335 89.5834H10.4168V91.6667C10.4168 93.9679 12.2823 95.8334 14.5835 95.8334C16.7801 95.8334 18.5797 94.1336 18.7387 91.9776L18.7502 91.6667V89.5834H20.8335C23.1347 89.5834 25.0002 87.7179 25.0002 85.4167C25.0002 83.2201 23.3004 81.4205 21.1445 81.2614L20.8335 81.25H18.7502V79.1667C18.7502 76.8655 16.8847 75 14.5835 75ZM35.4168 66.6667C33.2202 66.6667 31.4207 68.3664 31.2616 70.5224L31.2502 70.8334V72.9167H29.1668C26.8656 72.9167 25.0002 74.7822 25.0002 77.0834C25.0002 79.2799 26.6999 81.0795 28.8559 81.2386L29.1668 81.25H31.2502V83.3334C31.2502 85.6345 33.1156 87.5 35.4168 87.5C37.6134 87.5 39.413 85.8003 39.5721 83.6443L39.5835 83.3334V81.25H41.6668C43.968 81.25 45.8335 79.3845 45.8335 77.0834C45.8335 74.8868 44.1338 73.0872 41.9778 72.9281L41.6668 72.9167H39.5835V70.8334C39.5835 68.5322 37.718 66.6667 35.4168 66.6667ZM20.8335 54.1667C18.6369 54.1667 16.8373 55.8664 16.6783 58.0224L16.6668 58.3334V60.4167H14.5835C12.2823 60.4167 10.4168 62.2822 10.4168 64.5834C10.4168 66.7799 12.1166 68.5795 14.2725 68.7386L14.5835 68.75H16.6668V70.8334C16.6668 73.1345 18.5323 75 20.8335 75C23.0301 75 24.8297 73.3003 24.9887 71.1443L25.0002 70.8334V68.75H27.0835C29.3847 68.75 31.2502 66.8845 31.2502 64.5834C31.2502 62.3868 29.5504 60.5872 27.3945 60.4281L27.0835 60.4167H25.0002V58.3334C25.0002 56.0322 23.1347 54.1667 20.8335 54.1667Z" fill="url(#paint0_linear_4002_1209)"/>
<path fill-rule="evenodd" clip-rule="evenodd" d="M64.5835 52.0833C66.7801 52.0833 68.5797 53.7831 68.7387 55.939L68.7502 56.25V58.3333H70.8335C73.1347 58.3333 75.0002 60.1988 75.0002 62.5C75.0002 64.6966 73.3004 66.4962 71.1445 66.6552L70.8335 66.6666H68.7502V68.75C68.7502 71.0512 66.8847 72.9166 64.5835 72.9166C62.3869 72.9166 60.5873 71.2169 60.4283 69.0609L60.4168 68.75V66.6666H58.3335C56.0323 66.6666 54.1668 64.8012 54.1668 62.5C54.1668 60.3034 55.8666 58.5038 58.0225 58.3447L58.3335 58.3333H60.4168V56.25C60.4168 53.9488 62.2823 52.0833 64.5835 52.0833ZM62.5002 75C64.6968 75 66.4963 76.6997 66.6554 78.8557L66.6668 79.1666V81.25H68.7502C71.0514 81.25 72.9168 83.1155 72.9168 85.4166C72.9168 87.6132 71.2171 89.4128 69.0611 89.5719L68.7502 89.5833H66.6668V91.6666C66.6668 93.9678 64.8014 95.8333 62.5002 95.8333C60.3036 95.8333 58.504 94.1336 58.3449 91.9776L58.3335 91.6666V89.5833H56.2502C53.949 89.5833 52.0835 87.7178 52.0835 85.4166C52.0835 83.2201 53.7832 81.4205 55.9392 81.2614L56.2502 81.25H58.3335V79.1666C58.3335 76.8655 60.199 75 62.5002 75ZM85.4168 75C87.6134 75 89.413 76.6997 89.5721 78.8557L89.5835 79.1666V81.25H91.6668C93.968 81.25 95.8335 83.1155 95.8335 85.4166C95.8335 87.6132 94.1338 89.4128 91.9778 89.5719L91.6668 89.5833H89.5835V91.6666C89.5835 93.9678 87.718 95.8333 85.4168 95.8333C83.2202 95.8333 81.4207 94.1336 81.2616 91.9776L81.2502 91.6666V89.5833H79.1668C76.8656 89.5833 75.0002 87.7178 75.0002 85.4166C75.0002 83.2201 76.6999 81.4205 78.8559 81.2614L79.1668 81.25H81.2502V79.1666C81.2502 76.8655 83.1156 75 85.4168 75ZM87.5002 52.0833C89.6968 52.0833 91.4963 53.7831 91.6554 55.939L91.6668 56.25V58.3333H93.7502C96.0514 58.3333 97.9168 60.1988 97.9168 62.5C97.9168 64.6966 96.2171 66.4962 94.0611 66.6552L93.7502 66.6666H91.6668V68.75C91.6668 71.0512 89.8014 72.9166 87.5002 72.9166C85.3036 72.9166 83.504 71.2169 83.3449 69.0609L83.3335 68.75V66.6666H81.2502C78.949 66.6666 77.0835 64.8012 77.0835 62.5C77.0835 60.3034 78.7832 58.5038 80.9392 58.3447L81.2502 58.3333H83.3335V56.25C83.3335 53.9488 85.199 52.0833 87.5002 52.0833Z" fill="url(#paint1_linear_4002_1209)"/>
<g filter="url(#filter0_i_4002_1209)">
<path fill-rule="evenodd" clip-rule="evenodd" d="M50 47.9167C52.3012 47.9167 54.1667 49.7822 54.1667 52.0834V81.25C54.1667 88.1536 48.5702 93.75 41.6667 93.75C39.3655 93.75 37.5 91.8845 37.5 89.5834C37.5 87.2822 39.3655 85.4167 41.6667 85.4167C43.9679 85.4167 45.8333 83.5512 45.8333 81.25V52.0834C45.8333 49.7822 47.6988 47.9167 50 47.9167Z" fill="url(#paint2_linear_4002_1209)"/>
</g>
<path fill-rule="evenodd" clip-rule="evenodd" d="M49.9998 6.25C75.3129 6.25 95.8332 26.7703 95.8332 52.0833C95.8332 54.3845 93.9677 56.25 91.6665 56.25H8.33317C6.03198 56.25 4.1665 54.3845 4.1665 52.0833C4.1665 26.7703 24.6868 6.25 49.9998 6.25Z" fill="url(#paint3_linear_4002_1209)"/>
<path fill-rule="evenodd" clip-rule="evenodd" d="M49.9998 56.25C40.7406 56.25 26.8517 56.25 8.33317 56.25C6.03198 56.25 4.1665 54.3845 4.1665 52.0833C4.1665 26.7703 24.6868 6.25 49.9998 6.25V56.25Z" fill="url(#paint4_linear_4002_1209)"/>
<path fill-rule="evenodd" clip-rule="evenodd" d="M66.6663 56.25C66.6663 28.6358 59.2044 6.25 49.9997 6.25C40.7949 6.25 33.333 28.6358 33.333 56.25H66.6663Z" fill="url(#paint5_linear_4002_1209)"/>
<defs>
<filter id="filter0_i_4002_1209" x="35.5" y="47.9167" width="18.6665" height="49.8333" filterUnits="userSpaceOnUse" color-interpolation-filters="sRGB">
<feFlood flood-opacity="0" result="BackgroundImageFix"/>
<feBlend mode="normal" in="SourceGraphic" in2="BackgroundImageFix" result="shape"/>
<feColorMatrix in="SourceAlpha" type="matrix" values="0 0 0 0 0 0 0 0 0 0 0 0 0 0 0 0 0 0 127 0" result="hardAlpha"/>
<feOffset dx="-2" dy="4"/>
<feGaussianBlur stdDeviation="2"/>
<feComposite in2="hardAlpha" operator="arithmetic" k2="-1" k3="1"/>
<feColorMatrix type="matrix" values="0 0 0 0 1 0 0 0 0 1 0 0 0 0 1 0 0 0 1 0"/>
<feBlend mode="normal" in2="shape" result="effect1_innerShadow_4002_1209"/>
</filter>
<linearGradient id="paint0_linear_4002_1209" x1="45.8335" y1="54.1667" x2="45.8335" y2="95.8334" gradientUnits="userSpaceOnUse">
<stop stop-color="#4CAFFF"/>
<stop offset="1" stop-color="#8FD5FF"/>
</linearGradient>
<linearGradient id="paint1_linear_4002_1209" x1="52.0835" y1="52.0833" x2="52.0835" y2="95.8333" gradientUnits="userSpaceOnUse">
<stop stop-color="#4CAFFF"/>
<stop offset="1" stop-color="#8FD5FF"/>
</linearGradient>
<linearGradient id="paint2_linear_4002_1209" x1="38.6676" y1="47.9167" x2="62.3945" y2="52.6688" gradientUnits="userSpaceOnUse">
<stop stop-color="white"/>
<stop offset="1" stop-color="#B4E6FB"/>
</linearGradient>
<linearGradient id="paint3_linear_4002_1209" x1="49.9998" y1="6.25" x2="49.9998" y2="56.25" gradientUnits="userSpaceOnUse">
<stop stop-color="#FFAA85"/>
<stop offset="1" stop-color="#FF6161"/>
</linearGradient>
<linearGradient id="paint4_linear_4002_1209" x1="27.0832" y1="6.25" x2="27.0832" y2="56.25" gradientUnits="userSpaceOnUse">
<stop stop-color="#7AC7FF"/>
<stop offset="1" stop-color="#2E69FF"/>
</linearGradient>
<linearGradient id="paint5_linear_4002_1209" x1="49.9997" y1="6.25" x2="49.9997" y2="56.25" gradientUnits="userSpaceOnUse">
<stop stop-color="#FFFB95"/>
<stop offset="1" stop-color="#FFB812"/>
</linearGradient>
</defs>
</svg>
