<svg width="100" height="100" viewBox="0 0 100 100" fill="none" xmlns="http://www.w3.org/2000/svg">
<g filter="url(#filter0_i_4002_1144)">
<path fill-rule="evenodd" clip-rule="evenodd" d="M65.8578 2.57929C69.6152 1.81978 72.3179 6.10923 70.011 9.17082C68.2757 11.4738 67.3245 14.2669 67.3245 17.2149C67.3245 24.6029 73.3137 30.5921 80.7017 30.5921C83.6494 30.5921 86.4419 29.6411 88.7435 27.9063C91.8047 25.599 96.0945 28.3009 95.3356 32.0585C92.9977 43.6353 82.7853 52.0833 70.8333 52.0833C57.0261 52.0833 45.8333 40.8904 45.8333 27.0833C45.8333 15.1316 54.2808 4.91937 65.8578 2.57929Z" fill="url(#paint0_linear_4002_1144)"/>
</g>
<g filter="url(#filter1_i_4002_1144)">
<path fill-rule="evenodd" clip-rule="evenodd" d="M37.5001 18.75C19.0906 18.75 4.16675 33.6738 4.16675 52.0833L4.17377 52.7735C4.51509 69.5274 17.2555 83.366 33.759 85.2088L34.3084 85.2646L34.501 85.3157C34.7956 85.3818 35.1021 85.4167 35.4167 85.4167H72.9168L73.5298 85.4082C85.9626 85.0487 95.8334 74.9052 95.8334 62.5C95.8334 49.8435 85.5733 39.5833 72.9168 39.5833L72.0173 39.6007C71.1205 39.6355 70.2315 39.7221 69.354 39.8594L68.573 39.9958L68.357 39.4496C63.3262 27.1521 51.2577 18.75 37.5001 18.75Z" fill="url(#paint1_linear_4002_1144)"/>
</g>
<path fill-rule="evenodd" clip-rule="evenodd" d="M35.4166 70.8333C37.6131 70.8333 39.4127 72.5331 39.5718 74.689L39.5832 75V79.1666H43.7499C46.0511 79.1666 47.9166 81.0321 47.9166 83.3333C47.9166 85.5299 46.2168 87.3295 44.0609 87.4886L43.7499 87.5H39.5832V91.6666C39.5832 93.9678 37.7177 95.8333 35.4166 95.8333C33.22 95.8333 31.4204 94.1336 31.2613 91.9776L31.2499 91.6666V87.5H27.0832C24.782 87.5 22.9166 85.6345 22.9166 83.3333C22.9166 81.1367 24.6163 79.3371 26.7723 79.1781L27.0832 79.1666H31.2499V75C31.2499 72.6988 33.1154 70.8333 35.4166 70.8333ZM64.5832 70.8333C66.7798 70.8333 68.5794 72.5331 68.7385 74.689L68.7499 75V79.1666H72.9166C75.2177 79.1666 77.0832 81.0321 77.0832 83.3333C77.0832 85.5299 75.3835 87.3295 73.2275 87.4886L72.9166 87.5H68.7499V91.6666C68.7499 93.9678 66.8844 95.8333 64.5832 95.8333C62.3866 95.8333 60.587 94.1336 60.428 91.9776L60.4166 91.6666V87.5H56.2499C53.9487 87.5 52.0832 85.6345 52.0832 83.3333C52.0832 81.1367 53.783 79.3371 55.9389 79.1781L56.2499 79.1666H60.4166V75C60.4166 72.6988 62.282 70.8333 64.5832 70.8333ZM85.7146 75.5358C86.5692 73.3993 88.9941 72.36 91.1307 73.2147C93.1655 74.0286 94.2051 76.2668 93.5612 78.3238L93.4519 78.6308L89.2852 89.0474C88.4306 91.184 86.0057 92.2233 83.8691 91.3686C81.8342 90.5547 80.7947 88.3165 81.4386 86.2595L81.5479 85.9525L85.7146 75.5358ZM10.7146 75.5358C11.5692 73.3993 13.9941 72.36 16.1307 73.2147C18.1655 74.0286 19.2051 76.2668 18.5612 78.3238L18.4519 78.6308L14.2852 89.0474C13.4306 91.184 11.0057 92.2233 8.86909 91.3686C6.83424 90.5547 5.79473 88.3165 6.43861 86.2595L6.5479 85.9525L10.7146 75.5358Z" fill="url(#paint2_linear_4002_1144)"/>
<defs>
<filter id="filter0_i_4002_1144" x="45.8333" y="2.49072" width="49.5908" height="51.5926" filterUnits="userSpaceOnUse" color-interpolation-filters="sRGB">
<feFlood flood-opacity="0" result="BackgroundImageFix"/>
<feBlend mode="normal" in="SourceGraphic" in2="BackgroundImageFix" result="shape"/>
<feColorMatrix in="SourceAlpha" type="matrix" values="0 0 0 0 0 0 0 0 0 0 0 0 0 0 0 0 0 0 127 0" result="hardAlpha"/>
<feOffset dy="2"/>
<feGaussianBlur stdDeviation="8"/>
<feComposite in2="hardAlpha" operator="arithmetic" k2="-1" k3="1"/>
<feColorMatrix type="matrix" values="0 0 0 0 1 0 0 0 0 1 0 0 0 0 1 0 0 0 1 0"/>
<feBlend mode="overlay" in2="shape" result="effect1_innerShadow_4002_1144"/>
</filter>
<filter id="filter1_i_4002_1144" x="2.16675" y="18.75" width="93.6667" height="70.6667" filterUnits="userSpaceOnUse" color-interpolation-filters="sRGB">
<feFlood flood-opacity="0" result="BackgroundImageFix"/>
<feBlend mode="normal" in="SourceGraphic" in2="BackgroundImageFix" result="shape"/>
<feColorMatrix in="SourceAlpha" type="matrix" values="0 0 0 0 0 0 0 0 0 0 0 0 0 0 0 0 0 0 127 0" result="hardAlpha"/>
<feOffset dx="-2" dy="4"/>
<feGaussianBlur stdDeviation="2"/>
<feComposite in2="hardAlpha" operator="arithmetic" k2="-1" k3="1"/>
<feColorMatrix type="matrix" values="0 0 0 0 1 0 0 0 0 1 0 0 0 0 1 0 0 0 1 0"/>
<feBlend mode="normal" in2="shape" result="effect1_innerShadow_4002_1144"/>
</filter>
<linearGradient id="paint0_linear_4002_1144" x1="70.6286" y1="2.49072" x2="70.6286" y2="52.0833" gradientUnits="userSpaceOnUse">
<stop stop-color="#FFD358"/>
<stop offset="1" stop-color="#FA6C21"/>
</linearGradient>
<linearGradient id="paint1_linear_4002_1144" x1="10.5885" y1="18.75" x2="96.8486" y2="84.0761" gradientUnits="userSpaceOnUse">
<stop stop-color="white"/>
<stop offset="1" stop-color="#B4E6FB"/>
</linearGradient>
<linearGradient id="paint2_linear_4002_1144" x1="6.24878" y1="70.8333" x2="6.24878" y2="95.8333" gradientUnits="userSpaceOnUse">
<stop stop-color="#4CAFFF"/>
<stop offset="1" stop-color="#8FD5FF"/>
</linearGradient>
</defs>
</svg>
