<svg width="100" height="100" viewBox="0 0 100 100" fill="none" xmlns="http://www.w3.org/2000/svg">
<g filter="url(#filter0_i_4002_1152)">
<path fill-rule="evenodd" clip-rule="evenodd" d="M65.8578 2.57929C69.6152 1.81978 72.3179 6.10923 70.011 9.17082C68.2757 11.4738 67.3245 14.2669 67.3245 17.2149C67.3245 24.6029 73.3137 30.5921 80.7017 30.5921C83.6494 30.5921 86.4419 29.6411 88.7435 27.9063C91.8047 25.599 96.0945 28.3009 95.3356 32.0585C92.9977 43.6353 82.7853 52.0833 70.8333 52.0833C57.0261 52.0833 45.8333 40.8904 45.8333 27.0833C45.8333 15.1316 54.2808 4.91937 65.8578 2.57929Z" fill="url(#paint0_linear_4002_1152)"/>
</g>
<g filter="url(#filter1_i_4002_1152)">
<path fill-rule="evenodd" clip-rule="evenodd" d="M37.5001 18.75C19.0906 18.75 4.16675 33.6738 4.16675 52.0833L4.17377 52.7735C4.51509 69.5274 17.2555 83.366 33.759 85.2088L34.3084 85.2646L34.501 85.3157C34.7956 85.3818 35.1021 85.4167 35.4167 85.4167H72.9168L73.5298 85.4082C85.9626 85.0487 95.8334 74.9052 95.8334 62.5C95.8334 49.8435 85.5733 39.5833 72.9168 39.5833L72.0173 39.6007C71.1205 39.6355 70.2315 39.7221 69.354 39.8594L68.573 39.9958L68.357 39.4496C63.3262 27.1521 51.2577 18.75 37.5001 18.75Z" fill="url(#paint1_linear_4002_1152)"/>
</g>
<path fill-rule="evenodd" clip-rule="evenodd" d="M35.4167 70.8333C37.6133 70.8333 39.4129 72.5331 39.572 74.689L39.5834 75V79.1666H43.7501C46.0513 79.1666 47.9167 81.0321 47.9167 83.3333C47.9167 85.5299 46.217 87.3295 44.061 87.4886L43.7501 87.5H39.5834V91.6666C39.5834 93.9678 37.7179 95.8333 35.4167 95.8333C33.2202 95.8333 31.4206 94.1336 31.2615 91.9776L31.2501 91.6666V87.5H27.0834C24.7822 87.5 22.9167 85.6345 22.9167 83.3333C22.9167 81.1367 24.6165 79.3371 26.7725 79.1781L27.0834 79.1666H31.2501V75C31.2501 72.6988 33.1156 70.8333 35.4167 70.8333ZM64.5834 70.8333C66.78 70.8333 68.5796 72.5331 68.7387 74.689L68.7501 75V79.1666H72.9168C75.2179 79.1666 77.0834 81.0321 77.0834 83.3333C77.0834 85.5299 75.3837 87.3295 73.2277 87.4886L72.9168 87.5H68.7501V91.6666C68.7501 93.9678 66.8846 95.8333 64.5834 95.8333C62.3868 95.8333 60.5872 94.1336 60.4282 91.9776L60.4168 91.6666V87.5H56.2501C53.9489 87.5 52.0834 85.6345 52.0834 83.3333C52.0834 81.1367 53.7832 79.3371 55.9391 79.1781L56.2501 79.1666H60.4168V75C60.4168 72.6988 62.2822 70.8333 64.5834 70.8333Z" fill="url(#paint2_linear_4002_1152)"/>
<defs>
<filter id="filter0_i_4002_1152" x="45.8333" y="2.49072" width="49.5908" height="51.5926" filterUnits="userSpaceOnUse" color-interpolation-filters="sRGB">
<feFlood flood-opacity="0" result="BackgroundImageFix"/>
<feBlend mode="normal" in="SourceGraphic" in2="BackgroundImageFix" result="shape"/>
<feColorMatrix in="SourceAlpha" type="matrix" values="0 0 0 0 0 0 0 0 0 0 0 0 0 0 0 0 0 0 127 0" result="hardAlpha"/>
<feOffset dy="2"/>
<feGaussianBlur stdDeviation="8"/>
<feComposite in2="hardAlpha" operator="arithmetic" k2="-1" k3="1"/>
<feColorMatrix type="matrix" values="0 0 0 0 1 0 0 0 0 1 0 0 0 0 1 0 0 0 1 0"/>
<feBlend mode="overlay" in2="shape" result="effect1_innerShadow_4002_1152"/>
</filter>
<filter id="filter1_i_4002_1152" x="2.16675" y="18.75" width="93.6667" height="70.6667" filterUnits="userSpaceOnUse" color-interpolation-filters="sRGB">
<feFlood flood-opacity="0" result="BackgroundImageFix"/>
<feBlend mode="normal" in="SourceGraphic" in2="BackgroundImageFix" result="shape"/>
<feColorMatrix in="SourceAlpha" type="matrix" values="0 0 0 0 0 0 0 0 0 0 0 0 0 0 0 0 0 0 127 0" result="hardAlpha"/>
<feOffset dx="-2" dy="4"/>
<feGaussianBlur stdDeviation="2"/>
<feComposite in2="hardAlpha" operator="arithmetic" k2="-1" k3="1"/>
<feColorMatrix type="matrix" values="0 0 0 0 1 0 0 0 0 1 0 0 0 0 1 0 0 0 1 0"/>
<feBlend mode="normal" in2="shape" result="effect1_innerShadow_4002_1152"/>
</filter>
<linearGradient id="paint0_linear_4002_1152" x1="70.6286" y1="2.49072" x2="70.6286" y2="52.0833" gradientUnits="userSpaceOnUse">
<stop stop-color="#FFD358"/>
<stop offset="1" stop-color="#FA6C21"/>
</linearGradient>
<linearGradient id="paint1_linear_4002_1152" x1="10.5885" y1="18.75" x2="96.8486" y2="84.0761" gradientUnits="userSpaceOnUse">
<stop stop-color="white"/>
<stop offset="1" stop-color="#B4E6FB"/>
</linearGradient>
<linearGradient id="paint2_linear_4002_1152" x1="22.9167" y1="70.8333" x2="22.9167" y2="95.8333" gradientUnits="userSpaceOnUse">
<stop stop-color="#4CAFFF"/>
<stop offset="1" stop-color="#8FD5FF"/>
</linearGradient>
</defs>
</svg>
