<svg width="100" height="100" viewBox="0 0 100 100" fill="none" xmlns="http://www.w3.org/2000/svg">
<g filter="url(#filter0_i_4002_1156)">
<path fill-rule="evenodd" clip-rule="evenodd" d="M43.8442 8.97532L44.1954 9.05359C46.3012 9.61784 47.5959 11.6981 47.22 13.8055L47.1417 14.1567L43.0126 29.5642L49.9979 41.6647L56.9874 29.5642L52.8583 14.1567C52.2627 11.9339 53.5818 9.64918 55.8046 9.05359C57.9104 8.48935 60.0718 9.64355 60.7999 11.6566L60.9077 11.9999L62.8801 19.3577L66.1832 13.6365C67.3338 11.6436 69.8821 10.9608 71.875 12.1114C73.7773 13.2097 74.4859 15.5815 73.5457 17.5282L73.4001 17.8032L70.097 23.5244L77.4552 21.5536C79.561 20.9893 81.7224 22.1435 82.4505 24.1566L82.5583 24.4999C83.1226 26.6057 81.9684 28.7671 79.9554 29.4952L79.6121 29.603L64.2043 33.7308L57.2167 45.8314L71.1896 45.8334L82.4704 34.5537C84.0976 32.9266 86.7358 32.9266 88.3629 34.5537C89.9045 36.0953 89.9856 38.5442 88.6063 40.1813L88.3629 40.4463L82.975 45.8334H89.5833C91.8845 45.8334 93.75 47.6988 93.75 50C93.75 52.1966 92.0502 53.9962 89.8943 54.1553L89.5833 54.1667H82.975L88.3629 59.5537C89.9045 61.0953 89.9856 63.5442 88.6063 65.1813L88.3629 65.4463C86.8214 66.9878 84.3725 67.069 82.7354 65.6897L82.4704 65.4463L71.1896 54.1667L57.2146 54.1647L64.2032 66.2674L79.6121 70.3971C81.8348 70.9926 83.1539 73.2774 82.5583 75.5002C81.9941 77.6059 79.9138 78.9007 77.8065 78.5247L77.4552 78.4464L70.0959 76.4739L73.4001 82.1969C74.5507 84.1897 73.8679 86.738 71.875 87.8886C69.9727 88.9869 67.5643 88.4147 66.3486 86.6271L66.1832 86.3635L62.8791 80.6405L60.9077 88.0002C60.3435 90.1059 58.2632 91.4007 56.1558 91.0247L55.8046 90.9464C53.6988 90.3822 52.4041 88.3019 52.78 86.1946L52.8583 85.8433L56.9864 70.4341L49.9979 58.3335L43.0136 70.4341L47.1417 85.8433C47.7373 88.0661 46.4182 90.3508 44.1954 90.9464C42.0896 91.5107 39.9282 90.3565 39.2001 88.3435L39.0923 88.0002L37.1209 80.6405L33.8168 86.3635C32.6662 88.3564 30.1179 89.0392 28.125 87.8886C26.2227 86.7903 25.5141 84.4185 26.4543 82.4719L26.5999 82.1969L29.9041 76.4739L22.5448 78.4464C20.439 79.0107 18.2776 77.8565 17.5495 75.8435L17.4417 75.5002C16.8774 73.3944 18.0316 71.233 20.0446 70.5049L20.3879 70.3971L35.7968 66.2674L42.7833 54.1647L28.8083 54.1667L17.5296 65.4463C15.9024 67.0735 13.2642 67.0735 11.6371 65.4463C10.0955 63.9048 10.0144 61.4558 11.3937 59.8188L11.6371 59.5537L17.0229 54.1667H10.4167C8.11548 54.1667 6.25 52.3012 6.25 50C6.25 47.8034 7.94975 46.0038 10.1057 45.8448L10.4167 45.8334H17.0229L11.6371 40.4463C10.0955 38.9047 10.0144 36.4558 11.3937 34.8188L11.6371 34.5537C13.1786 33.0122 15.6275 32.9311 17.2646 34.3103L17.5296 34.5537L28.8083 45.8334L42.7812 45.8314L35.7957 33.7308L20.3879 29.603C18.1652 29.0074 16.8461 26.7226 17.4417 24.4999C18.0059 22.3941 20.0862 21.0994 22.1935 21.4753L22.5448 21.5536L29.903 23.5244L26.5999 17.8032C25.4493 15.8103 26.1321 13.262 28.125 12.1114C30.0273 11.0131 32.4357 11.5853 33.6514 13.3729L33.8168 13.6365L37.1199 19.3577L39.0923 11.9999C39.6565 9.89408 41.7368 8.59936 43.8442 8.97532Z" fill="url(#paint0_linear_4002_1156)"/>
</g>
<defs>
<filter id="filter0_i_4002_1156" x="6.25" y="8.91058" width="87.5" height="84.1788" filterUnits="userSpaceOnUse" color-interpolation-filters="sRGB">
<feFlood flood-opacity="0" result="BackgroundImageFix"/>
<feBlend mode="normal" in="SourceGraphic" in2="BackgroundImageFix" result="shape"/>
<feColorMatrix in="SourceAlpha" type="matrix" values="0 0 0 0 0 0 0 0 0 0 0 0 0 0 0 0 0 0 127 0" result="hardAlpha"/>
<feOffset dy="2"/>
<feGaussianBlur stdDeviation="4"/>
<feComposite in2="hardAlpha" operator="arithmetic" k2="-1" k3="1"/>
<feColorMatrix type="matrix" values="0 0 0 0 0.831313 0 0 0 0 0.98288 0 0 0 0 0.98288 0 0 0 1 0"/>
<feBlend mode="normal" in2="shape" result="effect1_innerShadow_4002_1156"/>
</filter>
<linearGradient id="paint0_linear_4002_1156" x1="6.25" y1="8.91058" x2="6.25" y2="91.0895" gradientUnits="userSpaceOnUse">
<stop stop-color="#8FD5FF"/>
<stop offset="1" stop-color="#4CAFFF"/>
</linearGradient>
</defs>
</svg>
