<svg width="100" height="100" viewBox="0 0 100 100" fill="none" xmlns="http://www.w3.org/2000/svg">
<g filter="url(#filter0_i_4002_1232)">
<path fill-rule="evenodd" clip-rule="evenodd" d="M37.5001 8.33331C19.0906 8.33331 4.16675 23.2572 4.16675 41.6666L4.17377 42.3568C4.51509 59.1107 17.2555 72.9494 33.759 74.7921L34.3084 74.8479L34.501 74.899C34.7956 74.9651 35.1021 75 35.4167 75H72.9168L73.5298 74.9916C85.9626 74.632 95.8334 64.4885 95.8334 52.0833C95.8334 39.4268 85.5733 29.1666 72.9168 29.1666L72.0173 29.184C71.1205 29.2188 70.2315 29.3054 69.354 29.4427L68.573 29.5791L68.357 29.0329C63.3262 16.7354 51.2577 8.33331 37.5001 8.33331Z" fill="url(#paint0_linear_4002_1232)"/>
</g>
<path fill-rule="evenodd" clip-rule="evenodd" d="M79.1667 70.8334C81.4678 70.8334 83.3333 72.6989 83.3333 75C83.3333 77.3012 81.4678 79.1667 79.1667 79.1667H50C47.6988 79.1667 45.8333 77.3012 45.8333 75C45.8333 72.6989 47.6988 70.8334 50 70.8334H79.1667ZM37.5 70.8334C39.8012 70.8334 41.6667 72.6989 41.6667 75C41.6667 77.3012 39.8012 79.1667 37.5 79.1667H33.3333C31.0321 79.1667 29.1667 77.3012 29.1667 75C29.1667 72.6989 31.0321 70.8334 33.3333 70.8334H37.5ZM68.75 83.3334C71.0512 83.3334 72.9167 85.1989 72.9167 87.5C72.9167 89.8012 71.0512 91.6667 68.75 91.6667H22.9167C20.6155 91.6667 18.75 89.8012 18.75 87.5C18.75 85.1989 20.6155 83.3334 22.9167 83.3334H68.75Z" fill="url(#paint1_linear_4002_1232)"/>
<defs>
<filter id="filter0_i_4002_1232" x="2.16675" y="8.33331" width="93.6667" height="70.6667" filterUnits="userSpaceOnUse" color-interpolation-filters="sRGB">
<feFlood flood-opacity="0" result="BackgroundImageFix"/>
<feBlend mode="normal" in="SourceGraphic" in2="BackgroundImageFix" result="shape"/>
<feColorMatrix in="SourceAlpha" type="matrix" values="0 0 0 0 0 0 0 0 0 0 0 0 0 0 0 0 0 0 127 0" result="hardAlpha"/>
<feOffset dx="-2" dy="4"/>
<feGaussianBlur stdDeviation="2"/>
<feComposite in2="hardAlpha" operator="arithmetic" k2="-1" k3="1"/>
<feColorMatrix type="matrix" values="0 0 0 0 1 0 0 0 0 1 0 0 0 0 1 0 0 0 1 0"/>
<feBlend mode="normal" in2="shape" result="effect1_innerShadow_4002_1232"/>
</filter>
<linearGradient id="paint0_linear_4002_1232" x1="10.5885" y1="8.33332" x2="96.8486" y2="73.6594" gradientUnits="userSpaceOnUse">
<stop stop-color="white"/>
<stop offset="1" stop-color="#B4E6FB"/>
</linearGradient>
<linearGradient id="paint1_linear_4002_1232" x1="18.75" y1="70.8334" x2="18.75" y2="91.6667" gradientUnits="userSpaceOnUse">
<stop stop-color="#4CAFFF"/>
<stop offset="1" stop-color="#8FD5FF"/>
</linearGradient>
</defs>
</svg>
