<svg width="100" height="100" viewBox="0 0 100 100" fill="none" xmlns="http://www.w3.org/2000/svg">
<g filter="url(#filter0_i_4002_1247)">
<path fill-rule="evenodd" clip-rule="evenodd" d="M75.0001 27.0833C87.4274 27.0833 95.8334 37.0136 95.8334 50C95.8334 62.9864 87.4274 72.9166 75.0001 72.9166C66.1366 72.9166 57.1322 66.1195 49.9984 57.0875C42.8679 66.1195 33.8636 72.9166 25.0001 72.9166C12.5727 72.9166 4.16675 62.9864 4.16675 50C4.16675 37.0136 12.5727 27.0833 25.0001 27.0833C33.8636 27.0833 42.868 33.8805 50.0017 42.9125C57.1322 33.8805 66.1366 27.0833 75.0001 27.0833Z" fill="url(#paint0_linear_4002_1247)"/>
</g>
<defs>
<filter id="filter0_i_4002_1247" x="4.16675" y="27.0833" width="91.6667" height="47.8333" filterUnits="userSpaceOnUse" color-interpolation-filters="sRGB">
<feFlood flood-opacity="0" result="BackgroundImageFix"/>
<feBlend mode="normal" in="SourceGraphic" in2="BackgroundImageFix" result="shape"/>
<feColorMatrix in="SourceAlpha" type="matrix" values="0 0 0 0 0 0 0 0 0 0 0 0 0 0 0 0 0 0 127 0" result="hardAlpha"/>
<feOffset dy="2"/>
<feGaussianBlur stdDeviation="4"/>
<feComposite in2="hardAlpha" operator="arithmetic" k2="-1" k3="1"/>
<feColorMatrix type="matrix" values="0 0 0 0 0.831313 0 0 0 0 0.98288 0 0 0 0 0.98288 0 0 0 1 0"/>
<feBlend mode="normal" in2="shape" result="effect1_innerShadow_4002_1247"/>
</filter>
<linearGradient id="paint0_linear_4002_1247" x1="4.16675" y1="27.0833" x2="4.16675" y2="72.9166" gradientUnits="userSpaceOnUse">
<stop stop-color="#8FD5FF"/>
<stop offset="1" stop-color="#4CAFFF"/>
</linearGradient>
</defs>
</svg>
