<svg width="100" height="100" viewBox="0 0 100 100" fill="none" xmlns="http://www.w3.org/2000/svg">
<g filter="url(#filter0_i_4002_1249)">
<path fill-rule="evenodd" clip-rule="evenodd" d="M74.9998 27.0833C87.4272 27.0833 95.8332 37.0136 95.8332 50C95.8332 62.9864 87.4272 72.9166 74.9998 72.9166C66.1363 72.9166 57.132 66.1194 49.9982 57.0875C42.8677 66.1194 33.8633 72.9166 24.9998 72.9166C12.5725 72.9166 4.1665 62.9864 4.1665 50C4.1665 37.0136 12.5725 27.0833 24.9998 27.0833C33.8633 27.0833 42.8677 33.8805 50.0015 42.9125C57.132 33.8805 66.1363 27.0833 74.9998 27.0833ZM35.4165 20.8333C38.8683 20.8333 41.6665 18.0351 41.6665 14.5833C41.6665 11.1315 38.8683 8.33331 35.4165 8.33331C31.9647 8.33331 29.1665 11.1315 29.1665 14.5833C29.1665 18.0351 31.9647 20.8333 35.4165 20.8333ZM35.4165 91.6666C38.8683 91.6666 41.6665 88.8684 41.6665 85.4166C41.6665 81.9649 38.8683 79.1666 35.4165 79.1666C31.9647 79.1666 29.1665 81.9649 29.1665 85.4166C29.1665 88.8684 31.9647 91.6666 35.4165 91.6666ZM64.5832 20.8333C68.035 20.8333 70.8332 18.0351 70.8332 14.5833C70.8332 11.1315 68.035 8.33331 64.5832 8.33331C61.1314 8.33331 58.3332 11.1315 58.3332 14.5833C58.3332 18.0351 61.1314 20.8333 64.5832 20.8333ZM64.5832 91.6666C68.035 91.6666 70.8332 88.8684 70.8332 85.4166C70.8332 81.9649 68.035 79.1666 64.5832 79.1666C61.1314 79.1666 58.3332 81.9649 58.3332 85.4166C58.3332 88.8684 61.1314 91.6666 64.5832 91.6666Z" fill="url(#paint0_linear_4002_1249)"/>
</g>
<defs>
<filter id="filter0_i_4002_1249" x="4.1665" y="8.33331" width="91.6665" height="85.3333" filterUnits="userSpaceOnUse" color-interpolation-filters="sRGB">
<feFlood flood-opacity="0" result="BackgroundImageFix"/>
<feBlend mode="normal" in="SourceGraphic" in2="BackgroundImageFix" result="shape"/>
<feColorMatrix in="SourceAlpha" type="matrix" values="0 0 0 0 0 0 0 0 0 0 0 0 0 0 0 0 0 0 127 0" result="hardAlpha"/>
<feOffset dy="2"/>
<feGaussianBlur stdDeviation="4"/>
<feComposite in2="hardAlpha" operator="arithmetic" k2="-1" k3="1"/>
<feColorMatrix type="matrix" values="0 0 0 0 0.831313 0 0 0 0 0.98288 0 0 0 0 0.98288 0 0 0 1 0"/>
<feBlend mode="normal" in2="shape" result="effect1_innerShadow_4002_1249"/>
</filter>
<linearGradient id="paint0_linear_4002_1249" x1="4.1665" y1="8.33331" x2="4.1665" y2="91.6666" gradientUnits="userSpaceOnUse">
<stop stop-color="#8FD5FF"/>
<stop offset="1" stop-color="#4CAFFF"/>
</linearGradient>
</defs>
</svg>
