<svg width="100" height="100" viewBox="0 0 100 100" fill="none" xmlns="http://www.w3.org/2000/svg">
<path fill-rule="evenodd" clip-rule="evenodd" d="M62.5 4.16663C71.7047 4.16663 79.1667 11.6285 79.1667 20.8331V52.1979L79.7264 52.7145C84.4521 57.2053 87.2922 63.4052 87.489 70.0887L87.5 70.8333C87.5 84.6404 76.3071 95.8333 62.5 95.8333C48.6929 95.8333 37.5 84.6404 37.5 70.8333C37.5 63.6169 40.5826 56.9065 45.8086 52.2207L45.8333 52.1979V20.8333C45.8333 11.8022 53.0163 4.44883 61.9809 4.17456L62.5 4.16663ZM62.5 12.5C57.8976 12.5 54.1667 16.2309 54.1667 20.8332L54.1672 56.2462L52.5028 57.4963C48.3318 60.6291 45.8333 65.5197 45.8333 70.8333C45.8333 80.038 53.2953 87.5 62.5 87.5C71.7047 87.5 79.1667 80.038 79.1667 70.8333C79.1667 65.5204 76.6689 60.6304 72.4989 57.4976L70.835 56.2476L70.8333 20.8333C70.8333 16.2309 67.1024 12.5 62.5 12.5ZM64.5833 35.4166C65.7339 35.4166 66.6667 36.3494 66.6667 37.5L66.6681 59.0451C71.5223 60.7615 75 65.3913 75 70.8333C75 77.7369 69.4036 83.3333 62.5 83.3333C55.5964 83.3333 50 77.7369 50 70.8333C50 65.3905 53.4787 60.7601 58.334 59.0443L58.3333 37.5C58.3333 36.3494 59.2661 35.4166 60.4167 35.4166H64.5833Z" fill="url(#paint0_linear_4002_1258)"/>
<path fill-rule="evenodd" clip-rule="evenodd" d="M27.4927 20.8334C29.6893 20.8334 31.4889 22.5331 31.6479 24.6891L31.6593 25L31.6583 30.2813L36.2347 27.6416C38.2276 26.491 40.7758 27.1738 41.9264 29.1667C43.0247 31.069 42.4525 33.4774 40.6649 34.6931L40.4013 34.8585L35.8271 37.5L40.4013 40.1416C42.3942 41.2922 43.077 43.8405 41.9264 45.8334C40.8281 47.7357 38.4563 48.4443 36.5097 47.5041L36.2347 47.3585L31.6583 44.7167L31.6593 50C31.6593 52.3012 29.7939 54.1667 27.4927 54.1667C25.2961 54.1667 23.4965 52.467 23.3374 50.311L23.326 50L23.325 44.7167L18.7507 47.3585C16.7578 48.5091 14.2095 47.8263 13.0589 45.8334C11.9606 43.9311 12.5329 41.5227 14.3204 40.307L14.584 40.1416L19.1562 37.498L14.584 34.8585C12.5911 33.7079 11.9083 31.1596 13.0589 29.1667C14.1572 27.2644 16.529 26.5558 18.4757 27.496L18.7507 27.6416L23.325 30.2813L23.326 25C23.326 22.6989 25.1915 20.8334 27.4927 20.8334Z" fill="url(#paint1_linear_4002_1258)"/>
<defs>
<linearGradient id="paint0_linear_4002_1258" x1="41.0028" y1="4.16663" x2="108.91" y2="24.5674" gradientUnits="userSpaceOnUse">
<stop stop-color="white"/>
<stop offset="1" stop-color="#B4E6FB"/>
</linearGradient>
<linearGradient id="paint1_linear_4002_1258" x1="12.5" y1="20.8334" x2="12.5" y2="54.1667" gradientUnits="userSpaceOnUse">
<stop stop-color="#8FD5FF"/>
<stop offset="1" stop-color="#227AFF"/>
</linearGradient>
</defs>
</svg>
